<svg width="118" height="109" viewBox="0 0 118 109" fill="none" xmlns="http://www.w3.org/2000/svg">
<path d="M52.5 108.5C81.4949 108.5 105 84.9949 105 56C105 27.0051 81.4949 3.5 52.5 3.5C23.5051 3.5 0 27.0051 0 56C0 84.9949 23.5051 108.5 52.5 108.5Z" fill="#DDECEA"/>
<path d="M25.9 90.6001L36.4 63.6001" stroke="#404F54" stroke-linecap="round" stroke-linejoin="round"/>
<path d="M37.7 90.6001L48.0999 63.6001" stroke="#404F54" stroke-linecap="round" stroke-linejoin="round"/>
<path d="M14.2 90.6001L24.6 63.6001" stroke="#404F54" stroke-linecap="round" stroke-linejoin="round"/>
<path d="M60.2 90.6001L70.5999 63.6001" stroke="#404F54" stroke-linecap="round" stroke-linejoin="round"/>
<path d="M71.9 90.6001L82.4 63.6001" stroke="#404F54" stroke-linecap="round" stroke-linejoin="round"/>
<path d="M48.4 90.6001L58.8 63.6001" stroke="#404F54" stroke-linecap="round" stroke-linejoin="round"/>
<path d="M94.4 90.6001L104.8 63.6001" stroke="#404F54" stroke-linecap="round" stroke-linejoin="round"/>
<path d="M106.2 90.6001L116.6 63.6001" stroke="#404F54" stroke-linecap="round" stroke-linejoin="round"/>
<path d="M82.6 90.6001L93 63.6001" stroke="#404F54" stroke-linecap="round" stroke-linejoin="round"/>
<path d="M10.1001 46.7649V28.4052C10.1001 13.2697 22.3698 1 37.5053 1C52.6409 1 64.9106 13.2697 64.9106 28.4052V46.6754" stroke="#404F54" stroke-linecap="round" stroke-linejoin="round"/>
<path d="M65.0001 49.8101C65.0001 53.2134 62.3133 55.9001 58.9101 55.9001H55.865C52.4618 55.9001 49.775 53.2134 49.775 49.8101V40.675C49.775 37.2717 52.4618 34.585 55.865 34.585H65.0001V49.8101ZM10.1001 49.8101C10.1001 53.2134 12.7869 55.9001 16.1901 55.9001H19.2352C22.6384 55.9001 25.3252 53.2134 25.3252 49.8101V40.675C25.3252 37.2717 22.6384 34.585 19.2352 34.585H10.1001V49.8101Z" stroke="#404F54" stroke-linecap="round" stroke-linejoin="round"/>
</svg>
