<?xml version="1.0" encoding="UTF-8"?>
<svg width="277.43" height="112.79" version="1.1" viewBox="0 0 277.43 112.79" xml:space="preserve" xmlns="http://www.w3.org/2000/svg" xmlns:cc="http://creativecommons.org/ns#" xmlns:dc="http://purl.org/dc/elements/1.1/" xmlns:rdf="http://www.w3.org/1999/02/22-rdf-syntax-ns#"><metadata><rdf:RDF><cc:Work rdf:about=""><dc:format>image/svg+xml</dc:format><dc:type rdf:resource="http://purl.org/dc/dcmitype/StillImage"/><dc:title/></cc:Work></rdf:RDF></metadata>
<style type="text/css">
	.st0{fill:currentColor;stroke:currentColor;stroke-width:4;stroke-miterlimit:10;}
	.st1{fill:currentColor;}
</style>
<g transform="translate(-22.56 -25.643)">
	<path class="st0" d="m24.56 132.79c7.55-0.2 13.53-2.52 17.94-6.98s7.6-10.12 9.56-16.99c0.59-2.06 1.12-4.21 1.62-6.47 0.49-2.26 0.74-4.51 0.74-6.77v-60.88h-27.8v-3.23h31.61v62.05c0 4.02-0.49 8.21-1.47 12.57-0.98 4.37-2.47 8.51-4.48 12.43s-4.56 7.35-7.65 10.29-6.74 5.05-10.95 6.32c-1.47 0.49-2.99 0.86-4.56 1.1-1.57 0.25-3.09 0.27-4.56 0.08z"/>
	<path class="st1" d="m111.14 114.28c-3.23-0.59-6.4-1.64-9.48-3.16-3.09-1.52-5.93-3.4-8.53-5.66s-4.91-4.78-6.91-7.57c-2.01-2.8-3.6-5.76-4.78-8.9-1.77-4.8-2.67-9.58-2.72-14.34-0.05-4.75 0.64-9.24 2.06-13.46 1.42-4.21 3.48-8.11 6.17-11.69 2.7-3.58 5.91-6.62 9.63-9.12 3.73-2.5 7.84-4.41 12.35-5.74 4.51-1.32 9.31-1.84 14.41-1.54 3.72 0.2 7.25 0.98 10.59 2.35 3.33 1.37 6.51 3.04 9.55 5 3.24 2.26 6 4.85 8.31 7.79 2.3 2.94 4.28 6.18 5.95 9.71 1.47 3.23 2.37 6.6 2.72 10.07 0.34 3.48 0.42 6.98 0.22 10.51 0 1.96-0.27 3.85-0.81 5.66s-1.15 3.55-1.84 5.22c-1.77 4.71-4.29 8.82-7.57 12.35s-7.04 6.37-11.25 8.53c-4.22 2.15-8.75 3.6-13.6 4.34-4.84 0.75-9.66 0.63-14.47-0.35zm2.8-3.38c4.11 0.79 8.31 0.76 12.57-0.07s8.16-2.23 11.69-4.19c4.6-2.55 8.35-5.71 11.25-9.48 2.89-3.77 4.95-7.82 6.17-12.13s1.67-8.72 1.32-13.24c-0.34-4.51-1.45-8.82-3.3-12.94-1.86-4.12-4.47-7.87-7.8-11.25-3.34-3.38-7.35-6.11-12.06-8.16-2.84-1.18-5.96-1.98-9.34-2.43s-6.69-0.42-9.93 0.07c-6.76 1.08-12.62 3.65-17.57 7.72s-8.67 8.9-11.17 14.49-3.56 11.59-3.17 18.01 2.6 12.48 6.62 18.16c2.84 4.22 6.42 7.65 10.73 10.29 4.33 2.65 8.99 4.37 13.99 5.15z"/>
	<rect class="st0" x="188.64" y="35.32" width="3.38" height="77.94"/>
	<path class="st0" d="m250.46 112.96c-5-0.88-9.52-2.52-13.53-4.92-4.02-2.4-7.7-5.37-11.03-8.9-3.73-4.31-6.35-9.07-7.87-14.26-1.52-5.2-2.18-10.59-1.99-16.18 0.2-3.53 0.98-7.06 2.35-10.59s3.03-6.71 5-9.56c4.02-5.49 8.68-9.61 13.97-12.35 5.3-2.74 10.76-4.31 16.4-4.71 5.63-0.39 11.15 0.35 16.54 2.21s10.2 4.66 14.41 8.38c4.21 3.73 7.55 8.31 10 13.75s3.53 11.54 3.23 18.31h-38.67v-4.12h35v-0.59c-1.67-13.24-8.19-23.24-19.55-30-3.43-2.06-7.14-3.38-11.1-3.97-3.97-0.59-7.92-0.64-11.84-0.15-4.41 0.49-8.58 1.84-12.5 4.04-3.92 2.21-7.31 4.93-10.15 8.16-4.11 4.61-6.86 9.68-8.23 15.22s-1.54 10.98-0.52 16.32c1.03 5.35 3.24 10.35 6.62 15 3.38 4.66 7.72 8.46 13.01 11.4 2.55 1.37 5.3 2.35 8.23 2.94 2.94 0.59 5.83 1.08 8.68 1.47v3.38h-3.31c-0.93 0.01-1.98-0.09-3.15-0.28z"/>


			<path class="st1" d="m165.55 77.54c4.69-16.5-2.32-34.44-17.34-42.92-13.19-7.44-28.91-6.2-41.83 1.01 13.12-8.02 29.57-9.46 43.23-1.68 15.36 8.74 22.45 27.19 17.66 44.08-5.06 17.69-21.55 30.6-39.92 31.44-14.45 0.67-27.95-6.22-35.64-18.48-0.03-0.05-0.06-0.09-0.09-0.14 5.11 7.47 12.11 12.89 20.74 15.67 9.86 3.17 20.91 2.14 30.22-2.25 5.06-2.38 9.93-5.87 13.98-10.4 4.18-4.72 7.26-10.29 8.99-16.33"/>


			<path class="st1" d="m148.19 99.87c12.22-11.17 15.89-29.31 8.34-44.18-7-13.8-21.27-21.42-36.34-22.24 15.45-0.08 30.31 7.33 37.94 21.14 8.37 15.15 5.21 34.15-7.02 46.21-0.36 0.36-0.73 0.71-1.11 1.05-13.59 12.38-34.36 14.77-50.48 5.96-12.63-6.9-20.97-19.99-20.91-34.49v-0.64c0.5 9.01 3.66 17.25 9.58 24.09 6.72 7.77 16.61 12.62 26.78 13.74 5.51 0.6 11.43 0.18 17.2-1.54 5.93-1.82 11.42-4.92 16.02-9.1"/>


			<path class="st1" d="m154.62 97.37c10.87-13.2 11.73-32.39 1.48-46.22-9.11-12.29-24.2-17.55-39.07-16.03 15.03-1.99 30.43 3.15 39.83 15.45 10.79 14.13 10.01 34.02-1.21 47.64-11.67 14.11-31.85 19.32-48.95 12.82-13.49-5.13-23.11-16.79-25.3-31.07-0.01-0.05-0.02-0.11-0.02-0.16 1.64 8.91 5.87 16.71 12.66 22.74 7.77 6.9 18.34 10.43 28.67 10.15 5.62-0.15 11.5-1.39 17.06-3.92 5.73-2.64 10.82-6.53 14.85-11.4"/>


			<path class="st1" d="m147.18 108.75c8.39-5.26 15.21-13.32 18.25-22.83 3.38-10.59 2.34-21.43-2.79-31.25 8.36 13.04 8.1 29.34-0.01 42.44-8.43 13.62-24.07 21.2-39.9 20.3-12.84-0.73-24.34-8.17-30.83-19.11 6.22 8.63 15.21 14.68 25.82 16.38 10.28 1.58 20.56-0.53 29.46-5.93"/>


			<path class="st1" d="m147.64 106.86c5.2-3.4 9.57-7.94 12.81-13.25 3.11-5.15 5-10.78 5.79-16.26 1.47-10.12-0.75-20.91-6.59-29.36-5.14-7.44-12.33-12.56-20.93-15.3 13.59 3.46 24.08 13.54 28.2 26.95 5.44 17.72-1.33 37.87-16.5 48.57-0.44 0.31-0.88 0.61-1.33 0.9-14.52 9.46-33.98 8.41-47-3.24-11.97-10.72-15.81-27.38-11.79-42.6 0.01-0.05 0.03-0.1 0.04-0.16-2.93 14.56 0.68 29.99 11.89 40.27 12.49 11.45 31.3 12.66 45.41 3.48"/>


			<path class="st1" d="m117.76 109.19c6.28-0.29 12.41-2.01 17.95-4.98 5.34-2.9 9.86-6.84 13.34-11.21 6.42-8.06 9.96-18.57 9.15-28.89-0.71-9.04-4.37-17.1-10.47-23.79 9.92 10.05 13.72 24.21 10.21 37.91-4.51 17.6-20.28 31.13-38.42 32.64-0.56 0.05-1.11 0.08-1.67 0.11-16.42 0.73-31.91-8.94-37.84-24.39-5.89-15.35-1.23-32.68 10.14-44.16 0.15-0.15 0.3-0.3 0.45-0.46-10.5 11.45-15.27 27.52-9.95 42.56 5.49 15.52 20.77 25.38 37.11 24.66"/>


			<path class="st1" d="m153.87 84.35c1.27-6.02 1.18-12.25-0.24-18.23-1.4-5.79-3.99-11.07-7.25-15.49-5.97-8.11-14.86-14.02-24.74-16.11-9.02-1.74-17.75-0.49-25.97 3.62 12.06-7.28 26.68-7.61 39.14-1.04 16.15 8.51 25.71 27.11 23.05 45.19-0.14 0.94-0.31 1.87-0.5 2.8-3.26 15.23-15.23 27.47-30.62 30.44-8.62 1.66-17.79 0.27-25.59-3.74-6.58-3.39-11.81-8.28-16.11-14.27-0.77-1.21-1.5-2.43-2.21-3.68 8.71 12.9 23.24 21.41 39.17 19.66 15.81-1.73 28.56-13.7 31.87-29.15"/>


			<path class="st1" d="m150.97 90.57c2.6-5.36 3.97-11.25 4.03-17.21 0.03-5.77-1.17-11.34-3.2-16.27-3.72-9.03-10.71-16.67-19.52-20.93-8.08-3.74-16.6-4.6-25.29-2.65 13.23-4.09 27.26-0.83 37.47 8.52 13.68 12.52 17.72 33.39 9.62 50.07-7.03 14.4-22.49 23.25-38.52 21.26-15.96-1.98-29.12-14.18-33.39-29.5-0.09-0.31-0.17-0.62-0.26-0.93 5.17 14.11 16.76 25.47 32.07 27.62 15.35 2.14 30.24-6.15 36.99-19.98"/>


			<path class="st1" d="m140.61 99.7c5.15-3.37 9.47-7.85 12.69-13.1 3.09-5.09 4.98-10.66 5.79-16.09 1.5-10.04-0.66-20.76-6.4-29.19-5.08-7.46-12.2-12.61-20.75-15.43 13.68 3.34 24.28 13.42 28.48 26.87 5.58 17.86-1.22 38.22-16.53 49.02-0.44 0.31-0.89 0.62-1.34 0.91-14.35 9.34-33.51 8.55-46.63-2.65-12.34-10.53-16.77-27.68-12.53-43.1 0.06-0.21 0.11-0.41 0.17-0.62-2.75 14.4 0.82 29.6 11.85 39.8 12.39 11.47 31.14 12.74 45.2 3.58"/>


			<path class="st1" d="m158.67 46.87c-7.81-14.68-24.49-22.86-40.88-19.35-15.4 3.29-26.6 15.49-31.01 30.21 0 0.01-0.01 0.03-0.01 0.04 3.96-14.82 14.83-27.2 30.04-31.01 16.53-4.15 33.82 3.56 42.31 18.18 0.25 0.43 0.49 0.87 0.73 1.31 8.75 16.53 5.51 37.66-7.66 50.91-9.97 10.03-24.06 14.02-37.78 10.65 9.06 1.94 17.89 0.88 26.21-3.16 9.17-4.65 16.32-12.85 20-22.42 2.01-5.24 3.12-11.16 2.91-17.26-0.26-6.33-1.91-12.52-4.86-18.1"/>


			<path class="st1" d="m134.17 115.5c15.36-1.82 28.1-13.46 30.71-28.83 2.49-14.67-4.39-28.69-15.83-37.6 11.71 8.58 18.85 22.47 16.81 37.18-2.24 16.15-15.48 28.59-31.55 30.49-17.42 2.03-34.78-8-41.86-24.03-5.34-12.08-4.03-25.7 3.55-36.51-4.66 7.08-6.85 15.11-6.17 23.58 0.78 9.7 5.65 18.92 12.81 25.43 3.89 3.54 8.68 6.51 14.08 8.39 5.61 1.92 11.57 2.59 17.45 1.9"/>


			<path class="st1" d="m135.9 105.09c14.86-6.92 23.68-23.03 20.84-39.31-2.61-14.95-13.8-26.21-27.75-31.2 14.29 4.64 25.81 15.95 28.67 31.03 3.17 16.76-5.88 33.51-21.22 40.66-16.74 7.76-37.41 3.3-49.57-10.56-8.94-10.19-11.9-23.87-7.99-36.82-2.3 8.53-1.86 17.15 1.57 25.31 3.93 9.33 11.74 16.87 20.94 20.97 5 2.23 10.69 3.61 16.65 3.72 6.17 0.07 12.28-1.22 17.86-3.8"/>


</g>















</svg>
