<svg width="113" height="112" viewBox="0 0 113 112" fill="none" xmlns="http://www.w3.org/2000/svg">
<path d="M52.5 111.5C81.4949 111.5 105 87.9949 105 59C105 30.0051 81.4949 6.5 52.5 6.5C23.5051 6.5 0 30.0051 0 59C0 87.9949 23.5051 111.5 52.5 111.5Z" fill="#DDECEA"/>
<path d="M112.7 73.8C100.3 66.3 85.4 64.7 71.3 68.8C63.8 71.3 57.2 76.3 49.8 78.7C35.7 82.8 20.8 80.4 8.39999 73.7" stroke="#404F54" stroke-miterlimit="10"/>
<path d="M112.7 82.6999C100.3 75.1999 85.4 73.5999 71.3 77.6999C63.8 80.1999 57.2 85.1999 49.8 87.5999C35.7 91.6999 20.8 89.2999 8.39999 82.5999" stroke="#404F54" stroke-miterlimit="10"/>
<path d="M110.8 91.6001C98.4 84.1001 83.5 82.5001 69.4 86.6001C61.9 89.1001 55.3 94.1001 47.9 96.5001C33.8 100.6 18.9 98.2001 6.5 91.5001" stroke="#404F54" stroke-miterlimit="10"/>
<path d="M55.8001 7.1001V29.1001" stroke="#404F54" stroke-linecap="round" stroke-linejoin="round"/>
<path d="M60.8001 11.1001H53.3001C51.4001 11.1001 49.8001 12.7001 49.8001 14.6001C49.8001 16.5001 51.4001 18.1001 53.3001 18.1001H58.3001C60.2001 18.1001 61.8001 19.7001 61.8001 21.6001C61.8001 23.5001 60.2001 25.1001 58.3001 25.1001H49.8001" stroke="#404F54" stroke-linecap="round" stroke-linejoin="round"/>
<path d="M39.1001 17.1C39.1001 26 46.3001 33.2 55.2001 33.2C64.1001 33.2 71.3001 26 71.3001 17.1C71.3001 8.2 64.1001 1 55.2001 1C46.3001 1 39.1001 8.2 39.1001 17.1Z" stroke="#404F54" stroke-linecap="round" stroke-linejoin="round"/>
<path d="M95.0001 29.2V49.9" stroke="#404F54" stroke-linecap="round" stroke-linejoin="round"/>
<path d="M99.7001 33H92.6001C90.8001 33 89.3001 34.5 89.3001 36.3C89.3001 38.1 90.8001 39.6 92.6001 39.6H97.3001C99.1001 39.6 100.6 41.1 100.6 42.9C100.6 44.7 99.1001 46.2 97.3001 46.2H89.3001" stroke="#404F54" stroke-linecap="round" stroke-linejoin="round"/>
<path d="M79.6001 39.4001C79.6001 47.8001 86.4001 54.6 94.7001 54.6C103.1 54.6 109.8 47.8001 109.8 39.4001C109.8 31.0001 103 24.3 94.7001 24.3C86.4001 24.3 79.6001 31.0001 79.6001 39.4001Z" stroke="#404F54" stroke-linecap="round" stroke-linejoin="round"/>
<path d="M39 44.0999V65.3999" stroke="#404F54" stroke-linecap="round" stroke-linejoin="round"/>
<path d="M43.8 47.9998H36.6C34.7 47.9998 33.2 49.4998 33.2 51.3998C33.2 53.2998 34.7 54.7998 36.6 54.7998H41.4C43.3 54.7998 44.8 56.2998 44.8 58.1998C44.8 60.0998 43.3 61.4998 41.4 61.4998H33.2" stroke="#404F54" stroke-linecap="round" stroke-linejoin="round"/>
<path d="M23.3 56.4999C23.3 65.0999 30.3001 72.0999 38.9001 72.0999C47.5001 72.0999 54.5 65.0999 54.5 56.4999C54.5 47.8999 47.5001 40.8999 38.9001 40.8999C30.3001 40.8999 23.3 47.8999 23.3 56.4999Z" stroke="#404F54" stroke-linecap="round" stroke-linejoin="round"/>
</svg>
