<svg width="105" height="112" viewBox="0 0 105 112" fill="none" xmlns="http://www.w3.org/2000/svg">
<path d="M52.5 111.7C81.4949 111.7 105 88.1951 105 59.2002C105 30.2052 81.4949 6.7002 52.5 6.7002C23.5051 6.7002 0 30.2052 0 59.2002C0 88.1951 23.5051 111.7 52.5 111.7Z" fill="#DDECEA"/>
<path d="M52.5 23.7C52.5 23.7 54.2 22 59.4 22C64.6 22 68.1 25.5 73.3 25.5C78.5 25.5 80.2 23.8 80.2 23.8V2.8C80.2 2.8 78.5 4.5 73.3 4.5C68.1 4.5 64.6 1 59.4 1C54.2 1 52.5 2.7 52.5 2.7V23.7Z" stroke="#404F54" stroke-linecap="round" stroke-linejoin="round"/>
<path d="M52.5 35.8V23.7" stroke="#404F54" stroke-linecap="round" stroke-linejoin="round"/>
<path d="M66.3999 59.1001V68.6001" stroke="#404F54" stroke-linecap="round" stroke-linejoin="round"/>
<path d="M69.9999 63.8H62.7999" stroke="#404F54" stroke-linecap="round" stroke-linejoin="round"/>
<path d="M80.2999 75.8V85.2001" stroke="#404F54" stroke-linecap="round" stroke-linejoin="round"/>
<path d="M83.7999 80.5H76.6999" stroke="#404F54" stroke-linecap="round" stroke-linejoin="round"/>
<path d="M66.3999 75.8V85.2001" stroke="#404F54" stroke-linecap="round" stroke-linejoin="round"/>
<path d="M69.9999 80.5H62.7999" stroke="#404F54" stroke-linecap="round" stroke-linejoin="round"/>
<path d="M80.2999 92.3999V101.9" stroke="#404F54" stroke-linecap="round" stroke-linejoin="round"/>
<path d="M83.7999 97.2H76.6999" stroke="#404F54" stroke-linecap="round" stroke-linejoin="round"/>
<path d="M66.3999 92.3999V101.9" stroke="#404F54" stroke-linecap="round" stroke-linejoin="round"/>
<path d="M69.9999 97.2H62.7999" stroke="#404F54" stroke-linecap="round" stroke-linejoin="round"/>
<path d="M94.0999 92.3999V101.9" stroke="#404F54" stroke-linecap="round" stroke-linejoin="round"/>
<path d="M97.6999 97.2H90.4999" stroke="#404F54" stroke-linecap="round" stroke-linejoin="round"/>
<path d="M53.4999 42.5V51.9" stroke="#404F54" stroke-linecap="round" stroke-linejoin="round"/>
<path d="M57.0999 47.2H49.9999" stroke="#404F54" stroke-linecap="round" stroke-linejoin="round"/>
<path d="M39.6999 59.1001V68.6001" stroke="#404F54" stroke-linecap="round" stroke-linejoin="round"/>
<path d="M43.2999 63.8H36.0999" stroke="#404F54" stroke-linecap="round" stroke-linejoin="round"/>
<path d="M53.4999 59.1001V68.6001" stroke="#404F54" stroke-linecap="round" stroke-linejoin="round"/>
<path d="M57.0999 63.8H49.9999" stroke="#404F54" stroke-linecap="round" stroke-linejoin="round"/>
<path d="M25.7999 75.8V85.2001" stroke="#404F54" stroke-linecap="round" stroke-linejoin="round"/>
<path d="M29.3999 80.5H22.1999" stroke="#404F54" stroke-linecap="round" stroke-linejoin="round"/>
<path d="M39.6999 75.8V85.2001" stroke="#404F54" stroke-linecap="round" stroke-linejoin="round"/>
<path d="M43.2999 80.5H36.0999" stroke="#404F54" stroke-linecap="round" stroke-linejoin="round"/>
<path d="M53.4999 75.8V85.2001" stroke="#404F54" stroke-linecap="round" stroke-linejoin="round"/>
<path d="M57.0999 80.5H49.9999" stroke="#404F54" stroke-linecap="round" stroke-linejoin="round"/>
<path d="M25.7999 92.3999V101.9" stroke="#404F54" stroke-linecap="round" stroke-linejoin="round"/>
<path d="M29.3999 97.2H22.1999" stroke="#404F54" stroke-linecap="round" stroke-linejoin="round"/>
<path d="M11.9999 92.3999V101.9" stroke="#404F54" stroke-linecap="round" stroke-linejoin="round"/>
<path d="M15.4999 97.2H8.3999" stroke="#404F54" stroke-linecap="round" stroke-linejoin="round"/>
<path d="M39.6999 92.3999V101.9" stroke="#404F54" stroke-linecap="round" stroke-linejoin="round"/>
<path d="M43.2999 97.2H36.0999" stroke="#404F54" stroke-linecap="round" stroke-linejoin="round"/>
<path d="M53.4999 92.3999V101.9" stroke="#404F54" stroke-linecap="round" stroke-linejoin="round"/>
<path d="M57.0999 97.2H49.9999" stroke="#404F54" stroke-linecap="round" stroke-linejoin="round"/>
</svg>
