<svg width="32" height="90" viewBox="0 0 32 90" fill="none" xmlns="http://www.w3.org/2000/svg">
<line x1="15.5" y1="90" x2="15.5" y2="-2.18557e-08" stroke="#DADCE0"/>
<circle cx="16" cy="45" r="15.5" fill="white" stroke="#DADCE0"/>
<path d="M13.0986 49.072C12.2666 49.072 11.5106 48.888 10.8306 48.52C10.1586 48.144 9.63059 47.632 9.24659 46.984C8.87059 46.336 8.68259 45.608 8.68259 44.8C8.68259 43.992 8.87059 43.264 9.24659 42.616C9.63059 41.968 10.1586 41.46 10.8306 41.092C11.5106 40.716 12.2666 40.528 13.0986 40.528C13.9306 40.528 14.6786 40.712 15.3426 41.08C16.0146 41.448 16.5426 41.96 16.9266 42.616C17.3106 43.264 17.5026 43.992 17.5026 44.8C17.5026 45.608 17.3106 46.34 16.9266 46.996C16.5426 47.644 16.0146 48.152 15.3426 48.52C14.6786 48.888 13.9306 49.072 13.0986 49.072ZM13.0986 48.28C13.7626 48.28 14.3626 48.132 14.8986 47.836C15.4346 47.532 15.8546 47.116 16.1586 46.588C16.4626 46.052 16.6146 45.456 16.6146 44.8C16.6146 44.144 16.4626 43.552 16.1586 43.024C15.8546 42.488 15.4346 42.072 14.8986 41.776C14.3626 41.472 13.7626 41.32 13.0986 41.32C12.4346 41.32 11.8306 41.472 11.2866 41.776C10.7506 42.072 10.3266 42.488 10.0146 43.024C9.71059 43.552 9.55859 44.144 9.55859 44.8C9.55859 45.456 9.71059 46.052 10.0146 46.588C10.3266 47.116 10.7506 47.532 11.2866 47.836C11.8306 48.132 12.4346 48.28 13.0986 48.28ZM20.129 43.924C20.329 43.5 20.625 43.18 21.017 42.964C21.417 42.748 21.909 42.64 22.493 42.64V43.468L22.289 43.456C21.625 43.456 21.105 43.66 20.729 44.068C20.353 44.476 20.165 45.048 20.165 45.784V49H19.313V42.688H20.129V43.924Z" fill="#404F54"/>
</svg>
