<svg width="24" height="24" viewBox="0 0 24 24" fill="none" xmlns="http://www.w3.org/2000/svg">
<rect width="24" height="24"/>
<path d="M17.689 8.21282C20.2427 10.351 20.2666 13.8586 17.689 15.9967M18.8585 5.61818C23.1305 9.19782 23.1305 15.0117 18.8585 18.5914" stroke="currentColor" stroke-linecap="round" stroke-linejoin="round"/>
<path d="M15.5056 9.26891L11.289 12.3089L15.5056 15.3203V9.26891Z" stroke="currentColor" stroke-linecap="round" stroke-linejoin="round"/>
<path d="M3.45404 8.06435H10.0924C10.7477 8.06435 11.289 8.60926 11.289 9.26889V15.3203C11.289 15.9799 10.7477 16.5248 10.0924 16.5248H3.45404C2.79875 16.5248 2.25743 15.9799 2.25743 15.3203V9.26889C2.25743 8.60926 2.79875 8.06435 3.45404 8.06435Z" stroke="currentColor" stroke-linecap="round" stroke-linejoin="round"/>
<path d="M5.62614 10.4989V14.0926M3.89737 12.2254L7.15061 12.2254" stroke="currentColor" stroke-linecap="round" stroke-linejoin="round"/>
</svg>
