<?xml version="1.0" encoding="utf-8"?>
<!-- Generator: Adobe Illustrator 24.3.0, SVG Export Plug-In . SVG Version: 6.00 Build 0)  -->
<svg version="1.1" id="Layer_1" xmlns="http://www.w3.org/2000/svg" xmlns:xlink="http://www.w3.org/1999/xlink" x="0px" y="0px"
	 viewBox="0 0 103 103" style="enable-background:new 0 0 103 103;" xml:space="preserve">
<style type="text/css">
	.st0{fill:#DDECEA;}
	.st1{fill:#F4C67D;}
	.st2{fill:none;stroke:#404F54;stroke-linecap:round;stroke-linejoin:round;}
	.st3{fill:none;stroke:#404F54;stroke-miterlimit:10;}
	.st4{fill:none;stroke:#000000;stroke-linecap:round;stroke-linejoin:round;}
	.st5{fill:#6D6E71;stroke:#6D6E71;stroke-width:0.5;stroke-miterlimit:10;}
	.st6{fill:none;stroke:#6D6E71;stroke-width:2;stroke-miterlimit:10;}
	.st7{fill:#6D6E71;}
	.st8{fill:#6D6E71;stroke:#6D6E71;stroke-width:2;stroke-miterlimit:10;}
	.st9{fill:none;stroke:#000000;stroke-width:2;stroke-linecap:round;stroke-linejoin:round;}
	.st10{fill:none;stroke:#6D6E71;stroke-miterlimit:10;}
	.st11{fill:#6D6E71;stroke:#6D6E71;stroke-miterlimit:10;}
	.st12{fill:#6D6E71;stroke:#6D6E71;stroke-width:0.25;stroke-miterlimit:10;}
	.st13{fill:#404F54;}
	.st14{fill:none;stroke:#404F54;stroke-width:3;stroke-linecap:round;stroke-linejoin:round;}
</style>
<g>
	<path class="st2" d="M69,35.3c10.7,8.9,10.8,23.5,0,32.4c0,0,0,0,0,0 M73.8,24.5c17.9,14.9,17.9,39.1,0,54"/>
	<g>
		<polygon class="st2" points="62.3,42.5 47.5,53.1 62.3,63.6 		"/>
		<path class="st2" d="M20,38.3h23.3c2.3,0,4.2,1.9,4.2,4.2v21.1c0,2.3-1.9,4.2-4.2,4.2H20c-2.3,0-4.2-1.9-4.2-4.2V42.5
			C15.8,40.2,17.7,38.3,20,38.3z"/>
	</g>
</g>
</svg>
