<svg xmlns="http://www.w3.org/2000/svg" width="24" height="24" fill="none" viewBox="0 0 24 24"><path d="M0 0H24V24H0z"/><path stroke="currentColor" stroke-linecap="round" stroke-linejoin="round" d="M10.7003 2.6987C10.7003 2.38662 10.945 2.13399 11.2472 2.13399H15.0613C15.3635 2.13399 15.6082 2.38662 15.6082 2.6987V7.20158L14.5144 6.07214H11.24C10.9378 6.07214 10.6931 5.81951 10.6931 5.50743V2.6987H10.7003zM21.9738 7.40594C21.9738 7.11749 21.7476 6.88399 21.4683 6.88399H17.943C17.6636 6.88399 17.4375 7.11749 17.4375 7.40594V11.5678L18.4485 10.5239H21.4749C21.7543 10.5239 21.9804 10.2904 21.9804 10.002V7.40594H21.9738zM3.45541 9.43022H14.2545C15.0006 9.43022 15.6082 10.0576 15.6082 10.828V17.801C15.6082 18.5713 15.0006 19.1987 14.2545 19.1987H3.45541C2.70932 19.1987 2.10168 18.5713 2.10168 17.801V10.828C2.10168 10.0576 2.70932 9.43022 3.45541 9.43022zM6.15518 21.9784H11.5547M8.85493 19.1908V21.9784M20.4967 16.6011L21.4643 18.601M19.9995 18.0274L21.8099 17.1514M2.5283 2.65875L4.53377 3.6147M3.03191 4.08273L3.89728 2.26728M5.24466 5.40294L7.25013 6.35889M5.74827 6.82693L6.61364 5.01147M17.4384 20.5843L19.4439 21.5402M17.942 22.0083L18.8074 20.1928M9.04814 13.007V16.6008M7.31937 14.7335L10.5726 14.7335"/></svg>