<svg width="24" height="24" viewBox="0 0 24 24" fill="none" xmlns="http://www.w3.org/2000/svg">
<rect width="24" height="24" />
<path d="M10.7934 2.82582C10.7934 3.5149 11.3616 4.08914 12.0433 4.08914C12.7251 4.08914 13.2932 3.5149 13.2932 2.82582C13.2932 2.13674 12.7251 1.5625 12.0433 1.5625C11.3616 1.5625 10.7934 2.09845 10.7934 2.82582Z" fill="currentColor"/>
<path d="M5.15 5.697C5.60451 6.23295 6.39989 6.30952 6.93015 5.88841C7.4604 5.42902 7.53615 4.62509 7.11952 4.08914C6.66502 3.55318 5.86963 3.47662 5.33938 3.89772C4.77125 4.35711 4.6955 5.16104 5.15 5.697Z" fill="currentColor"/>
<path d="M2.57447 11.5159C3.25623 11.6691 3.90011 11.2097 4.05161 10.5206C4.20311 9.8315 3.74861 9.1807 3.06685 9.02757C2.38509 8.87444 1.74121 9.33383 1.58971 10.0229C1.47608 10.712 1.89271 11.4011 2.57447 11.5159Z" fill="currentColor"/>
<path d="M4.27887 17.6794C4.88487 17.3349 5.11212 16.5692 4.77125 15.9567C4.43037 15.3442 3.67286 15.1145 3.06685 15.459C2.46084 15.8036 2.23359 16.5692 2.57447 17.1817C2.91535 17.7942 3.67286 18.0239 4.27887 17.6794Z" fill="currentColor"/>
<path d="M9.4678 21.3545C9.73293 20.7037 9.42992 19.9763 8.78604 19.7084C8.14216 19.4404 7.42253 19.7466 7.1574 20.3974C6.89227 21.01 7.19527 21.7756 7.83916 22.0436C8.48304 22.3116 9.20267 21.967 9.4678 21.3545Z" fill="currentColor"/>
<path d="M15.7551 20.8185C15.5657 20.1295 14.8461 19.7849 14.2022 19.9763C13.5583 20.1677 13.1796 20.8951 13.369 21.5459C13.5583 22.1967 14.278 22.5795 14.9219 22.3881C15.6036 22.1967 15.9824 21.5076 15.7551 20.8185Z" fill="currentColor"/>
<path d="M20.3002 16.4161C19.7321 16.0332 18.9367 16.1864 18.5579 16.7606C18.1792 17.3348 18.3307 18.1388 18.8988 18.5216C19.4669 18.9044 20.2623 18.7513 20.6411 18.1771C21.0577 17.5645 20.9062 16.7989 20.3002 16.4161Z" fill="currentColor"/>
<path d="M21.0577 10.0612C20.3759 10.1378 19.8835 10.7503 19.9593 11.4394C20.035 12.1284 20.641 12.6261 21.3228 12.5495C22.0046 12.473 22.4969 11.8605 22.4212 11.1714C22.3454 10.4823 21.7394 9.98463 21.0577 10.0612Z" fill="currentColor"/>
<path d="M17.611 4.70166C17.1186 5.19933 17.1186 6.00326 17.611 6.50093C18.1034 6.9986 18.8988 6.9986 19.3912 6.50093C19.8835 6.00326 19.8835 5.19933 19.3912 4.70166C18.8988 4.20398 18.1034 4.20398 17.611 4.70166Z" fill="currentColor"/>
</svg>
