<?xml version="1.0" encoding="utf-8"?>
<!-- Generator: Adobe Illustrator 24.3.0, SVG Export Plug-In . SVG Version: 6.00 Build 0)  -->
<svg version="1.1" id="Layer_1" xmlns="http://www.w3.org/2000/svg" xmlns:xlink="http://www.w3.org/1999/xlink" x="0px" y="0px"
	 viewBox="0 0 103 103" style="enable-background:new 0 0 103 103;" xml:space="preserve">
<style type="text/css">
	.st0{fill:#DDECEA;}
	.st1{fill:#F4C67D;}
	.st2{fill:none;stroke:#404F54;stroke-linecap:round;stroke-linejoin:round;}
	.st3{fill:none;stroke:#404F54;stroke-miterlimit:10;}
	.st4{fill:none;stroke:#000000;stroke-linecap:round;stroke-linejoin:round;}
	.st5{fill:#6D6E71;stroke:#6D6E71;stroke-width:0.5;stroke-miterlimit:10;}
	.st6{fill:none;stroke:#6D6E71;stroke-width:2;stroke-miterlimit:10;}
	.st7{fill:#6D6E71;}
	.st8{fill:#6D6E71;stroke:#6D6E71;stroke-width:2;stroke-miterlimit:10;}
	.st9{fill:none;stroke:#000000;stroke-width:2;stroke-linecap:round;stroke-linejoin:round;}
	.st10{fill:none;stroke:#6D6E71;stroke-miterlimit:10;}
	.st11{fill:#6D6E71;stroke:#6D6E71;stroke-miterlimit:10;}
	.st12{fill:#6D6E71;stroke:#6D6E71;stroke-width:0.25;stroke-miterlimit:10;}
	.st13{fill:#404F54;}
	.st14{fill:none;stroke:#404F54;stroke-width:3;stroke-linecap:round;stroke-linejoin:round;}
</style>
<g>
	<g>
		<g>
			<line class="st2" x1="43" y1="56.9" x2="40.1" y2="63"/>
			<line class="st2" x1="43.9" y1="61.1" x2="39.3" y2="58.8"/>
		</g>
		<g>
			<line class="st2" x1="55.8" y1="44.8" x2="53.5" y2="51.2"/>
			<line class="st2" x1="57" y1="48.9" x2="52.2" y2="47.1"/>
		</g>
		<g>
			<line class="st2" x1="64.9" y1="59.5" x2="62.6" y2="65.9"/>
			<line class="st2" x1="66.2" y1="63.6" x2="61.4" y2="61.8"/>
		</g>
	</g>
	<g>
		<path class="st2" d="M62.3,29.6l5.5,0c3,0,5.5,2.4,5.5,5.4l0.2,38.2c0,3-2.4,5.5-5.4,5.5l-32.8,0.2c-3,0-5.5-2.4-5.5-5.4
			l-0.2-38.2c0-3,2.4-5.5,5.4-5.5l5.5,0"/>
		<path class="st2" d="M43.1,24.2l16.4-0.1c1.5,0,2.7,1.2,2.7,2.7l0,5.5c0,1.5-1.2,2.7-2.7,2.7l-16.4,0.1c-1.5,0-2.7-1.2-2.7-2.7
			l0-5.5C40.4,25.5,41.6,24.2,43.1,24.2z"/>
	</g>
</g>
</svg>
