<svg width="24" height="24" viewBox="0 0 24 24" fill="none" xmlns="http://www.w3.org/2000/svg">
<rect width="24" height="24"/>
<path d="M16.3177 4.10677H18.3151C18.8448 4.10677 19.3529 4.31721 19.7275 4.69179C20.1021 5.06637 20.3125 5.57442 20.3125 6.10416V20.0859C20.3125 20.6157 20.1021 21.1237 19.7275 21.4983C19.3529 21.8729 18.8448 22.0833 18.3151 22.0833H6.33073C5.80099 22.0833 5.29294 21.8729 4.91836 21.4983C4.54377 21.1237 4.33333 20.6157 4.33333 20.0859V6.10416C4.33333 5.57442 4.54377 5.06637 4.91836 4.69179C5.29294 4.31721 5.80099 4.10677 6.33073 4.10677H8.32812" stroke="currentColor" stroke-linecap="round" stroke-linejoin="round"/>
<path d="M15.319 2.10938H9.32682C8.77526 2.10938 8.32812 2.55651 8.32812 3.10807V5.10547C8.32812 5.65703 8.77526 6.10417 9.32682 6.10417H15.319C15.8706 6.10417 16.3177 5.65703 16.3177 5.10547V3.10807C16.3177 2.55651 15.8706 2.10938 15.319 2.10938Z" stroke="currentColor" stroke-linecap="round" stroke-linejoin="round"/>
<path d="M8.70369 15.2187V18.8125M6.97492 16.9452L10.2282 16.9452" stroke="currentColor" stroke-linecap="round" stroke-linejoin="round"/>
</svg>
