<svg width="120" height="120" viewBox="0 0 120 120" fill="none" xmlns="http://www.w3.org/2000/svg">
<path d="M60 120C93.1371 120 120 93.1371 120 60C120 26.8629 93.1371 0 60 0C26.8629 0 0 26.8629 0 60C0 93.1371 26.8629 120 60 120Z" fill="#DDECEA"/>
<path d="M15.5645 44.792H49.0694V78.2969H15.5645V44.792Z" stroke="#404F54" stroke-linecap="round" stroke-linejoin="round"/>
<path d="M33.9802 58.8119H67.4852V92.3168H33.9802V58.8119Z" stroke="#404F54" stroke-linecap="round" stroke-linejoin="round"/>
<path d="M77.8219 80.7921C92.5203 80.7921 104.436 68.8766 104.436 54.1782C104.436 39.4798 92.5203 27.5643 77.8219 27.5643C63.1234 27.5643 51.208 39.4798 51.208 54.1782C51.208 68.8766 63.1234 80.7921 77.8219 80.7921Z" stroke="#404F54" stroke-linecap="round" stroke-linejoin="round"/>
<path d="M77.8218 38.2574V54.1782L88.5148 59.5248" stroke="#404F54" stroke-linecap="round" stroke-linejoin="round"/>
</svg>
