<?xml version="1.0" encoding="utf-8"?>
<!-- Generator: Adobe Illustrator 24.3.0, SVG Export Plug-In . SVG Version: 6.00 Build 0)  -->
<svg version="1.1" id="Layer_1" xmlns="http://www.w3.org/2000/svg" xmlns:xlink="http://www.w3.org/1999/xlink" x="0px" y="0px"
	 viewBox="0 0 103 103" style="enable-background:new 0 0 103 103;" xml:space="preserve">
<style type="text/css">
	.st0{fill:#DDECEA;}
	.st1{fill:#F4C67D;}
	.st2{fill:none;stroke:#404F54;stroke-linecap:round;stroke-linejoin:round;}
	.st3{fill:none;stroke:#404F54;stroke-miterlimit:10;}
	.st4{fill:none;stroke:#000000;stroke-linecap:round;stroke-linejoin:round;}
	.st5{fill:#6D6E71;stroke:#6D6E71;stroke-width:0.5;stroke-miterlimit:10;}
	.st6{fill:none;stroke:#6D6E71;stroke-width:2;stroke-miterlimit:10;}
	.st7{fill:#6D6E71;}
	.st8{fill:#6D6E71;stroke:#6D6E71;stroke-width:2;stroke-miterlimit:10;}
	.st9{fill:none;stroke:#000000;stroke-width:2;stroke-linecap:round;stroke-linejoin:round;}
	.st10{fill:none;stroke:#6D6E71;stroke-miterlimit:10;}
	.st11{fill:#6D6E71;stroke:#6D6E71;stroke-miterlimit:10;}
	.st12{fill:#6D6E71;stroke:#6D6E71;stroke-width:0.25;stroke-miterlimit:10;}
	.st13{fill:#404F54;}
	.st14{fill:none;stroke:#404F54;stroke-width:3;stroke-linecap:round;stroke-linejoin:round;}
</style>
<g>
	<circle class="st2" cx="51.5" cy="51.5" r="7.5"/>
	<path class="st2" d="M70,59c-0.7,1.5-0.4,3.3,0.8,4.5l0.2,0.1c2,2,2,5.1,0,7.1c0,0,0,0,0,0c-2,2-5.1,2-7.1,0c0,0,0,0,0,0l-0.1-0.1
		c-1.2-1.2-3-1.5-4.5-0.8c-1.5,0.6-2.5,2.1-2.5,3.8V74c0,2.8-2.2,5-5,5c-2.8,0-5-2.2-5-5v-0.2c0-1.7-1.1-3.2-2.7-3.8
		c-1.5-0.7-3.3-0.4-4.5,0.8L39.3,71c-2,2-5.1,2-7.1,0c0,0,0,0,0,0c-2-2-2-5.1,0-7.1c0,0,0,0,0,0l0.2-0.1c1.2-1.2,1.5-3,0.8-4.5
		c-0.6-1.5-2.1-2.5-3.8-2.5H29c-2.8,0-5-2.2-5-5c0-2.8,2.2-5,5-5h0.2c1.7,0,3.2-1.1,3.8-2.7c0.7-1.5,0.4-3.3-0.8-4.5L32,39.3
		c-2-2-2-5.1,0-7.1c0,0,0,0,0,0c2-2,5.1-2,7.1,0c0,0,0,0,0,0l0.2,0.2c1.2,1.2,3,1.5,4.5,0.8H44c1.5-0.6,2.5-2.1,2.5-3.8V29
		c0-2.8,2.2-5,5-5s5,2.2,5,5v0.2c0,1.6,1,3.1,2.5,3.8c1.5,0.7,3.3,0.4,4.5-0.8l0.1-0.1c2-2,5.1-2,7.1,0c0,0,0,0,0,0c2,2,2,5.1,0,7.1
		c0,0,0,0,0,0l-0.1,0.2c-1.2,1.2-1.5,3-0.8,4.5V44c0.6,1.5,2.1,2.5,3.8,2.5H74c2.8,0,5,2.2,5,5s-2.2,5-5,5h-0.2
		C72.1,56.5,70.6,57.5,70,59z"/>
</g>
</svg>
