<svg width="24" height="24" viewBox="0 0 24 24" fill="none" xmlns="http://www.w3.org/2000/svg">
<rect width="24" height="24"/>
<path d="M12 14.75C13.5188 14.75 14.75 13.5188 14.75 12C14.75 10.4812 13.5188 9.25 12 9.25C10.4812 9.25 9.25 10.4812 9.25 12C9.25 13.5188 10.4812 14.75 12 14.75Z" stroke="currentColor" stroke-linecap="round" stroke-linejoin="round"/>
<path d="M18.7833 14.75C18.6613 15.0265 18.6249 15.3332 18.6788 15.6305C18.7327 15.9279 18.8745 16.2023 19.0858 16.4183L19.1408 16.4733C19.3113 16.6436 19.4465 16.8458 19.5388 17.0684C19.631 17.2909 19.6785 17.5295 19.6785 17.7704C19.6785 18.0113 19.631 18.2499 19.5388 18.4725C19.4465 18.695 19.3113 18.8972 19.1408 19.0675C18.9706 19.238 18.7684 19.3732 18.5458 19.4654C18.3232 19.5577 18.0847 19.6052 17.8437 19.6052C17.6028 19.6052 17.3643 19.5577 17.1417 19.4654C16.9191 19.3732 16.7169 19.238 16.5467 19.0675L16.4917 19.0125C16.2756 18.8012 16.0012 18.6594 15.7039 18.6055C15.4065 18.5516 15.0998 18.588 14.8233 18.71C14.5522 18.8262 14.321 19.0191 14.1581 19.2651C13.9952 19.511 13.9078 19.7992 13.9067 20.0942V20.25C13.9067 20.7362 13.7135 21.2025 13.3697 21.5464C13.0259 21.8902 12.5596 22.0833 12.0733 22.0833C11.5871 22.0833 11.1208 21.8902 10.777 21.5464C10.4332 21.2025 10.24 20.7362 10.24 20.25V20.1675C10.2329 19.8641 10.1347 19.5698 9.95813 19.323C9.78158 19.0761 9.53484 18.8881 9.25 18.7833C8.97352 18.6613 8.66682 18.6249 8.36946 18.6788C8.0721 18.7328 7.79771 18.8745 7.58167 19.0858L7.52667 19.1408C7.3564 19.3113 7.1542 19.4465 6.93164 19.5388C6.70908 19.631 6.47051 19.6785 6.22958 19.6785C5.98866 19.6785 5.75009 19.631 5.52753 19.5388C5.30496 19.4465 5.10277 19.3113 4.9325 19.1408C4.76204 18.9706 4.62682 18.7684 4.53456 18.5458C4.4423 18.3232 4.39481 18.0847 4.39481 17.8438C4.39481 17.6028 4.4423 17.3643 4.53456 17.1417C4.62682 16.9191 4.76204 16.7169 4.9325 16.5467L4.9875 16.4917C5.19883 16.2756 5.34059 16.0012 5.3945 15.7039C5.44842 15.4065 5.41202 15.0998 5.29 14.8233C5.1738 14.5522 4.98086 14.321 4.73493 14.1581C4.48899 13.9953 4.2008 13.9078 3.90583 13.9067H3.75C3.26377 13.9067 2.79745 13.7135 2.45364 13.3697C2.10982 13.0259 1.91667 12.5596 1.91667 12.0733C1.91667 11.5871 2.10982 11.1208 2.45364 10.777C2.79745 10.4332 3.26377 10.24 3.75 10.24H3.8325C4.13591 10.2329 4.43017 10.1347 4.67702 9.95814C4.92388 9.78158 5.11191 9.53485 5.21667 9.25C5.33869 8.97352 5.37509 8.66683 5.32117 8.36947C5.26725 8.0721 5.12549 7.79771 4.91417 7.58167L4.85917 7.52667C4.68871 7.3564 4.55349 7.15421 4.46122 6.93165C4.36896 6.70908 4.32147 6.47052 4.32147 6.22959C4.32147 5.98866 4.36896 5.75009 4.46122 5.52753C4.55349 5.30497 4.68871 5.10277 4.85917 4.9325C5.02943 4.76205 5.23163 4.62682 5.45419 4.53456C5.67676 4.4423 5.91532 4.39481 6.15625 4.39481C6.39718 4.39481 6.63574 4.4423 6.85831 4.53456C7.08087 4.62682 7.28307 4.76205 7.45333 4.9325L7.50833 4.9875C7.72437 5.19883 7.99876 5.34059 8.29613 5.39451C8.59349 5.44843 8.90019 5.41203 9.17667 5.29H9.25C9.52112 5.17381 9.75235 4.98086 9.91522 4.73493C10.0781 4.489 10.1655 4.20081 10.1667 3.90584V3.75001C10.1667 3.26377 10.3598 2.79746 10.7036 2.45364C11.0475 2.10983 11.5138 1.91667 12 1.91667C12.4862 1.91667 12.9525 2.10983 13.2964 2.45364C13.6402 2.79746 13.8333 3.26377 13.8333 3.75001V3.8325C13.8345 4.12748 13.9219 4.41567 14.0848 4.6616C14.2477 4.90753 14.4789 5.10047 14.75 5.21667C15.0265 5.33869 15.3332 5.37509 15.6305 5.32118C15.9279 5.26726 16.2023 5.1255 16.4183 4.91417L16.4733 4.85917C16.6436 4.68871 16.8458 4.55349 17.0684 4.46123C17.2909 4.36897 17.5295 4.32148 17.7704 4.32148C18.0113 4.32148 18.2499 4.36897 18.4725 4.46123C18.695 4.55349 18.8972 4.68871 19.0675 4.85917C19.238 5.02944 19.3732 5.23163 19.4654 5.4542C19.5577 5.67676 19.6052 5.91533 19.6052 6.15625C19.6052 6.39718 19.5577 6.63575 19.4654 6.85831C19.3732 7.08088 19.238 7.28307 19.0675 7.45334L19.0125 7.50834C18.8012 7.72438 18.6594 7.99877 18.6055 8.29613C18.5516 8.59349 18.588 8.90019 18.71 9.17667V9.25C18.8262 9.52113 19.0191 9.75235 19.2651 9.91522C19.511 10.0781 19.7992 10.1655 20.0942 10.1667H20.25C20.7362 10.1667 21.2025 10.3598 21.5464 10.7036C21.8902 11.0475 22.0833 11.5138 22.0833 12C22.0833 12.4862 21.8902 12.9526 21.5464 13.2964C21.2025 13.6402 20.7362 13.8333 20.25 13.8333H20.1675C19.8725 13.8345 19.5843 13.9219 19.3384 14.0848C19.0925 14.2477 18.8995 14.4789 18.7833 14.75V14.75Z" stroke="currentColor" stroke-linecap="round" stroke-linejoin="round"/>
</svg>
