<svg xmlns="http://www.w3.org/2000/svg" width="24" height="24" fill="none" viewBox="0 0 24 24"><path d="M0 0H24V24H0z"/><path stroke="currentColor" stroke-linecap="round" stroke-linejoin="round" d="M12 5.18228V18.8177M15.099 7.66147H10.4505C9.87519 7.66147 9.32343 7.89002 8.91661 8.29683 8.5098 8.70365 8.28125 9.25541 8.28125 9.83074 8.28125 10.4061 8.5098 10.9578 8.91661 11.3646 9.32343 11.7715 9.87519 12 10.4505 12H13.5495C14.1248 12 14.6766 12.2286 15.0834 12.6354 15.4902 13.0422 15.7187 13.594 15.7187 14.1693 15.7187 14.7446 15.4902 15.2964 15.0834 15.7032 14.6766 16.11 14.1248 16.3386 13.5495 16.3386H8.28125"/><circle cx="12" cy="12" r="10.078" stroke="currentColor"/></svg>