<?xml version="1.0" encoding="utf-8"?>
<!-- Generator: Adobe Illustrator 24.3.0, SVG Export Plug-In . SVG Version: 6.00 Build 0)  -->
<svg version="1.1" id="Layer_1" xmlns="http://www.w3.org/2000/svg" xmlns:xlink="http://www.w3.org/1999/xlink" x="0px" y="0px"
	 viewBox="0 0 103 103" style="enable-background:new 0 0 103 103;" xml:space="preserve">
<style type="text/css">
	.st0{fill:#DDECEA;}
	.st1{fill:#F4C67D;}
	.st2{fill:none;stroke:#404F54;stroke-linecap:round;stroke-linejoin:round;}
	.st3{fill:none;stroke:#404F54;stroke-miterlimit:10;}
	.st4{fill:none;stroke:#000000;stroke-linecap:round;stroke-linejoin:round;}
	.st5{fill:#6D6E71;stroke:#6D6E71;stroke-width:0.5;stroke-miterlimit:10;}
	.st6{fill:none;stroke:#6D6E71;stroke-width:2;stroke-miterlimit:10;}
	.st7{fill:#6D6E71;}
	.st8{fill:#6D6E71;stroke:#6D6E71;stroke-width:2;stroke-miterlimit:10;}
	.st9{fill:none;stroke:#000000;stroke-width:2;stroke-linecap:round;stroke-linejoin:round;}
	.st10{fill:none;stroke:#6D6E71;stroke-miterlimit:10;}
	.st11{fill:#6D6E71;stroke:#6D6E71;stroke-miterlimit:10;}
	.st12{fill:#6D6E71;stroke:#6D6E71;stroke-width:0.25;stroke-miterlimit:10;}
	.st13{fill:#404F54;}
	.st14{fill:none;stroke:#404F54;stroke-width:3;stroke-linecap:round;stroke-linejoin:round;}
</style>
<g>
	<path class="st13" d="M48.3,27.5c0,1.8,1.5,3.3,3.3,3.3s3.3-1.5,3.3-3.3c0-1.8-1.5-3.3-3.3-3.3S48.3,25.6,48.3,27.5z"/>
	<path class="st13" d="M33.4,35c1.2,1.4,3.3,1.6,4.7,0.5c1.4-1.2,1.6-3.3,0.5-4.7c-1.2-1.4-3.3-1.6-4.7-0.5
		C32.4,31.5,32.2,33.6,33.4,35z"/>
	<path class="st13" d="M26.6,50.2c1.8,0.4,3.5-0.8,3.9-2.6c0.4-1.8-0.8-3.5-2.6-3.9c-1.8-0.4-3.5,0.8-3.9,2.6
		C23.7,48.1,24.8,49.9,26.6,50.2z"/>
	<path class="st13" d="M31.1,66.3c1.6-0.9,2.2-2.9,1.3-4.5c-0.9-1.6-2.9-2.2-4.5-1.3c-1.6,0.9-2.2,2.9-1.3,4.5
		C27.5,66.6,29.5,67.2,31.1,66.3z"/>
	<path class="st13" d="M44.8,75.9c0.7-1.7-0.1-3.6-1.8-4.3c-1.7-0.7-3.6,0.1-4.3,1.8C38,75,38.8,77,40.5,77.7
		C42.2,78.4,44.1,77.5,44.8,75.9z"/>
	<path class="st13" d="M61.4,74.5c-0.5-1.8-2.4-2.7-4.1-2.2c-1.7,0.5-2.7,2.4-2.2,4.1c0.5,1.7,2.4,2.7,4.1,2.2
		C61,78.1,62,76.3,61.4,74.5z"/>
	<path class="st13" d="M73.4,63c-1.5-1-3.6-0.6-4.6,0.9c-1,1.5-0.6,3.6,0.9,4.6c1.5,1,3.6,0.6,4.6-0.9C75.4,66,75,64,73.4,63z"/>
	<path class="st13" d="M75.4,46.4c-1.8,0.2-3.1,1.8-2.9,3.6c0.2,1.8,1.8,3.1,3.6,2.9c1.8-0.2,3.1-1.8,2.9-3.6
		C78.8,47.5,77.2,46.2,75.4,46.4z"/>
	<path class="st13" d="M66.3,32.4c-1.3,1.3-1.3,3.4,0,4.7c1.3,1.3,3.4,1.3,4.7,0c1.3-1.3,1.3-3.4,0-4.7
		C69.7,31.1,67.6,31.1,66.3,32.4z"/>
</g>
</svg>
