<svg xmlns="http://www.w3.org/2000/svg" width="24" height="24" fill="none" viewBox="0 0 24 24"><g clip-path="url(#clip0)"><path d="M0 0H24V24H0z"/><path stroke="currentColor" stroke-linecap="round" stroke-linejoin="round" d="M13.3412 3.94445L14.6826 5.03136M14.6826 5.03136L16.1334 6.20689M14.6826 5.03136L13.5943 6.37455M14.6826 5.03136L15.6424 3.8469M17.4336 8.75695L18.775 9.84386M18.775 9.84386L20.2258 11.0194M18.775 9.84386L17.6866 11.187M18.775 9.84386L19.7347 8.6594M21.0351 17.2197V20.0898C21.0362 20.3562 20.9816 20.6199 20.8749 20.8641C20.7681 21.1082 20.6116 21.3273 20.4152 21.5075C20.2189 21.6876 19.9871 21.8247 19.7347 21.9101C19.4823 21.9954 19.2149 22.0272 18.9495 22.0032C16.0056 21.6833 13.1777 20.6773 10.6932 19.0661C8.38166 17.5973 6.42188 15.6375 4.95303 13.3259C3.33619 10.8301 2.32999 7.98851 2.01597 5.03136C1.99206 4.7668 2.0235 4.50017 2.10829 4.24843C2.19308 3.99668 2.32935 3.76536 2.50844 3.56917C2.68753 3.37298 2.90551 3.21623 3.1485 3.1089C3.39148 3.00157 3.65416 2.94601 3.91979 2.94576H6.78988C7.25418 2.94119 7.70429 3.10561 8.05632 3.40836C8.40836 3.71111 8.6383 4.13154 8.70328 4.59128C8.82442 5.50978 9.04908 6.41162 9.37297 7.2796C9.50168 7.62203 9.52954 7.99417 9.45324 8.35194C9.37694 8.70972 9.19967 9.03812 8.94245 9.29823L7.72745 10.5132C9.08936 12.9084 11.0725 14.8915 13.4676 16.2534L14.6826 15.0384C14.9427 14.7812 15.2711 14.6039 15.6289 14.5276C15.9867 14.4513 16.3588 14.4792 16.7013 14.6079C17.5692 14.9318 18.4711 15.1564 19.3896 15.2776C19.8543 15.3432 20.2787 15.5772 20.5821 15.9353C20.8855 16.2934 21.0467 16.7505 21.0351 17.2197Z"/></g><defs><clipPath id="clip0"><path d="M0 0H24V24H0z"/></clipPath></defs></svg>