<?xml version="1.0" encoding="utf-8"?>
<!-- Generator: Adobe Illustrator 24.3.0, SVG Export Plug-In . SVG Version: 6.00 Build 0)  -->
<svg version="1.1" id="Layer_1" xmlns="http://www.w3.org/2000/svg" xmlns:xlink="http://www.w3.org/1999/xlink" x="0px" y="0px"
	 viewBox="0 0 103 103" style="enable-background:new 0 0 103 103;" xml:space="preserve">
<style type="text/css">
	.st0{fill:#DDECEA;}
	.st1{fill:#F4C67D;}
	.st2{fill:none;stroke:#404F54;stroke-linecap:round;stroke-linejoin:round;}
	.st3{fill:none;stroke:#404F54;stroke-miterlimit:10;}
	.st4{fill:none;stroke:#000000;stroke-linecap:round;stroke-linejoin:round;}
	.st5{fill:#6D6E71;stroke:#6D6E71;stroke-width:0.5;stroke-miterlimit:10;}
	.st6{fill:none;stroke:#6D6E71;stroke-width:2;stroke-miterlimit:10;}
	.st7{fill:#6D6E71;}
	.st8{fill:#6D6E71;stroke:#6D6E71;stroke-width:2;stroke-miterlimit:10;}
	.st9{fill:none;stroke:#000000;stroke-width:2;stroke-linecap:round;stroke-linejoin:round;}
	.st10{fill:none;stroke:#6D6E71;stroke-miterlimit:10;}
	.st11{fill:#6D6E71;stroke:#6D6E71;stroke-miterlimit:10;}
	.st12{fill:#6D6E71;stroke:#6D6E71;stroke-width:0.25;stroke-miterlimit:10;}
	.st13{fill:#404F54;}
	.st14{fill:none;stroke:#404F54;stroke-width:3;stroke-linecap:round;stroke-linejoin:round;}
</style>
<g>
	<g>
		<g>
			<g>
				<line class="st2" x1="70.1" y1="74" x2="70.1" y2="79.8"/>
				<line class="st2" x1="72.3" y1="76.9" x2="67.8" y2="76.9"/>
			</g>
			<g>
				<line class="st2" x1="61.5" y1="74" x2="61.5" y2="79.8"/>
				<line class="st2" x1="63.7" y1="76.9" x2="59.3" y2="76.9"/>
			</g>
			<g>
				<line class="st2" x1="78.7" y1="74" x2="78.7" y2="79.8"/>
				<line class="st2" x1="80.9" y1="76.9" x2="76.4" y2="76.9"/>
			</g>
		</g>
		<g>
			<g>
				<line class="st2" x1="36.3" y1="74" x2="36.3" y2="79.8"/>
				<line class="st2" x1="38.5" y1="76.9" x2="34.1" y2="76.9"/>
			</g>
			<g>
				<line class="st2" x1="27.7" y1="74" x2="27.7" y2="79.8"/>
				<line class="st2" x1="29.9" y1="76.9" x2="25.5" y2="76.9"/>
			</g>
			<g>
				<line class="st2" x1="44.9" y1="74" x2="44.9" y2="79.8"/>
				<line class="st2" x1="47.1" y1="76.9" x2="42.7" y2="76.9"/>
			</g>
			<g>
				<line class="st2" x1="53.5" y1="74" x2="53.5" y2="79.8"/>
				<line class="st2" x1="55.7" y1="76.9" x2="51.3" y2="76.9"/>
			</g>
		</g>
	</g>
	<path class="st2" d="M51.1,32.1c4.5,0.9,8,4.4,8.8,8.8 M51.1,23.1c9.4,1,16.7,8.4,17.8,17.8 M66.6,58.8v6.7c0,2.5-2,4.5-4.5,4.5
		c-0.1,0-0.3,0-0.4,0c-6.9-0.7-13.5-3.1-19.3-6.9c-5.4-3.4-10-8-13.4-13.4c-3.8-5.8-6.1-12.5-6.9-19.4c-0.2-2.5,1.6-4.6,4.1-4.9
		c0.1,0,0.3,0,0.4,0h6.7c2.2,0,4.2,1.6,4.5,3.8c0.3,2.1,0.8,4.3,1.6,6.3c0.6,1.6,0.2,3.5-1,4.7l-2.8,2.8c3.2,5.6,7.8,10.2,13.4,13.4
		l2.8-2.8c1.2-1.2,3.1-1.6,4.7-1c2,0.8,4.1,1.3,6.3,1.6C65,54.5,66.7,56.5,66.6,58.8z"/>
</g>
</svg>
