<?xml version="1.0" encoding="utf-8"?>
<!-- Generator: Adobe Illustrator 24.3.0, SVG Export Plug-In . SVG Version: 6.00 Build 0)  -->
<svg version="1.1" id="Layer_1" xmlns="http://www.w3.org/2000/svg" xmlns:xlink="http://www.w3.org/1999/xlink" x="0px" y="0px"
	 viewBox="0 0 103 103" style="enable-background:new 0 0 103 103;" xml:space="preserve">
<style type="text/css">
	.st0{fill:#DDECEA;}
	.st1{fill:#F4C67D;}
	.st2{fill:none;stroke:#404F54;stroke-linecap:round;stroke-linejoin:round;}
	.st3{fill:none;stroke:#404F54;stroke-miterlimit:10;}
	.st4{fill:none;stroke:#000000;stroke-linecap:round;stroke-linejoin:round;}
	.st5{fill:#6D6E71;stroke:#6D6E71;stroke-width:0.5;stroke-miterlimit:10;}
	.st6{fill:none;stroke:#6D6E71;stroke-width:2;stroke-miterlimit:10;}
	.st7{fill:#6D6E71;}
	.st8{fill:#6D6E71;stroke:#6D6E71;stroke-width:2;stroke-miterlimit:10;}
	.st9{fill:none;stroke:#000000;stroke-width:2;stroke-linecap:round;stroke-linejoin:round;}
	.st10{fill:none;stroke:#6D6E71;stroke-miterlimit:10;}
	.st11{fill:#6D6E71;stroke:#6D6E71;stroke-miterlimit:10;}
	.st12{fill:#6D6E71;stroke:#6D6E71;stroke-width:0.25;stroke-miterlimit:10;}
	.st13{fill:#404F54;}
	.st14{fill:none;stroke:#404F54;stroke-width:3;stroke-linecap:round;stroke-linejoin:round;}
</style>
<g>
	<g>
		<path class="st3" d="M64.8,53c-4.4-3.6-9.7-4.3-14.6-2.4c-2.6,1.2-5,3.6-7.6,4.7c-5,2-10.3,0.8-14.6-2.4"/>
		<path class="st3" d="M64.8,57.2c-4.4-3.6-9.7-4.3-14.6-2.4c-2.6,1.2-5,3.6-7.6,4.7c-5,2-10.3,0.8-14.6-2.4"/>
		<path class="st3" d="M64.1,61.5c-4.4-3.6-9.7-4.3-14.6-2.4c-2.6,1.2-5,3.6-7.6,4.7c-5,2-10.3,0.8-14.6-2.4"/>
	</g>
	<g>
		<path class="st2" d="M23.8,23.8h55.4c3.8,0,6.9,3.1,6.9,6.9v41.6c0,3.8-3.1,6.9-6.9,6.9H23.8c-3.8,0-6.9-3.1-6.9-6.9V30.7
			C16.9,26.9,20,23.8,23.8,23.8z"/>
		<polyline class="st2" points="86.2,30.7 51.5,55 16.9,30.7 		"/>
	</g>
</g>
</svg>
