<?xml version="1.0" encoding="utf-8"?>
<!-- Generator: Adobe Illustrator 24.3.0, SVG Export Plug-In . SVG Version: 6.00 Build 0)  -->
<svg version="1.1" id="Layer_1" xmlns="http://www.w3.org/2000/svg" xmlns:xlink="http://www.w3.org/1999/xlink" x="0px" y="0px"
	 viewBox="0 0 103 103" style="enable-background:new 0 0 103 103;" xml:space="preserve">
<style type="text/css">
	.st0{fill:#DDECEA;}
	.st1{fill:#F4C67D;}
	.st2{fill:none;stroke:#404F54;stroke-linecap:round;stroke-linejoin:round;}
	.st3{fill:none;stroke:#404F54;stroke-miterlimit:10;}
	.st4{fill:none;stroke:#000000;stroke-linecap:round;stroke-linejoin:round;}
	.st5{fill:#6D6E71;stroke:#6D6E71;stroke-width:0.5;stroke-miterlimit:10;}
	.st6{fill:none;stroke:#6D6E71;stroke-width:2;stroke-miterlimit:10;}
	.st7{fill:#6D6E71;}
	.st8{fill:#6D6E71;stroke:#6D6E71;stroke-width:2;stroke-miterlimit:10;}
	.st9{fill:none;stroke:#000000;stroke-width:2;stroke-linecap:round;stroke-linejoin:round;}
	.st10{fill:none;stroke:#6D6E71;stroke-miterlimit:10;}
	.st11{fill:#6D6E71;stroke:#6D6E71;stroke-miterlimit:10;}
	.st12{fill:#6D6E71;stroke:#6D6E71;stroke-width:0.25;stroke-miterlimit:10;}
	.st13{fill:#404F54;}
	.st14{fill:none;stroke:#404F54;stroke-width:3;stroke-linecap:round;stroke-linejoin:round;}
</style>
<g>
	<path class="st2" d="M62.5,53.1c0.4-1.5,1.1-1.2,2-0.7c3.8,2.4,7.6,4.8,11.5,7.1c1.4,0.9,2.9,1.8,4.5,2.3c2.2,0.7,3.8-0.9,3.1-3.1
		c-0.3-0.8-0.7-1.7-1.4-2.3c-1.3-1.2-2.7-2.2-4.2-3.1c-8-5-15.9-10.1-24-15c-5-3-7.4-2.5-11.6,1.7c-0.6,0.5-1.1,1.1-1.7,1.6
		c-1.9,1.8-4.2,2.6-6.7,2.8c-3.2,0.2-5.3-1.7-4.8-4.9c0.3-2,1.3-3.9,2.3-5.7c0.9-1.5,2.2-2.8,3.4-4.3c-1.4-0.6-2.5-1-3.5-1.4
		c-3.7-1.5-5.2-1.3-7.3,2.1c-3.3,5.4-6.4,11-9.6,16.5c-0.7,1.2-0.6,2.2,0.5,3.2c0.5,0.5,1.1,1,1.5,1.5c1.2,1.4,2.4,2.5,4.1,0.6
		c0.3-0.3,0.8-0.4,1.3-0.4c3.1-0.6,5,1.1,6.6,3.9c1.8-2.6,3.9-4,6.9-2.6c2.6,1.3,4.1,3.4,3.4,6.4c4.6,1.2,5.1,1.9,5.7,7.4
		c2.3,0.2,4,1.1,5,3.4c1,2.4-0.2,4.2-1.2,6.1c4.1,2.2,7,2.7,10.6,1.5c1.2-0.4,2.1-1.5,3.2-2.3c-0.8-1-1.6-2.1-2.5-3
		c-0.6-0.5-1.5-0.7-2.3-1.1c-1.1-0.5-2.3-0.9-3.4-1.4c0-0.2-0.1-0.4-0.1-0.6c0.5-0.2,1.1-0.6,1.4-0.5c2.2,0.9,4.4,2,6.5,3
		c0.9,0.4,1.7,1,2.6,1.3c2.2,0.7,4.8-0.3,5.5-2.2c0.6-1.6-0.1-2.8-2.5-4.2c-0.2-0.1-0.5-0.2-0.7-0.4c-2.5-1.5-5.1-2.9-7.6-4.4
		c-0.4-0.2-0.6-0.9-0.8-1.3c0.6,0,1.2-0.2,1.7,0c1.4,0.6,2.6,1.4,3.9,2.2c2.8,1.6,5.5,3.3,8.3,4.6c1.9,0.9,4,0,4.9-1.6
		c0.9-1.6,0.3-3.7-1.5-4.9c-0.5-0.4-1.1-0.7-1.6-1.1C69.8,57.6,66.2,55.3,62.5,53.1z"/>
	<path class="st2" d="M54.2,24.7c-2.8,0.3-5.7,0.3-8.5,0.8c-7.1,1.4-11.5,6.2-14.5,12.4c-0.5,1-0.4,3.1,0.3,3.7
		c0.8,0.8,2.6,0.9,3.9,0.8c2.9-0.3,4.7-2.4,6.5-4.4c2.5-2.7,5.4-3.8,9-2.9c1.4,0.3,2.8,0.9,4,1.6C63,41.9,71.2,47,79.4,52.2
		c2.5,1.6,2.7,1.7,5.1,0c0.3-0.2,0.5-0.4,0.8-0.6c4.3-3,4.4-3.2,2.1-7.9c-2.4-4.8-5-9.6-7.4-14.4c-1.3-2.5-1.7-2.5-4.5-2
		c-1.5,0.3-3.2,0.5-4.6,0.1C65.5,25.7,59.9,24.8,54.2,24.7z"/>
	<path class="st2" d="M37.4,57.1c-1.1-1-2.1-2.3-3.4-2.8c-0.8-0.3-2.5,0.1-3.1,0.8c-2.4,2.7-4.6,5.6-6.8,8.5
		c-1.3,1.7-0.9,3.2,1.1,4.6c1.8,1.3,3.3,1.2,4.6-0.4c2.2-2.7,4.3-5.4,6.4-8.2C36.6,59,36.8,58.3,37.4,57.1z"/>
	<path class="st2" d="M38.4,61.1c-0.4,0.2-1.4,0.5-2,1.2c-1.8,2.1-3.5,4.2-5.1,6.4c-1.2,1.7-0.9,3.3,0.6,4.7
		c1.5,1.3,3.4,1.3,4.7-0.2c1.9-2.1,3.7-4.4,5.3-6.7C43.4,64.1,41.6,61.1,38.4,61.1z"/>
	<path class="st2" d="M42.6,77.8c1.7,0,3.4-1.4,4.9-4.1c0.9-1.6,0.6-3.3-0.9-4.5c-1.3-1.1-3.1-1.2-4.4,0.1c-1.1,1.1-2.1,2.3-2.8,3.7
		C38.1,75.2,40,77.8,42.6,77.8z"/>
	<path class="st2" d="M22.6,52.3c-1.3,1.3-2.5,2.2-3.5,3.4c-1.6,1.9-1.6,3.5,0.1,4.9c1.9,1.7,3.5,1.6,5.2-0.3
		c0.5-0.6,1.2-1.2,1.4-1.9c0.3-1.1,0.6-2.5,0.1-3.4C25.4,54,24,53.4,22.6,52.3z"/>
	<path class="st2" d="M37.4,57.1c-0.6,1.2-0.8,1.9-1.3,2.5c-2.1,2.7-4.2,5.5-6.4,8.2c-1.3,1.6-2.8,1.7-4.6,0.4
		c-1.9-1.4-2.4-2.9-1.1-4.6c2.2-2.9,4.4-5.8,6.8-8.5c0.6-0.7,2.3-1.1,3.1-0.8C35.3,54.8,36.3,56.1,37.4,57.1z"/>
	<path class="st2" d="M38.4,61.1c3.2,0,5,3,3.5,5.3c-1.6,2.4-3.4,4.6-5.3,6.7c-1.3,1.5-3.2,1.5-4.7,0.2c-1.6-1.3-1.9-3-0.6-4.7
		c1.6-2.2,3.3-4.4,5.1-6.4C37,61.6,38,61.3,38.4,61.1z"/>
	<path class="st2" d="M42.6,77.8c-2.6,0-4.4-2.6-3.3-4.9c0.7-1.4,1.7-2.6,2.8-3.7c1.3-1.3,3.1-1.2,4.4-0.1c1.4,1.2,1.8,2.9,0.9,4.5
		C45.9,76.4,44.2,77.8,42.6,77.8z"/>
	<path class="st2" d="M22.6,52.3C24,53.4,25.4,54,26,55c0.5,0.9,0.1,2.3-0.1,3.4c-0.2,0.7-0.8,1.3-1.4,1.9c-1.7,1.9-3.3,2-5.2,0.3
		c-1.6-1.5-1.7-3-0.1-4.9C20.1,54.5,21.3,53.6,22.6,52.3z"/>
</g>
</svg>
