<svg xmlns="http://www.w3.org/2000/svg" width="24" height="25" fill="none" viewBox="0 0 24 25"><path d="M0 0H24V24H0z" transform="translate(0 0.916199)"/><path stroke="currentColor" stroke-linecap="round" stroke-linejoin="round" d="M2.03125 19.5466V12.9162C2.03125 7.40895 6.49 2.95242 12 2.95242C17.51 2.95242 21.9688 7.40895 21.9688 12.9162V19.5466"/><path stroke="currentColor" stroke-linecap="round" stroke-linejoin="round" d="M21.9688 20.6698C21.9688 21.9017 20.99 22.88 19.7575 22.88H18.6338C17.4013 22.88 15.4225 21.9017 15.4225 20.6698V17.3365C15.4225 16.1046 17.4013 15.1263 18.6338 15.1263H21.9688V20.6698zM2.03125 20.6698C2.03125 21.9017 3.01 22.88 4.2425 22.88H5.36625C6.59875 22.88 8.5775 21.9017 8.5775 20.6698V17.3365C8.5775 16.1046 6.59875 15.1263 5.36625 15.1263H2.03125V20.6698zM18.7813 17.1314V20.875M16.9804 18.9299L20.3693 18.9299"/></svg>