<?xml version="1.0" encoding="utf-8"?>
<!-- Generator: Adobe Illustrator 24.3.0, SVG Export Plug-In . SVG Version: 6.00 Build 0)  -->
<svg version="1.1" id="Layer_1" xmlns="http://www.w3.org/2000/svg" xmlns:xlink="http://www.w3.org/1999/xlink" x="0px" y="0px"
	 viewBox="0 0 103 103" style="enable-background:new 0 0 103 103;" xml:space="preserve">
<style type="text/css">
	.st0{fill:#DDECEA;}
	.st1{fill:#F4C67D;}
	.st2{fill:none;stroke:#404F54;stroke-linecap:round;stroke-linejoin:round;}
	.st3{fill:none;stroke:#404F54;stroke-miterlimit:10;}
	.st4{fill:none;stroke:#000000;stroke-linecap:round;stroke-linejoin:round;}
	.st5{fill:#6D6E71;stroke:#6D6E71;stroke-width:0.5;stroke-miterlimit:10;}
	.st6{fill:none;stroke:#6D6E71;stroke-width:2;stroke-miterlimit:10;}
	.st7{fill:#6D6E71;}
	.st8{fill:#6D6E71;stroke:#6D6E71;stroke-width:2;stroke-miterlimit:10;}
	.st9{fill:none;stroke:#000000;stroke-width:2;stroke-linecap:round;stroke-linejoin:round;}
	.st10{fill:none;stroke:#6D6E71;stroke-miterlimit:10;}
	.st11{fill:#6D6E71;stroke:#6D6E71;stroke-miterlimit:10;}
	.st12{fill:#6D6E71;stroke:#6D6E71;stroke-width:0.25;stroke-miterlimit:10;}
	.st13{fill:#404F54;}
	.st14{fill:none;stroke:#404F54;stroke-width:3;stroke-linecap:round;stroke-linejoin:round;}
</style>
<g>
	<g>
		<path class="st3" d="M80.2,66.1c-6.7-4-14.8-4.9-22.4-2.7c-4,1.3-7.6,4-11.6,5.4c-7.6,2.2-15.7,0.9-22.4-2.7"/>
		<path class="st3" d="M80.2,70.9c-6.7-4-14.8-4.9-22.4-2.7c-4,1.3-7.6,4-11.6,5.4c-7.6,2.2-15.7,0.9-22.4-2.7"/>
		<path class="st3" d="M79.2,75.7c-6.7-4-14.8-4.9-22.4-2.7c-4,1.3-7.6,4-11.6,5.4c-7.6,2.2-15.7,0.9-22.4-2.7"/>
	</g>
	<g>
		<g>
			<line class="st2" x1="49.5" y1="26.8" x2="49.5" y2="38.7"/>
			<path class="st2" d="M52.2,28.9h-4.1c-1,0-1.9,0.8-1.9,1.9s0.8,1.9,1.9,1.9h2.7c1,0,1.9,0.8,1.9,1.9s-0.8,1.9-1.9,1.9h-4.6"/>
		</g>
		<path class="st2" d="M40.4,32.2c0,4.8,3.9,8.7,8.7,8.7c4.8,0,8.7-3.9,8.7-8.7c0-4.8-3.9-8.7-8.7-8.7
			C44.3,23.5,40.4,27.4,40.4,32.2z"/>
	</g>
	<g>
		<g>
			<line class="st2" x1="70.6" y1="42" x2="70.6" y2="53.2"/>
			<path class="st2" d="M73.2,44h-3.8c-1,0-1.8,0.8-1.8,1.8s0.8,1.8,1.8,1.8h2.5c1,0,1.8,0.8,1.8,1.8c0,1-0.8,1.8-1.8,1.8h-4.3"/>
		</g>
		<path class="st2" d="M62.3,47.5c0,4.5,3.7,8.2,8.2,8.2c4.5,0,8.2-3.7,8.2-8.2c0-4.5-3.7-8.2-8.2-8.2C66,39.3,62.3,43,62.3,47.5z"
			/>
	</g>
	<g>
		<g>
			<line class="st2" x1="40.4" y1="50" x2="40.4" y2="61.5"/>
			<path class="st2" d="M43,52.1h-3.9c-1,0-1.8,0.8-1.8,1.8s0.8,1.8,1.8,1.8h2.6c1,0,1.8,0.8,1.8,1.8c0,1-0.8,1.8-1.8,1.8h-4.4"/>
		</g>
		<path class="st2" d="M31.9,56.7c0,4.6,3.8,8.4,8.4,8.4c4.6,0,8.4-3.8,8.4-8.4c0-4.6-3.8-8.4-8.4-8.4
			C35.7,48.3,31.9,52.1,31.9,56.7z"/>
	</g>
</g>
</svg>
