<svg xmlns="http://www.w3.org/2000/svg" width="24" height="24" fill="none" viewBox="0 0 24 24"><path d="M0 0H24V24H0z"/><path stroke="currentColor" stroke-linecap="round" stroke-linejoin="round" d="M8.37304 17.1821L8.44632 19.0872C8.48295 20.0763 9.28894 20.8457 10.2781 20.8457L13.8684 20.7724C14.8576 20.7358 15.627 19.9298 15.627 18.9406L15.7369 17.1821C14.3813 17.5851 12.0366 17.4752 12.0366 17.4752C12.0366 17.4752 9.72857 17.5851 8.37304 17.1821Z"/><path stroke="currentColor" stroke-linecap="round" stroke-linejoin="round" d="M9.39885 20.8091C9.43549 21.7982 10.0217 22.018 10.7544 21.9814L13.3555 21.9081C14.0882 21.9081 14.6378 21.6517 14.6011 20.6625M15.5903 17.2187C18.2281 15.8998 20.0233 13.1888 20.0233 10.0381 20.0233 5.60516 16.4329 2.01484 12 2.01484 7.56706 2.01484 3.97674 5.60516 3.97674 10.0381 3.97674 13.1888 5.7719 15.8998 8.40968 17.2187M12 8.40625V12M10.2712 10.1327L13.5245 10.1327"/></svg>