<svg width="24" height="24" viewBox="0 0 24 24" fill="none" xmlns="http://www.w3.org/2000/svg">
<rect width="24" height="24"/>
<path d="M20.25 10.1667C20.25 16.5833 12 22.0833 12 22.0833C12 22.0833 3.75 16.5833 3.75 10.1667C3.75 7.97863 4.61919 5.88021 6.16637 4.33304C7.71354 2.78586 9.81196 1.91667 12 1.91667C14.188 1.91667 16.2865 2.78586 17.8336 4.33304C19.3808 5.88021 20.25 7.97863 20.25 10.1667Z" stroke="currentColor" stroke-linecap="round" stroke-linejoin="round"/>
<path d="M12 12.9167C13.5188 12.9167 14.75 11.6855 14.75 10.1667C14.75 8.64788 13.5188 7.41667 12 7.41667C10.4812 7.41667 9.25 8.64788 9.25 10.1667C9.25 11.6855 10.4812 12.9167 12 12.9167Z" stroke="currentColor" stroke-linecap="round" stroke-linejoin="round"/>
</svg>
