<svg width="24" height="24" viewBox="0 0 24 24" fill="none" xmlns="http://www.w3.org/2000/svg">
<rect width="24" height="24"/>
<path d="M4.10811 4.65166H19.8919C20.973 4.65166 21.8649 5.58916 21.8649 6.74725V17.2528C21.8649 18.4108 20.973 19.3483 19.8919 19.3483H4.10811C3.02703 19.3483 2.13514 18.4108 2.13514 17.2528V6.74725C2.13514 5.58916 3.02703 4.65166 4.10811 4.65166Z" stroke="currentColor" stroke-linecap="round" stroke-linejoin="round"/>
<path d="M4.10811 4.65166H19.8919C20.973 4.65166 21.8649 5.58916 21.8649 6.74725V17.2528C21.8649 18.4108 20.973 19.3483 19.8919 19.3483H4.10811C3.02703 19.3483 2.13514 18.4108 2.13514 17.2528V6.74725C2.13514 5.58916 3.02703 4.65166 4.10811 4.65166Z" stroke="currentColor" stroke-linecap="round" stroke-linejoin="round"/>
<path d="M6.76605 18L6.76605 16.625" stroke="currentColor" stroke-linecap="round" stroke-linejoin="round"/>
<path d="M4.1174 17.3566H19.8826" stroke="currentColor" stroke-linecap="round" stroke-linejoin="round"/>
<path d="M12.0011 9.50705V13.1008M10.2724 11.2335L13.5256 11.2335" stroke="currentColor" stroke-linecap="round" stroke-linejoin="round"/>
</svg>
