<svg width="120" height="120" viewBox="0 0 120 120" fill="none" xmlns="http://www.w3.org/2000/svg">
<path d="M60 120C93.1371 120 120 93.1371 120 60C120 26.8629 93.1371 0 60 0C26.8629 0 0 26.8629 0 60C0 93.1371 26.8629 120 60 120Z" fill="#DDECEA"/>
<path d="M31.9603 28.396H88.0396C91.9603 28.396 95.0495 31.4851 95.0495 35.4059V70.4554C95.0495 74.3762 91.9603 77.4653 88.0396 77.4653H31.9603C28.0395 77.4653 24.9504 74.3762 24.9504 70.4554V35.4059C24.9504 31.6039 28.0395 28.396 31.9603 28.396Z" stroke="#404F54" stroke-linecap="round" stroke-linejoin="round"/>
<path d="M45.9802 91.6039H74.0198" stroke="#404F54" stroke-linecap="round" stroke-linejoin="round"/>
<path d="M60 77.5841V91.6039" stroke="#404F54" stroke-linecap="round" stroke-linejoin="round"/>
<path d="M35.6437 56.5544L34.4556 63.9208" stroke="#404F54" stroke-linecap="round" stroke-linejoin="round"/>
<path d="M37.9011 60.7129L32.3169 59.7624" stroke="#404F54" stroke-linecap="round" stroke-linejoin="round"/>
<path d="M45.2673 39.4455L44.9109 47.0495" stroke="#404F54" stroke-linecap="round" stroke-linejoin="round"/>
<path d="M48.0001 43.3663L42.2971 43.1287" stroke="#404F54" stroke-linecap="round" stroke-linejoin="round"/>
<path d="M59.8813 52.1584L59.406 59.6435" stroke="#404F54" stroke-linecap="round" stroke-linejoin="round"/>
<path d="M62.4952 56.0792L56.7922 55.8416" stroke="#404F54" stroke-linecap="round" stroke-linejoin="round"/>
<path d="M85.4258 68.4356L84.3564 60.9505" stroke="#404F54" stroke-linecap="round" stroke-linejoin="round"/>
<path d="M82.0991 65.1089L87.6833 64.2772" stroke="#404F54" stroke-linecap="round" stroke-linejoin="round"/>
</svg>
