<?xml version="1.0" encoding="utf-8"?>
<!-- Generator: Adobe Illustrator 24.3.0, SVG Export Plug-In . SVG Version: 6.00 Build 0)  -->
<svg version="1.1" id="Layer_1" xmlns="http://www.w3.org/2000/svg" xmlns:xlink="http://www.w3.org/1999/xlink" x="0px" y="0px"
	 viewBox="0 0 103 103" style="enable-background:new 0 0 103 103;" xml:space="preserve">
<style type="text/css">
	.st0{fill:#DDECEA;}
	.st1{fill:#F4C67D;}
	.st2{fill:none;stroke:#404F54;stroke-linecap:round;stroke-linejoin:round;}
	.st3{fill:none;stroke:#404F54;stroke-miterlimit:10;}
	.st4{fill:none;stroke:#000000;stroke-linecap:round;stroke-linejoin:round;}
	.st5{fill:#6D6E71;stroke:#6D6E71;stroke-width:0.5;stroke-miterlimit:10;}
	.st6{fill:none;stroke:#6D6E71;stroke-width:2;stroke-miterlimit:10;}
	.st7{fill:#6D6E71;}
	.st8{fill:#6D6E71;stroke:#6D6E71;stroke-width:2;stroke-miterlimit:10;}
	.st9{fill:none;stroke:#000000;stroke-width:2;stroke-linecap:round;stroke-linejoin:round;}
	.st10{fill:none;stroke:#6D6E71;stroke-miterlimit:10;}
	.st11{fill:#6D6E71;stroke:#6D6E71;stroke-miterlimit:10;}
	.st12{fill:#6D6E71;stroke:#6D6E71;stroke-width:0.25;stroke-miterlimit:10;}
	.st13{fill:#404F54;}
	.st14{fill:none;stroke:#404F54;stroke-width:3;stroke-linecap:round;stroke-linejoin:round;}
</style>
<g>
	<g>
		<path class="st2" d="M66.3,44.2h2.7c6,0,10.8,4.8,10.8,10.8S75,65.8,69.1,65.8h-2.7"/>
		<path class="st2" d="M23.1,44.2h43.2v24.3c0,6-4.8,10.8-10.8,10.8H34c-6,0-10.8-4.8-10.8-10.8V44.2z"/>
		<line class="st2" x1="34" y1="23.7" x2="34" y2="35.1"/>
		<line class="st2" x1="44.8" y1="23.7" x2="44.8" y2="35.1"/>
		<line class="st2" x1="55.5" y1="23.7" x2="55.5" y2="35.1"/>
	</g>
	<path class="st2" d="M41.9,64.6c-1.2-1.2-3.2-1.2-4.5,0c0,0,0,0,0,0l-0.6,0.6l-0.6-0.6c-1.2-1.2-3.2-1.2-4.5,0
		c-1.2,1.2-1.2,3.2,0,4.5l0.6,0.6l4.5,4.5l4.5-4.5l0.6-0.6C43.1,67.8,43.1,65.8,41.9,64.6C41.9,64.6,41.9,64.6,41.9,64.6z"/>
	<path class="st2" d="M55.9,54v-2.3c0-1-0.8-1.7-1.7-1.7l-2.3,5.2v6.3h6.5c0.6,0,1.1-0.4,1.2-1l0.8-5.2c0.1-0.6-0.3-1.2-1-1.3
		c-0.1,0-0.1,0-0.2,0H55.9z M51.9,61.5h-1.7c-0.6,0-1.2-0.5-1.2-1.2v-4c0-0.6,0.5-1.2,1.2-1.2h1.7"/>
</g>
</svg>
