<?xml version="1.0" encoding="utf-8"?>
<!-- Generator: Adobe Illustrator 24.3.0, SVG Export Plug-In . SVG Version: 6.00 Build 0)  -->
<svg version="1.1" id="Layer_1" xmlns="http://www.w3.org/2000/svg" xmlns:xlink="http://www.w3.org/1999/xlink" x="0px" y="0px"
	 viewBox="0 0 103 103" style="enable-background:new 0 0 103 103;" xml:space="preserve">
<style type="text/css">
	.st0{fill:#DDECEA;}
	.st1{fill:#F4C67D;}
	.st2{fill:none;stroke:#404F54;stroke-linecap:round;stroke-linejoin:round;}
	.st3{fill:none;stroke:#404F54;stroke-miterlimit:10;}
	.st4{fill:none;stroke:#000000;stroke-linecap:round;stroke-linejoin:round;}
	.st5{fill:#6D6E71;stroke:#6D6E71;stroke-width:0.5;stroke-miterlimit:10;}
	.st6{fill:none;stroke:#6D6E71;stroke-width:2;stroke-miterlimit:10;}
	.st7{fill:#6D6E71;}
	.st8{fill:#6D6E71;stroke:#6D6E71;stroke-width:2;stroke-miterlimit:10;}
	.st9{fill:none;stroke:#000000;stroke-width:2;stroke-linecap:round;stroke-linejoin:round;}
	.st10{fill:none;stroke:#6D6E71;stroke-miterlimit:10;}
	.st11{fill:#6D6E71;stroke:#6D6E71;stroke-miterlimit:10;}
	.st12{fill:#6D6E71;stroke:#6D6E71;stroke-width:0.25;stroke-miterlimit:10;}
	.st13{fill:#404F54;}
	.st14{fill:none;stroke:#404F54;stroke-width:3;stroke-linecap:round;stroke-linejoin:round;}
</style>
<rect x="24.4" y="24.4" class="st2" width="54.3" height="54.3"/>
<g>
	<path class="st2" d="M58.9,33.2c1.6-1.6,4.2-1.6,5.8,0c1.6,1.6,1.6,4.2,0,5.8l0,0L45.1,58.5l-8,2.2l2.2-8L58.9,33.2z"/>
	<g>
		<g>
			<g>
				<line class="st2" x1="63.6" y1="66.8" x2="63.6" y2="71"/>
				<line class="st2" x1="65.2" y1="68.9" x2="62" y2="68.9"/>
			</g>
			<g>
				<line class="st2" x1="57.4" y1="66.8" x2="57.4" y2="71"/>
				<line class="st2" x1="59" y1="68.9" x2="55.8" y2="68.9"/>
			</g>
			<g>
				<line class="st2" x1="69.7" y1="66.8" x2="69.7" y2="71"/>
				<line class="st2" x1="71.3" y1="68.9" x2="68.1" y2="68.9"/>
			</g>
		</g>
		<g>
			<g>
				<line class="st2" x1="39.4" y1="66.8" x2="39.4" y2="71"/>
				<line class="st2" x1="41" y1="68.9" x2="37.8" y2="68.9"/>
			</g>
			<g>
				<line class="st2" x1="33.3" y1="66.8" x2="33.3" y2="71"/>
				<line class="st2" x1="34.9" y1="68.9" x2="31.7" y2="68.9"/>
			</g>
			<g>
				<line class="st2" x1="45.6" y1="66.8" x2="45.6" y2="71"/>
				<line class="st2" x1="47.2" y1="68.9" x2="44" y2="68.9"/>
			</g>
			<g>
				<line class="st2" x1="51.7" y1="66.8" x2="51.7" y2="71"/>
				<line class="st2" x1="53.3" y1="68.9" x2="50.1" y2="68.9"/>
			</g>
		</g>
	</g>
</g>
</svg>
