<svg xmlns="http://www.w3.org/2000/svg" width="24" height="25" fill="none" viewBox="0 0 24 25"><path d="M0 0H24V24H0z" transform="translate(0 0.916199)"/><path stroke="currentColor" stroke-linecap="round" stroke-linejoin="round" d="M14.7251 8.3743H17.4503C18.0467 8.3743 18.6373 8.49178 19.1884 8.72003 19.7394 8.94828 20.2401 9.28284 20.6619 9.70459 21.0836 10.1263 21.4182 10.627 21.6465 11.1781 21.8747 11.7291 21.9922 12.3197 21.9922 12.9162 21.9922 13.5126 21.8747 14.1033 21.6465 14.6543 21.4182 15.2054 21.0836 15.7061 20.6619 16.1278 20.2401 16.5496 19.7394 16.8841 19.1884 17.1124 18.6373 17.3406 18.0467 17.4581 17.4503 17.4581H14.7251M9.27486 17.4581H6.54972C5.95327 17.4581 5.36266 17.3406 4.81161 17.1124 4.26056 16.8841 3.75987 16.5496 3.33811 16.1278 2.48634 15.276 2.00782 14.1208 2.00782 12.9162 2.00782 11.7116 2.48634 10.5564 3.33811 9.70459 4.18988 8.85282 5.34513 8.3743 6.54972 8.3743H9.27486M12 11.1205V14.7142M10.2712 12.847L13.5245 12.847"/></svg>