<svg width="20" height="20" viewBox="0 0 20 20" fill="none" xmlns="http://www.w3.org/2000/svg">
<path d="M16.6667 10V18.3333H3.33337V10" stroke="#404F54" stroke-linecap="round" stroke-linejoin="round"/>
<path d="M18.3333 5.83331H1.66663V9.99998H18.3333V5.83331Z" stroke="#404F54" stroke-linecap="round" stroke-linejoin="round"/>
<path d="M10 18.3333V5.83331" stroke="#404F54" stroke-linecap="round" stroke-linejoin="round"/>
<path d="M9.99996 5.83335H6.24996C5.69743 5.83335 5.16752 5.61386 4.77682 5.22316C4.38612 4.83246 4.16663 4.30255 4.16663 3.75002C4.16663 3.19749 4.38612 2.66758 4.77682 2.27688C5.16752 1.88618 5.69743 1.66669 6.24996 1.66669C9.16663 1.66669 9.99996 5.83335 9.99996 5.83335Z" stroke="#404F54" stroke-linecap="round" stroke-linejoin="round"/>
<path d="M10 5.83335H13.75C14.3025 5.83335 14.8324 5.61386 15.2231 5.22316C15.6138 4.83246 15.8333 4.30255 15.8333 3.75002C15.8333 3.19749 15.6138 2.66758 15.2231 2.27688C14.8324 1.88618 14.3025 1.66669 13.75 1.66669C10.8333 1.66669 10 5.83335 10 5.83335Z" stroke="#404F54" stroke-linecap="round" stroke-linejoin="round"/>
</svg>
