<svg width="18" height="18" viewBox="0 0 18 18" fill="none" xmlns="http://www.w3.org/2000/svg">
<path d="M13.9976 4.97248C13.6799 4.66418 13.3028 4.41961 12.8877 4.25275C12.4726 4.08588 12.0276 4 11.5783 4C11.129 4 10.6841 4.08588 10.269 4.25275C9.85386 4.41961 9.47671 4.66418 9.15907 4.97248L8.49983 5.61202L7.8406 4.97248C7.19898 4.35002 6.32874 4.00032 5.42135 4.00032C4.51395 4.00032 3.64372 4.35002 3.00209 4.97248C2.36046 5.59494 2 6.43918 2 7.31947C2 8.19977 2.36046 9.04401 3.00209 9.66647L3.66132 10.306L8.49983 15L13.3383 10.306L13.9976 9.66647C14.3154 9.35831 14.5675 8.99243 14.7395 8.58972C14.9115 8.18702 15 7.75538 15 7.31947C15 6.88357 14.9115 6.45193 14.7395 6.04923C14.5675 5.64652 14.3154 5.28064 13.9976 4.97248V4.97248Z" stroke="#404F54" stroke-linecap="round" stroke-linejoin="round"/>
</svg>
