<?xml version="1.0" encoding="utf-8"?>
<!-- Generator: Adobe Illustrator 24.3.0, SVG Export Plug-In . SVG Version: 6.00 Build 0)  -->
<svg version="1.1" id="Layer_1" xmlns="http://www.w3.org/2000/svg" xmlns:xlink="http://www.w3.org/1999/xlink" x="0px" y="0px"
	 viewBox="0 0 103 103" style="enable-background:new 0 0 103 103;" xml:space="preserve">
<style type="text/css">
	.st0{fill:#DDECEA;}
	.st1{fill:#F4C67D;}
	.st2{fill:none;stroke:#404F54;stroke-linecap:round;stroke-linejoin:round;}
	.st3{fill:none;stroke:#404F54;stroke-miterlimit:10;}
	.st4{fill:none;stroke:#000000;stroke-linecap:round;stroke-linejoin:round;}
	.st5{fill:#6D6E71;stroke:#6D6E71;stroke-width:0.5;stroke-miterlimit:10;}
	.st6{fill:none;stroke:#6D6E71;stroke-width:2;stroke-miterlimit:10;}
	.st7{fill:#6D6E71;}
	.st8{fill:#6D6E71;stroke:#6D6E71;stroke-width:2;stroke-miterlimit:10;}
	.st9{fill:none;stroke:#000000;stroke-width:2;stroke-linecap:round;stroke-linejoin:round;}
	.st10{fill:none;stroke:#6D6E71;stroke-miterlimit:10;}
	.st11{fill:#6D6E71;stroke:#6D6E71;stroke-miterlimit:10;}
	.st12{fill:#6D6E71;stroke:#6D6E71;stroke-width:0.25;stroke-miterlimit:10;}
	.st13{fill:#404F54;}
	.st14{fill:none;stroke:#404F54;stroke-width:3;stroke-linecap:round;stroke-linejoin:round;}
</style>
<g>
	<g>
		<path class="st2" d="M27.9,24.9h47.2c3.3,0,5.9,2.6,5.9,5.9v29.5c0,3.3-2.6,5.9-5.9,5.9H27.9c-3.3,0-5.9-2.6-5.9-5.9V30.8
			C22,27.6,24.6,24.9,27.9,24.9z"/>
		<line class="st2" x1="39.7" y1="78.1" x2="63.3" y2="78.1"/>
		<line class="st2" x1="51.5" y1="66.3" x2="51.5" y2="78.1"/>
	</g>
	<g>
		<g>
			<g>
				<line class="st2" x1="31" y1="48.6" x2="30" y2="54.8"/>
				<line class="st2" x1="32.9" y1="52.1" x2="28.2" y2="51.3"/>
			</g>
			<g>
				<line class="st2" x1="39.1" y1="34.2" x2="38.8" y2="40.6"/>
				<line class="st2" x1="41.4" y1="37.5" x2="36.6" y2="37.3"/>
			</g>
			<g>
				<line class="st2" x1="51.4" y1="44.9" x2="51" y2="51.2"/>
				<line class="st2" x1="53.6" y1="48.2" x2="48.8" y2="48"/>
			</g>
		</g>
		<g>
			<line class="st2" x1="72.9" y1="58.6" x2="72" y2="52.3"/>
			<line class="st2" x1="70.1" y1="55.8" x2="74.8" y2="55.1"/>
		</g>
	</g>
</g>
</svg>
