<?xml version="1.0" encoding="utf-8"?>
<!-- Generator: Adobe Illustrator 24.3.0, SVG Export Plug-In . SVG Version: 6.00 Build 0)  -->
<svg version="1.1" id="Layer_1" xmlns="http://www.w3.org/2000/svg" xmlns:xlink="http://www.w3.org/1999/xlink" x="0px" y="0px"
	 viewBox="0 0 103 103" style="enable-background:new 0 0 103 103;" xml:space="preserve">
<style type="text/css">
	.st0{fill:#DDECEA;}
	.st1{fill:#F4C67D;}
	.st2{fill:none;stroke:#404F54;stroke-linecap:round;stroke-linejoin:round;}
	.st3{fill:none;stroke:#404F54;stroke-miterlimit:10;}
	.st4{fill:none;stroke:#000000;stroke-linecap:round;stroke-linejoin:round;}
	.st5{fill:#6D6E71;stroke:#6D6E71;stroke-width:0.5;stroke-miterlimit:10;}
	.st6{fill:none;stroke:#6D6E71;stroke-width:2;stroke-miterlimit:10;}
	.st7{fill:#6D6E71;}
	.st8{fill:#6D6E71;stroke:#6D6E71;stroke-width:2;stroke-miterlimit:10;}
	.st9{fill:none;stroke:#000000;stroke-width:2;stroke-linecap:round;stroke-linejoin:round;}
	.st10{fill:none;stroke:#6D6E71;stroke-miterlimit:10;}
	.st11{fill:#6D6E71;stroke:#6D6E71;stroke-miterlimit:10;}
	.st12{fill:#6D6E71;stroke:#6D6E71;stroke-width:0.25;stroke-miterlimit:10;}
	.st13{fill:#404F54;}
	.st14{fill:none;stroke:#404F54;stroke-width:3;stroke-linecap:round;stroke-linejoin:round;}
</style>
<g>
	<g>
		<path class="st2" d="M27.4,24.4h48.2c3.3,0,6,2.7,6,6v30.1c0,3.3-2.7,6-6,6H27.4c-3.3,0-6-2.7-6-6V30.4
			C21.4,27.1,24,24.4,27.4,24.4z"/>
		<line class="st2" x1="39.4" y1="78.6" x2="63.6" y2="78.6"/>
		<line class="st2" x1="51.5" y1="66.6" x2="51.5" y2="78.6"/>
	</g>
	<g>
		<g>
			<g>
				<line class="st2" x1="40" y1="41" x2="40" y2="48.3"/>
				<line class="st2" x1="42.7" y1="44.7" x2="37.2" y2="44.7"/>
			</g>
			<g>
				<line class="st2" x1="29.4" y1="41" x2="29.4" y2="48.3"/>
				<line class="st2" x1="32.1" y1="44.7" x2="26.6" y2="44.7"/>
			</g>
			<g>
				<line class="st2" x1="50.6" y1="41" x2="50.6" y2="48.3"/>
				<line class="st2" x1="53.3" y1="44.7" x2="47.9" y2="44.7"/>
			</g>
			<g>
				<line class="st2" x1="61.2" y1="41" x2="61.2" y2="48.3"/>
				<line class="st2" x1="64" y1="44.7" x2="58.5" y2="44.7"/>
			</g>
		</g>
	</g>
	<g>
		<circle class="st2" cx="62" cy="44.8" r="8.7"/>
		<line class="st2" x1="72.9" y1="55.7" x2="68.2" y2="50.9"/>
	</g>
</g>
</svg>
