<?xml version="1.0" encoding="utf-8"?>
<!-- Generator: Adobe Illustrator 24.3.0, SVG Export Plug-In . SVG Version: 6.00 Build 0)  -->
<svg version="1.1" id="Layer_1" xmlns="http://www.w3.org/2000/svg" xmlns:xlink="http://www.w3.org/1999/xlink" x="0px" y="0px"
	 viewBox="0 0 103 103" style="enable-background:new 0 0 103 103;" xml:space="preserve">
<style type="text/css">
	.st0{fill:#DDECEA;}
	.st1{fill:#F4C67D;}
	.st2{fill:none;stroke:#404F54;stroke-linecap:round;stroke-linejoin:round;}
	.st3{fill:none;stroke:#404F54;stroke-miterlimit:10;}
	.st4{fill:none;stroke:#000000;stroke-linecap:round;stroke-linejoin:round;}
	.st5{fill:#6D6E71;stroke:#6D6E71;stroke-width:0.5;stroke-miterlimit:10;}
	.st6{fill:none;stroke:#6D6E71;stroke-width:2;stroke-miterlimit:10;}
	.st7{fill:#6D6E71;}
	.st8{fill:#6D6E71;stroke:#6D6E71;stroke-width:2;stroke-miterlimit:10;}
	.st9{fill:none;stroke:#000000;stroke-width:2;stroke-linecap:round;stroke-linejoin:round;}
	.st10{fill:none;stroke:#6D6E71;stroke-miterlimit:10;}
	.st11{fill:#6D6E71;stroke:#6D6E71;stroke-miterlimit:10;}
	.st12{fill:#6D6E71;stroke:#6D6E71;stroke-width:0.25;stroke-miterlimit:10;}
	.st13{fill:#404F54;}
	.st14{fill:none;stroke:#404F54;stroke-width:3;stroke-linecap:round;stroke-linejoin:round;}
</style>
<g>
	<line class="st11" x1="51.5" y1="24" x2="51.5" y2="37.8"/>
	<line class="st11" x1="43.4" y1="25.2" x2="47.4" y2="38.4"/>
	<line class="st11" x1="35.9" y1="28.8" x2="43.7" y2="40.2"/>
	<line class="st11" x1="29.9" y1="34.4" x2="40.7" y2="43"/>
	<line class="st11" x1="25.8" y1="41.5" x2="38.6" y2="46.6"/>
	<line class="st11" x1="23.9" y1="49.5" x2="37.7" y2="50.6"/>
	<line class="st11" x1="24.5" y1="57.7" x2="38" y2="54.7"/>
	<line class="st11" x1="27.5" y1="65.3" x2="39.5" y2="58.5"/>
	<line class="st11" x1="32.6" y1="71.8" x2="42" y2="61.7"/>
	<line class="st11" x1="39.3" y1="76.5" x2="45.4" y2="64.1"/>
	<line class="st11" x1="47.2" y1="78.9" x2="49.3" y2="65.3"/>
	<line class="st11" x1="55.4" y1="79" x2="53.4" y2="65.3"/>
	<line class="st11" x1="63.3" y1="76.6" x2="57.4" y2="64.1"/>
	<line class="st11" x1="70.1" y1="72.1" x2="60.8" y2="61.9"/>
	<line class="st11" x1="75.3" y1="65.7" x2="63.4" y2="58.7"/>
	<line class="st11" x1="78.4" y1="58.1" x2="64.9" y2="54.9"/>
	<line class="st11" x1="79.1" y1="49.9" x2="65.3" y2="50.8"/>
	<line class="st11" x1="77.3" y1="41.9" x2="64.4" y2="46.7"/>
	<line class="st11" x1="73.3" y1="34.7" x2="62.4" y2="43.2"/>
	<line class="st11" x1="67.4" y1="29" x2="59.4" y2="40.3"/>
	<line class="st11" x1="60" y1="25.3" x2="55.7" y2="38.5"/>
</g>
</svg>
