<svg width="24" height="24" viewBox="0 0 24 24" fill="none" xmlns="http://www.w3.org/2000/svg">
<path fill-rule="evenodd" clip-rule="evenodd" d="M10.578 7.95604C10.578 7.0989 11.2835 6.76923 12.452 6.76923C14.1276 6.76923 16.2441 7.27472 17.9197 8.17582V3.01099C16.0898 2.28571 14.2819 2 12.452 2C7.97638 2 5 4.32967 5 8.21978C5 14.2857 13.378 13.3187 13.378 15.9341C13.378 16.9451 12.4961 17.2747 11.2614 17.2747C9.4315 17.2747 7.09449 16.5275 5.24252 15.5165V20.7473C7.29291 21.6264 9.36535 22 11.2614 22C15.8472 22 19 19.7363 19 15.8022C18.978 9.25275 10.578 10.4176 10.578 7.95604Z" fill="currentColor"/>
</svg>
