<svg xmlns="http://www.w3.org/2000/svg" width="24" height="24" fill="none" viewBox="0 0 24 24"><path d="M0 0H24V24H0z"/><g stroke="currentColor" stroke-miterlimit="10" clip-path="url(#clip0)"><path d="M12.0259 1.53125V6.7876M8.94622 1.98833L10.467 7.01614M6.1327 3.35954L9.06028 7.70175M3.81345 5.49256L7.91966 8.76826M2.2546 8.19692L7.12123 10.1395M1.53222 11.2441L6.77905 11.6631M1.76034 14.3674L6.89311 13.2247M2.90095 17.2622L7.46341 14.6721M4.84 19.738L8.41393 15.891M7.38737 21.5283L9.70663 16.8052M10.391 22.4424L11.1894 17.2622M13.5087 22.4805L12.7483 17.2622M16.5123 21.5663L14.2691 16.8052M19.0977 19.8523L15.5618 15.9672M21.0748 17.4146L16.5503 14.7483M22.2534 14.5198L17.1206 13.3009M22.5195 11.3964L17.2727 11.7392M21.8352 8.34927L16.9305 10.1776M20.3144 5.60683L16.1701 8.84444M18.0711 3.43573L15.0295 7.73984M15.2576 2.02641L13.6608 7.05423"/></g><defs><clipPath id="clip0"><path fill="#fff" d="M0 0H21.5V21.5H0z" transform="translate(1 1)"/></clipPath></defs></svg>