<svg xmlns="http://www.w3.org/2000/svg" width="24" height="24" fill="none" viewBox="0 0 24 24"><g clip-path="url(#clip0)"><path d="M0 0H24V24H0z"/><path stroke="currentColor" d="M8.42943 2.79232L1.83273 10.7912M13.425 11.4557L15.7808 21.5527M10.4792 2.79232L3.88254 10.7912M14.6688 9.82634L17.0245 19.9233M12.529 2.83113L5.93235 10.83M15.9433 8.2205L18.2991 18.3175M14.613 2.83113L8.01632 10.83M17.2078 6.56396L19.5635 16.661M16.6255 2.79232L10.0288 10.7912M18.398 4.9407L20.7538 15.0377M18.6753 2.79232L12.0786 10.7912M19.6417 3.31131L21.9975 13.4083"/></g><defs><clipPath id="clip0"><path d="M0 0H24V24H0z"/></clipPath></defs></svg>