<svg width="24" height="24" viewBox="0 0 24 24" fill="none" xmlns="http://www.w3.org/2000/svg">
<rect width="24" height="24"/>
<path d="M7.15868 21.9999H4.15868C3.62824 21.9999 3.11954 21.7892 2.74446 21.4142C2.36939 21.0391 2.15868 20.5304 2.15868 19.9999V12.9999C2.15868 12.4695 2.36939 11.9608 2.74446 11.5857C3.11954 11.2107 3.62824 10.9999 4.15868 10.9999H7.15868M14.1587 8.99994V4.99994C14.1587 4.20429 13.8426 3.44123 13.28 2.87862C12.7174 2.31601 11.9543 1.99994 11.1587 1.99994L7.15868 10.9999V21.9999H18.4387C18.921 22.0054 19.3891 21.8363 19.7566 21.5239C20.1241 21.2115 20.3664 20.7768 20.4387 20.2999L21.8187 11.2999C21.8622 11.0133 21.8429 10.7206 21.762 10.4422C21.6812 10.1638 21.5408 9.90623 21.3505 9.68745C21.1603 9.46867 20.9248 9.29387 20.6602 9.17516C20.3957 9.05644 20.1086 8.99666 19.8187 8.99994H14.1587Z" stroke="currentColor" stroke-linecap="round" stroke-linejoin="round"/>
<path d="M13.798 13.5312V17.125M12.0692 15.2577L15.3225 15.2577" stroke="currentColor" stroke-linecap="round" stroke-linejoin="round"/>
</svg>
