<svg xmlns="http://www.w3.org/2000/svg" width="24" height="24" fill="none" viewBox="0 0 24 24"><g clip-path="url(#clip0)"><path d="M0 0H24V24H0z"/><path stroke="currentColor" stroke-linecap="round" stroke-linejoin="round" d="M9.2439 15.6719H7.35026C7.01545 15.6719 6.69434 15.5389 6.45759 15.3022 6.22084 15.0654 6.08784 14.7443 6.08784 14.4095V9.99099C6.08784 9.65618 6.22084 9.33508 6.45759 9.09832 6.69434 8.86157 7.01545 8.72857 7.35026 8.72857H9.2439M13.6624 7.46614V4.94129C13.6624 4.43906 13.4629 3.95741 13.1078 3.60228 12.7526 3.24715 12.271 3.04765 11.7688 3.04765L9.2439 8.72857V15.6719H16.364C16.6684 15.6754 16.9639 15.5687 17.1959 15.3715 17.4279 15.1743 17.5808 14.8999 17.6264 14.5989L18.4975 8.91793C18.525 8.737 18.5128 8.55226 18.4617 8.37651 18.4107 8.20076 18.3221 8.03821 18.202 7.90011 18.0819 7.76201 17.9332 7.65167 17.7663 7.57674 17.5993 7.50181 17.4181 7.46407 17.2351 7.46614H13.6624zM4.28237 4.53295V7.02804M3.0821 5.73163L5.34079 5.73163M21.0049 3.26149L19.0698 4.83661M19.3175 3.08734L20.7434 4.83907M7.50094 2.08064L8.46859 4.08049M7.00379 3.5069L8.81416 2.63092"/><path stroke="currentColor" stroke-miterlimit="10" d="M22.1314 20.3247C20.0286 18.1825 17.171 17.4459 14.3014 18.0564C12.7617 18.4776 11.225 19.5216 9.69415 19.892C6.76059 20.546 3.94759 19.5559 1.86423 17.6238"/><path stroke="currentColor" stroke-miterlimit="10" d="M22.1314 22.3381C20.0286 20.196 17.171 19.4594 14.3014 20.0698C12.7617 20.491 11.225 21.535 9.69415 21.9055C6.76059 22.5595 3.94759 21.5693 1.86423 19.6372"/></g><defs><clipPath id="clip0"><path d="M0 0H24V24H0z"/></clipPath></defs></svg>