<svg width="120" height="120" viewBox="0 0 120 120" fill="none" xmlns="http://www.w3.org/2000/svg">
<path d="M60 120C93.1371 120 120 93.1371 120 60C120 26.8629 93.1371 0 60 0C26.8629 0 0 26.8629 0 60C0 93.1371 26.8629 120 60 120Z" fill="#DDECEA"/>
<path d="M80.7922 40.7525C93.5051 51.3267 93.6239 68.6732 80.7922 79.2475M86.4952 27.9208C107.763 45.6237 107.763 74.3762 86.4952 92.0792" stroke="#404F54" stroke-linecap="round" stroke-linejoin="round"/>
<path d="M72.8317 49.3069L55.2476 61.9009L72.8317 74.3762V49.3069Z" stroke="#404F54" stroke-linecap="round" stroke-linejoin="round"/>
<path d="M22.5743 44.3168H50.2575C52.9902 44.3168 55.2476 46.5742 55.2476 49.3069V74.3762C55.2476 77.1089 52.9902 79.3663 50.2575 79.3663H22.5743C19.8417 79.3663 17.5842 77.1089 17.5842 74.3762V49.3069C17.5842 46.5742 19.8417 44.3168 22.5743 44.3168Z" stroke="#404F54" stroke-linecap="round" stroke-linejoin="round"/>
</svg>
