<svg width="115" height="115" viewBox="0 0 115 115" fill="none" xmlns="http://www.w3.org/2000/svg">
<path d="M57.5 115C89.2564 115 115 89.2564 115 57.5C115 25.7436 89.2564 0 57.5 0C25.7436 0 0 25.7436 0 57.5C0 89.2564 25.7436 115 57.5 115Z" fill="#DDECEA"/>
<path d="M103.5 11.6096H10.5144V104.595H103.5V11.6096Z" stroke="#404F54" stroke-linecap="round" stroke-linejoin="round"/>
<path d="M32.9666 85.9762V63.6333" stroke="#404F54" stroke-linecap="round" stroke-linejoin="round"/>
<path d="M32.9666 50.9285V28.4761" stroke="#404F54" stroke-linecap="round" stroke-linejoin="round"/>
<path d="M58.5951 85.976V57.2808" stroke="#404F54" stroke-linecap="round" stroke-linejoin="round"/>
<path d="M58.5951 44.4666V28.4761" stroke="#404F54" stroke-linecap="round" stroke-linejoin="round"/>
<path d="M84.1142 85.9762V70.0952" stroke="#404F54" stroke-linecap="round" stroke-linejoin="round"/>
<path d="M84.1142 57.2808V28.4761" stroke="#404F54" stroke-linecap="round" stroke-linejoin="round"/>
<path d="M23.438 63.6333H42.6047" stroke="#404F54" stroke-linecap="round" stroke-linejoin="round"/>
<path d="M48.957 44.4666H68.1237" stroke="#404F54" stroke-linecap="round" stroke-linejoin="round"/>
<path d="M74.5856 70.0952H93.7523" stroke="#404F54" stroke-linecap="round" stroke-linejoin="round"/>
</svg>
