<svg width="103" height="103" viewBox="0 0 103 103" fill="none" xmlns="http://www.w3.org/2000/svg">
<path d="M51.5 103C79.9427 103 103 79.9427 103 51.5C103 23.0573 79.9427 0 51.5 0C23.0573 0 0 23.0573 0 51.5C0 79.9427 23.0573 103 51.5 103Z" fill="#DDECEA"/>
<path d="M69 52.7C62.9 47.8 55.7 46.7 48.8 49.4C45.2 51 41.9 54.3 38.3 55.9C31.4 58.6 24.1 57 18.1 52.6" stroke="#404F54" stroke-miterlimit="10"/>
<path d="M69 58.6C62.9 53.7 55.7 52.6 48.8 55.3C45.2 56.9 41.9 60.2 38.3 61.8C31.4 64.6 24.1 63 18 58.6" stroke="#404F54" stroke-miterlimit="10"/>
<path d="M68.1 64.5C62 59.6 54.8 58.5 47.9 61.2C44.3 62.8 41 66.1 37.4 67.7C30.5 70.4 23.2 68.8 17.2 64.4" stroke="#404F54" stroke-miterlimit="10"/>
<path d="M12.4 12.4H89C94.3 12.4 98.6 16.7 98.6 22V79.4C98.6 84.7 94.3 89 89 89H12.4C7.1 89 2.8 84.7 2.8 79.4V22C2.9 16.7 7.2 12.4 12.4 12.4Z" stroke="#404F54" stroke-linecap="round" stroke-linejoin="round"/>
<path d="M98.5 22L50.7 55.5L2.90001 22" stroke="#404F54" stroke-linecap="round" stroke-linejoin="round"/>
</svg>
