<svg width="101" height="101" viewBox="0 0 101 101" fill="none" xmlns="http://www.w3.org/2000/svg">
<path d="M50.5 101C78.3904 101 101 78.3904 101 50.5C101 22.6096 78.3904 0 50.5 0C22.6096 0 0 22.6096 0 50.5C0 78.3904 22.6096 101 50.5 101Z" fill="#DDECEA"/>
<path d="M63.8 52C59.4 48.4 54.1 47.7 49.2 49.6C46.6 50.8 44.2 53.2 41.6 54.3C36.6 56.3 31.3 55.1 27 51.9" stroke="#404F54" stroke-miterlimit="10"/>
<path d="M63.8 56.2C59.4 52.6 54.1 51.9 49.2 53.8C46.6 55 44.2 57.4 41.6 58.5C36.6 60.5 31.3 59.3 27 56.1" stroke="#404F54" stroke-miterlimit="10"/>
<path d="M63.1 60.5C58.7 56.9 53.4 56.2 48.5 58.1C45.9 59.3 43.5 61.7 40.9 62.8C35.9 64.8 30.6 63.6 26.3 60.4" stroke="#404F54" stroke-miterlimit="10"/>
<path d="M22.8 22.8H78.2C82 22.8 85.1 25.9 85.1 29.7V71.3C85.1 75.1 82 78.2 78.2 78.2H22.8C19 78.2 15.9 75.1 15.9 71.3V29.7C15.9 25.9 19 22.8 22.8 22.8Z" stroke="#404F54" stroke-linecap="round" stroke-linejoin="round"/>
<path d="M85.2 29.7L50.5 54L15.9 29.7" stroke="#404F54" stroke-linecap="round" stroke-linejoin="round"/>
</svg>
