<svg width="117" height="126" viewBox="0 0 117 126" fill="none" xmlns="http://www.w3.org/2000/svg">
<g clip-path="url(#clip0)">
<path d="M53.3 116.4C82.2949 116.4 105.8 92.895 105.8 63.9C105.8 34.9051 82.2949 11.4 53.3 11.4C24.305 11.4 0.799988 34.9051 0.799988 63.9C0.799988 92.895 24.305 116.4 53.3 116.4Z" fill="#DDECEA"/>
<path d="M30.6 21.9L29.1 31.2" stroke="#404F54" stroke-linecap="round" stroke-linejoin="round"/>
<path d="M33.4 27.1L26.3 26" stroke="#404F54" stroke-linecap="round" stroke-linejoin="round"/>
<path d="M42.7 0.5L42.2 9.9" stroke="#404F54" stroke-linecap="round" stroke-linejoin="round"/>
<path d="M46 5.4L38.9 5" stroke="#404F54" stroke-linecap="round" stroke-linejoin="round"/>
<path d="M60.9 16.4L60.5 25.9" stroke="#404F54" stroke-linecap="round" stroke-linejoin="round"/>
<path d="M64.3 21.3L57.1 21" stroke="#404F54" stroke-linecap="round" stroke-linejoin="round"/>
<path d="M93 36.9L91.8 27.5" stroke="#404F54" stroke-linecap="round" stroke-linejoin="round"/>
<path d="M88.9 32.5999L95.9 31.7" stroke="#404F54" stroke-linecap="round" stroke-linejoin="round"/>
<path d="M75.4 86.5C76 84.2 77.1 84.6001 78.5 85.4001C84.4 89.1001 90.3 92.8001 96.2 96.4001C98.4 97.7001 100.7 99.1001 103.1 99.9001C106.6 101 109 98.5 107.9 95.1C107.5 93.8 106.8 92.4 105.8 91.5C103.8 89.7 101.6 88.1 99.3 86.6C87 79 74.7 71.1001 62.2 63.7001C54.4 59.1001 50.8 59.9001 44.3 66.3001C43.4 67.1001 42.6 68.0001 41.7 68.8001C38.8 71.5001 35.2 72.8 31.3 73.1C26.4 73.4 23.1 70.5 23.9 65.6C24.4 62.6 25.9 59.6 27.5 56.8C28.8 54.4 30.9 52.5 32.7 50.1C30.6 49.2 28.9 48.6001 27.2 47.9001C21.5 45.5001 19.2 45.9 16 51.1C10.8 59.5 6.10001 68.1 1.10001 76.6C0.100014 78.4 0.200014 80 1.80001 81.5C2.60001 82.2 3.40001 83.0001 4.10001 83.9001C5.90001 86.1001 7.70001 87.7001 10.4 84.8001C10.8 84.4001 11.7 84.3 12.4 84.1C17.2 83.2 20.2 85.8 22.5 90.2C25.2 86.2 28.6 84 33.1 86.2C37.1 88.2 39.5 91.4 38.3 96.1C45.4 97.9 46.2 99 47.1 107.5C50.6 107.8 53.3 109.2 54.8 112.7C56.4 116.3 54.5 119.3 52.9 122.2C59.3 125.6 63.6 126.3 69.3 124.4C71.1 123.8 72.6 122.1 74.2 120.9C72.9 119.3 71.8 117.6 70.3 116.3C69.4 115.5 68 115.2 66.8 114.6C65.1 113.9 63.3 113.2 61.6 112.4C61.5 112.1 61.5 111.8 61.4 111.4C62.1 111.1 63.1 110.4 63.6 110.7C67 112.1 70.4 113.7 73.7 115.3C75.1 115.9 76.3 116.9 77.7 117.4C81.1 118.5 85.1 116.9 86.2 114.1C87.2 111.6 86 109.7 82.3 107.6C82 107.4 81.6 107.2 81.2 107C77.3 104.7 73.3 102.5 69.5 100.2C68.9 99.8 68.6 98.9 68.2 98.2C69.1 98.2 70.1 97.8 70.8 98.2C72.9 99.2 74.8 100.4 76.9 101.6C81.2 104 85.4 106.6 89.8 108.8C92.7 110.2 95.9 108.9 97.3 106.3C98.7 103.8 97.7 100.6 95 98.7C94 98 93.2 97.5 92.3 97C86.7 93.5 81 90 75.4 86.5Z" stroke="#404F54" stroke-linecap="round" stroke-linejoin="round"/>
<path d="M62.5 42.8C58.1 43.2 53.6 43.2 49.3 44.1C38.3 46.2 31.5 53.7 26.9 63.3C26.1 64.9 26.2 68 27.3 69C28.6 70.2 31.3 70.4 33.3 70.2C37.7 69.7 40.5 66.5 43.4 63.5C47.2 59.4 51.8 57.7 57.3 59C59.4 59.5 61.6 60.3 63.4 61.5C76.2 69.3 88.9 77.3001 101.5 85.3001C105.4 87.8001 105.6 87.9 109.4 85.2C109.8 84.9 110.2 84.6001 110.6 84.3001C117.2 79.7001 117.4 79.4 113.8 72C110.1 64.5 106.1 57.2 102.3 49.8C100.3 46 99.7 45.9001 95.4 46.7001C93.1 47.1001 90.5 47.4 88.4 46.8C79.9 44.3 71.3 42.9 62.5 42.8Z" stroke="#404F54" stroke-linecap="round" stroke-linejoin="round"/>
<path d="M36.6 92.7001C34.8 91.2001 33.3 89.2001 31.3 88.3001C30.1 87.8001 27.5 88.4001 26.6 89.5001C22.9 93.7001 19.4 98.2001 16.1 102.7C14.1 105.4 14.7 107.6 17.7 109.9C20.5 111.9 22.8 111.8 24.8 109.3C28.1 105.2 31.4 100.9 34.6 96.7001C35.4 95.7001 35.7 94.6001 36.6 92.7001Z" stroke="#404F54" stroke-linecap="round" stroke-linejoin="round"/>
<path d="M38.1 98.9C37.5 99.3 35.9 99.7 35 100.8C32.2 104 29.6 107.3 27.1 110.7C25.2 113.3 25.6 115.9 28.1 117.9C30.4 119.8 33.3 119.9 35.4 117.6C38.3 114.3 41.1 110.9 43.6 107.2C45.9 103.6 43.1 98.9 38.1 98.9Z" stroke="#404F54" stroke-linecap="round" stroke-linejoin="round"/>
<path d="M44.6 124.7C47.2 124.7 49.8 122.5 52.1 118.4C53.5 115.9 53 113.3 50.8 111.4C48.8 109.7 45.9 109.6 44 111.5C42.3 113.2 40.7 115.1 39.6 117.2C37.7 120.7 40.6 124.8 44.6 124.7Z" stroke="#404F54" stroke-linecap="round" stroke-linejoin="round"/>
<path d="M13.8 85.3C11.7 87.3 9.9 88.7 8.50001 90.5C6.00001 93.5 6.10001 95.9 8.60001 98.1C11.5 100.7 14 100.6 16.7 97.7C17.5 96.8 18.6 95.9 18.8 94.8C19.2 93.1 19.7 90.9 19 89.6C18.1 88 15.9 87 13.8 85.3Z" stroke="#404F54" stroke-linecap="round" stroke-linejoin="round"/>
<path d="M36.6 92.7001C35.7 94.5001 35.4 95.7001 34.7 96.6001C31.5 100.8 28.2 105.1 24.9 109.2C22.8 111.7 20.5 111.9 17.8 109.8C14.8 107.6 14.2 105.3 16.2 102.6C19.6 98.1001 23 93.6001 26.7 89.4001C27.6 88.4001 30.2 87.7001 31.4 88.2001C33.3 89.2001 34.8 91.2001 36.6 92.7001Z" stroke="#404F54" stroke-linecap="round" stroke-linejoin="round"/>
<path d="M38.1 98.9C43.1 98.9 45.9 103.6 43.5 107.1C41.1 110.8 38.2 114.2 35.3 117.5C33.2 119.8 30.3 119.8 28 117.8C25.6 115.8 25.1 113.2 27 110.6C29.5 107.2 32.1 103.9 34.9 100.7C35.9 99.7 37.5 99.3 38.1 98.9Z" stroke="#404F54" stroke-linecap="round" stroke-linejoin="round"/>
<path d="M44.6 124.7C40.7 124.8 37.7 120.6 39.6 117.2C40.7 115.1 42.3 113.2 44 111.5C46 109.5 48.8 109.7 50.8 111.4C53 113.3 53.5 115.9 52.1 118.4C49.8 122.5 47.1 124.7 44.6 124.7Z" stroke="#404F54" stroke-linecap="round" stroke-linejoin="round"/>
<path d="M13.8 85.3C16 87 18.1 87.9 19 89.5C19.7 90.8 19.2 93 18.8 94.7C18.5 95.8 17.5 96.7 16.7 97.6C14 100.5 11.5 100.6 8.60002 98C6.10002 95.8 5.90002 93.3 8.50002 90.4C9.90002 88.8 11.7 87.3 13.8 85.3Z" stroke="#404F54" stroke-linecap="round" stroke-linejoin="round"/>
</g>
<defs>
<clipPath id="clip0">
<rect width="116.7" height="125.9" fill="white"/>
</clipPath>
</defs>
</svg>
