<svg width="98" height="37" viewBox="0 0 98 37" fill="none" xmlns="http://www.w3.org/2000/svg">
<path d="M0 30.6406L1.16041 29.169C3.16476 32.4275 6.7515 34.6875 10.4965 34.6875C15.7183 34.6875 19.3578 30.588 19.3578 24.8068V0.210205H21.2567V24.8068C21.2567 31.6917 16.826 36.5795 10.4965 36.5795C6.22403 36.5795 2.21533 34.1094 0 30.6406Z" fill="#404F54"/>
<path d="M28.2719 22.4944C28.2719 14.8211 34.6542 8.40918 42.2496 8.40918C49.845 8.40918 56.1746 14.8211 56.1746 22.4418C56.1746 30.0626 49.7923 36.5796 42.2496 36.5796C34.6542 36.5796 28.2719 30.1151 28.2719 22.4944ZM54.3285 22.4944C54.3285 15.8722 48.7901 10.3012 42.2496 10.3012C35.6564 10.3012 30.118 15.8722 30.118 22.4944C30.118 29.1691 35.6564 34.7401 42.2496 34.7401C48.7901 34.6876 54.3285 29.1166 54.3285 22.4944Z" fill="#404F54"/>
<path d="M61.9766 1.5767C61.9766 0.735795 62.6623 0 63.559 0C64.4029 0 65.1414 0.735795 65.1414 1.5767C65.1414 2.47017 64.4029 3.15341 63.559 3.15341C62.6623 3.10085 61.9766 2.47017 61.9766 1.5767ZM62.6096 9.03977H64.5084V35.9489H62.6096V9.03977Z" fill="#404F54"/>
<path d="M94.1517 31.0085L95.4703 32.4276C93.2023 34.8977 88.5079 36.5796 84.1827 36.5796C76.9565 36.5796 70.9434 30.1151 70.9434 22.4418C70.9434 14.6108 76.7982 8.46167 84.1827 8.46167C91.9364 8.46167 97.0527 14.4531 97.0527 23.3878H72.895C73.317 29.6421 78.3806 34.7401 84.2354 34.7401C88.0331 34.6875 91.8836 33.4787 94.1517 31.0085ZM72.8423 21.4958H95.1539C94.8374 14.7685 90.565 10.3012 84.1827 10.3012C78.1169 10.3012 73.2643 15.1889 72.8423 21.4958Z" fill="#404F54"/>
<path d="M56.8602 22.1266C56.8602 22.2843 56.8602 22.4419 56.8602 22.5996C56.8602 22.4945 56.8602 22.4419 56.8602 22.4945C56.8602 22.2843 56.8602 22.074 56.8602 21.8638C56.8602 21.8638 56.8602 21.8638 56.8602 21.9164V21.7587V21.8638C56.8602 21.9164 56.8602 21.8113 56.8602 21.7587C56.8602 21.601 56.8602 21.5485 56.8602 21.4434C56.8602 21.3382 56.8602 21.2331 56.8075 21.0755C56.8075 20.9703 56.8602 21.9689 56.8075 21.4434V21.2857C56.7547 21.0229 56.7547 20.7076 56.702 20.4973C56.6492 20.2346 56.5437 19.7615 56.5965 19.709C56.5437 19.6039 56.5437 19.4462 56.491 19.3411C56.4382 19.236 56.4382 19.0783 56.3855 18.9732C56.3328 18.7104 56.2273 18.4476 56.1218 18.1848C56.069 18.0272 56.0163 17.9221 55.9635 17.7644C55.9108 17.6067 55.858 17.5016 55.8053 17.3965C55.8053 17.3439 55.7525 17.2914 55.7525 17.1863C55.7525 17.1337 55.6998 17.0811 55.6998 16.976C55.6471 16.8709 55.5943 16.7132 55.5416 16.6081C55.4361 16.4505 55.4361 16.4505 55.2251 16.0826C55.1723 16.03 55.1196 15.8723 55.1723 15.9249C55.1196 15.8198 55.0668 15.7672 55.0141 15.6621C55.0668 15.7147 55.1196 15.8198 55.1723 15.8723C55.2251 15.9249 55.2251 16.03 55.2778 16.03C55.0668 15.6096 55.3833 16.2402 55.3306 16.1877L55.1723 15.9249C55.1196 15.8198 55.0668 15.7147 55.0141 15.6621L55.0668 15.7147C55.1196 15.7672 55.1196 15.8198 55.1723 15.9249L55.2778 16.1351L55.4888 16.503L55.6471 16.8709L55.7525 17.0811C55.8053 17.1337 55.8053 17.2388 55.8053 17.2914L55.9635 17.7118C56.0163 17.8695 56.069 17.9746 56.1218 18.1323L56.1745 18.3425L56.2273 18.4476L56.28 18.5527L56.3855 18.9732V19.0257V19.0783C56.3855 19.1309 56.4382 19.1834 56.4382 19.236C56.491 19.3411 56.491 19.4462 56.5437 19.6039C56.5437 19.709 56.5965 19.7615 56.5965 19.8667C56.5965 19.9718 56.6492 20.0769 56.6492 20.182C56.6492 20.182 56.6492 20.1294 56.702 20.2871C56.7547 20.4973 56.7547 20.6025 56.7547 20.655C56.7547 20.7601 56.7547 20.7601 56.7547 20.8127C56.7547 20.8652 56.7547 20.9178 56.8075 21.1806C56.8075 21.0229 56.7547 20.8127 56.7547 20.7076L56.8075 20.9704V21.128V21.2857L56.8602 21.8113C56.8602 21.6536 56.8602 21.5485 56.8602 21.7061C56.8602 21.6536 56.8602 21.7061 56.913 21.8113C56.8602 21.9164 56.8602 22.0215 56.8602 22.1266C56.8602 22.0215 56.8602 21.9164 56.8075 21.8638C56.8075 21.8113 56.8075 21.7587 56.8075 21.7061C56.8075 21.7061 56.8075 21.7587 56.8075 21.8638C56.8602 21.9164 56.8602 22.0215 56.8602 22.1266Z" fill="#404F54"/>
<path d="M46.1001 8.6718C45.8363 8.61924 45.8891 8.6718 46.1001 8.6718C46.2583 8.72435 46.5748 8.77691 46.7858 8.82947C46.8913 8.82947 46.944 8.88202 47.0495 8.88202C46.8385 8.82947 46.6803 8.77691 46.522 8.72435C46.3638 8.72435 46.2583 8.72435 46.1001 8.6718Z" fill="#404F54"/>
<path d="M57.4404 22.1264C57.4404 22.0739 57.4404 21.9688 57.4404 21.8636C57.4404 21.7585 57.4404 21.6534 57.4404 21.5483L57.3877 21.3906V21.1804C57.3877 21.1278 57.3877 21.0227 57.3877 20.9702L57.3349 20.5497C57.3349 20.392 57.2822 20.2869 57.2822 20.1293C57.2822 19.9716 57.2295 19.8665 57.2295 19.7088C57.2295 19.446 57.3877 20.4972 57.3877 20.4972C57.3877 20.5497 57.3877 20.4972 57.3877 20.392C57.3877 20.2869 57.3349 20.1293 57.3349 19.919C57.2822 19.7088 57.2295 19.4986 57.2295 19.2884C57.1767 19.0781 57.124 18.8679 57.0712 18.7102C56.9657 18.3949 57.0185 18.5 57.0712 18.7102C57.0712 18.7628 57.124 18.8153 57.124 18.9205C57.124 18.973 57.1767 19.0781 57.1767 19.1307C57.2295 19.2884 57.2295 19.446 57.2822 19.5511L57.1767 19.0781C57.124 18.9205 57.0712 18.7628 57.0185 18.6051C56.9657 18.3423 56.8075 17.9744 56.8602 17.9744C56.8075 17.8168 56.8602 17.8168 56.8602 17.8168V17.7642C56.8602 17.7116 56.8075 17.6591 56.7547 17.5014C56.5965 17.1335 56.5438 16.9759 56.491 16.8707C56.4383 16.7656 56.4383 16.7656 56.4383 16.7656C56.4383 16.7656 56.4383 16.7656 56.3855 16.7131C56.3855 16.6605 56.3328 16.6605 56.3328 16.5554C56.3328 16.5028 56.28 16.4503 56.28 16.3977C56.28 16.3452 56.2273 16.2926 56.1745 16.1875C56.2273 16.3452 56.491 16.9233 56.702 17.554C56.913 18.1847 57.124 18.8153 57.1767 19.1832L57.2295 19.446C57.2295 19.5511 57.2822 19.6037 57.2822 19.7088C57.2822 19.8139 57.2295 19.6037 57.2295 19.446C57.1767 19.2884 57.1767 19.2358 57.2822 19.6563C57.124 18.973 56.913 18.1321 56.6493 17.3963C56.5965 17.2912 56.5965 17.1861 56.5438 17.1335C56.5438 17.081 56.491 17.0284 56.491 16.9759C56.491 16.9233 56.4383 16.8707 56.4383 16.8182C56.3855 16.6605 56.28 16.4503 56.2273 16.2926C56.069 15.9773 55.9636 15.6619 55.8053 15.4517C55.8053 15.4517 55.6998 15.1889 55.5943 15.0313C55.5416 14.9787 55.5416 14.9261 55.5416 14.9261L55.5943 14.9787C55.5943 14.9787 55.6471 15.0313 55.6471 15.0838C55.6471 15.1364 55.6998 15.1364 55.6998 15.1889C55.6471 15.1364 55.6471 15.0838 55.5943 15.0313C55.5416 14.9787 55.5416 14.9261 55.4888 14.9261C55.4361 14.821 55.3833 14.7685 55.3306 14.6634C55.2251 14.5057 55.1196 14.2955 54.9086 14.0327C54.8559 13.9801 54.8559 13.9276 54.8031 13.9276C54.7504 13.875 54.7504 13.8224 54.6976 13.8224C54.6449 13.7173 54.5922 13.6648 54.4867 13.6122C54.3812 13.4545 54.2229 13.3494 54.1174 13.1918C53.9065 12.929 53.6955 12.7188 53.4845 12.456C53.379 12.3509 53.2735 12.2457 53.168 12.1406C53.0625 12.0355 52.957 11.9304 52.7988 11.8253C52.6933 11.7202 52.5351 11.6151 52.4296 11.5099C52.2713 11.4048 52.1658 11.2997 52.0076 11.142C52.1658 11.2997 51.9021 11.0895 51.8494 11.0895C51.6384 10.9318 51.4801 10.8267 51.3746 10.7216C51.2692 10.6165 51.2164 10.6165 51.1637 10.5639C51.1109 10.5114 51.1637 10.5114 51.1637 10.5114C51.2164 10.5114 51.2164 10.5114 51.0582 10.4062C50.8999 10.3011 50.5835 10.0909 49.8978 9.72301C49.7923 9.67045 49.6868 9.6179 49.5813 9.56534C49.4758 9.51278 49.423 9.51278 49.3703 9.46023C49.3175 9.46023 49.2648 9.40767 49.2648 9.40767C49.1066 9.35511 49.0011 9.30256 49.3175 9.40767C48.8428 9.19744 48.5791 9.09233 48.4736 9.03977C48.3154 8.98722 48.3154 8.98722 48.3681 8.98722C48.3681 8.98722 48.4209 9.03977 48.3681 8.98722C48.3681 8.98722 48.3154 8.98722 48.2626 8.93466C48.2099 8.93466 48.1044 8.8821 47.9462 8.82955C48.0516 8.8821 48.2099 8.8821 48.3154 8.93466L48.6846 9.09233L48.8428 9.14489C48.8956 9.14489 48.9483 9.19744 49.0011 9.19744L49.2648 9.30256C49.2648 9.30256 49.2648 9.30256 49.3175 9.30256C49.423 9.35511 49.4758 9.40767 49.5813 9.40767C49.6868 9.46023 49.7395 9.51278 49.845 9.56534C49.9505 9.6179 50.056 9.67045 50.1615 9.72301C50.267 9.77557 50.3725 9.88068 50.5307 9.93324C50.5307 9.93324 50.5835 9.9858 50.6362 9.9858C50.6889 9.9858 50.6889 10.0384 50.7417 10.0384C50.7944 10.0909 50.8472 10.0909 50.8472 10.0909C51.0054 10.196 51.0582 10.2486 50.7944 10.0909C50.7417 10.0909 50.7417 10.0384 50.6889 10.0384C50.6362 10.0384 50.6362 9.9858 50.5835 9.9858C50.5307 9.93324 50.4252 9.88068 50.3725 9.88068C50.3197 9.82812 50.267 9.82813 50.1615 9.77557C50.1087 9.77557 50.1087 9.72301 50.056 9.72301C50.0032 9.72301 50.0032 9.67045 49.9505 9.67045C49.845 9.6179 49.6868 9.56534 49.5813 9.51278C49.5285 9.46023 49.4758 9.46023 49.423 9.40767C49.3703 9.40767 49.3175 9.35511 49.2648 9.35511C49.1593 9.30256 49.0538 9.25 48.9483 9.19744C48.8956 9.19744 48.8428 9.14489 48.7901 9.14489C48.7373 9.14489 48.6846 9.09233 48.6318 9.09233C48.4209 8.98722 48.1571 8.93466 47.8934 8.82955L47.5242 8.72443C47.4187 8.67188 47.2605 8.67188 47.1022 8.61932C46.944 8.56676 46.733 8.5142 46.5748 8.46165C46.4693 8.46165 46.3638 8.40909 46.311 8.40909C46.2055 8.40909 46.1 8.35653 46.0473 8.35653C45.8891 8.30398 45.6781 8.30398 45.5726 8.25142C45.4671 8.25142 45.4143 8.19886 45.3088 8.19886C45.2561 8.19886 45.1506 8.14631 45.0979 8.14631C45.2034 8.14631 45.3088 8.14631 45.4143 8.19886C45.5726 8.19886 45.6781 8.25142 45.7308 8.25142C45.6253 8.25142 45.5198 8.19886 45.3616 8.19886L44.9924 8.14631C44.8869 8.14631 44.7814 8.09375 44.6231 8.09375L44.3067 8.40909C44.2539 8.40909 44.2012 8.40909 44.1484 8.40909C44.1484 8.40909 44.1484 8.40909 44.0957 8.40909C43.9902 8.40909 43.832 8.40909 43.7265 8.35653C43.621 8.35653 43.4627 8.35653 43.3045 8.35653C43.1463 8.35653 43.0408 8.35653 42.8825 8.35653C42.8298 8.35653 42.7243 8.35653 42.6715 8.35653C42.6188 8.35653 42.5133 8.35653 42.4606 8.35653C42.3023 8.35653 42.1441 8.35653 41.9858 8.35653C41.8276 8.35653 41.6694 8.35653 41.4584 8.40909C41.4056 8.40909 41.3001 8.40909 41.2474 8.40909C41.1947 8.40909 41.0892 8.40909 41.0364 8.46165C40.8782 8.46165 40.7199 8.51421 40.5617 8.51421C40.4035 8.56676 40.2452 8.56676 40.087 8.61932C39.9815 8.61932 39.9288 8.67188 39.8233 8.67188C39.7705 8.67188 39.665 8.72443 39.6123 8.72443C39.454 8.77699 39.2958 8.77699 39.1376 8.82955C38.9793 8.8821 38.8211 8.93466 38.6628 8.98722C38.5046 9.03977 38.3464 9.09233 38.1881 9.14489C38.1354 9.19744 38.0299 9.19744 37.9244 9.25L37.8189 9.30256L37.7134 9.35511C37.5552 9.40767 37.3969 9.46023 37.2387 9.56534C37.0805 9.6179 36.9222 9.72301 36.764 9.77557C36.7112 9.82813 36.6058 9.82812 36.553 9.88068C36.5003 9.93324 36.3948 9.93324 36.342 9.9858C36.2893 10.0384 36.1838 10.0384 36.131 10.0909C36.0783 10.1435 35.9728 10.1435 35.9201 10.196C35.7618 10.3011 35.6036 10.3537 35.4453 10.4588C35.2871 10.5639 35.1289 10.669 35.0234 10.7216C34.9706 10.7741 34.8651 10.8267 34.8124 10.8793C34.7596 10.9318 34.6541 10.9844 34.6014 11.0369C34.5487 11.0895 34.4432 11.142 34.3904 11.1946L34.2849 11.2472L34.1794 11.3523C34.0212 11.4574 33.9157 11.5625 33.7575 11.6676C33.5992 11.7727 33.4937 11.8778 33.3355 12.0355C33.1773 12.1406 33.0718 12.2983 32.9135 12.4034L32.7025 12.6136C32.6498 12.6662 32.5971 12.7188 32.4916 12.8239L32.2806 13.0341C32.2278 13.0866 32.1751 13.1918 32.0696 13.2443C31.9641 13.402 31.8059 13.5071 31.7004 13.6648C31.4894 13.9276 31.2257 14.2429 31.0147 14.5582L30.8564 14.7685L30.6982 14.9787L30.54 15.1889L30.4872 15.294L30.4345 15.3991C30.329 15.5568 30.2235 15.7145 30.1707 15.8722C30.0652 16.0298 30.0125 16.1875 29.907 16.3977C29.5905 17.081 29.274 17.7642 29.0631 18.5C29.0103 18.7102 28.9576 18.8679 28.9048 19.0781C28.8521 19.2884 28.7993 19.446 28.7466 19.6563L28.6938 19.8139C28.6938 19.8665 28.6938 19.919 28.6411 19.9716L28.5884 20.2344L28.5356 20.4972L28.4829 20.7599V20.9702V21.1278V21.2855C28.4829 21.4957 28.4301 21.6534 28.4301 21.8636C28.4301 22.0739 28.4301 22.2315 28.4301 22.4418V22.5994V22.7571V23.0724V23.3878V23.7031V24.0185V24.1761V24.3338C28.4301 24.544 28.4829 24.7017 28.4829 24.9119L28.5884 25.4901C28.7466 26.2784 28.9576 27.0142 29.2213 27.75C29.485 28.4858 29.8543 29.2216 30.2235 29.9048C30.6454 30.5881 31.0674 31.2187 31.5949 31.8494C32.1223 32.4276 32.6498 33.0057 33.23 33.5313C33.8102 34.0568 34.4432 34.5298 35.1289 34.8977L34.8651 34.6875C35.5508 35.108 36.342 35.5284 37.1332 35.8437C37.9244 36.1591 38.7683 36.4219 39.665 36.5795C39.7178 36.5795 39.7705 36.5795 39.8233 36.6321C39.9288 36.6847 40.0342 36.6847 40.1925 36.7372C40.4035 36.7898 40.6145 36.8423 40.7727 36.8423C40.8782 36.8423 40.9309 36.8949 41.0364 36.8949C41.0892 36.8949 41.1947 36.8949 41.2474 36.9474C41.4584 36.9474 41.6694 37 41.8804 37C42.0913 37 42.2496 37 42.4078 37C42.4606 37 42.5133 37 42.5661 37C42.6188 37 42.6188 37 42.6715 37C42.7243 37 42.6715 37 42.5133 37C42.3551 37 42.2496 37 42.0913 36.9474C41.9858 36.9474 41.8276 36.9474 41.7221 36.8949C41.6166 36.8949 41.4584 36.8423 41.3529 36.8423C41.2474 36.8423 41.0892 36.8423 40.9837 36.7898C40.8782 36.7898 40.7199 36.7372 40.6145 36.7372C40.509 36.7372 40.3507 36.6847 40.2452 36.6847C40.2452 36.6847 40.2452 36.6847 40.1925 36.6847C40.8782 36.7898 41.5639 36.8423 42.2496 36.8949C42.3023 36.8949 42.3551 36.8949 42.4078 36.8949C42.4606 36.8949 42.5133 36.8949 42.5661 36.8949C42.6715 36.8949 42.7243 36.8949 42.8298 36.8949C42.988 36.8949 43.1463 36.8949 43.3045 36.8949C43.4627 36.8949 43.5682 36.8949 43.7265 36.8949C43.9902 36.8949 43.9902 36.8949 44.3067 36.8949C44.4649 36.8949 44.6231 36.8423 44.7814 36.8423C44.9924 36.8423 45.1506 36.7898 45.3616 36.7898C45.4143 36.7898 45.4671 36.7898 45.5198 36.7898C45.5726 36.7898 45.6253 36.7898 45.6781 36.7372C45.7836 36.7372 45.8891 36.6847 45.9945 36.6847C46.1 36.6847 46.1528 36.6321 46.2583 36.6321C46.3638 36.6321 46.4165 36.5795 46.4693 36.5795C46.6275 36.527 46.7857 36.527 46.8912 36.4744C46.9967 36.4744 47.0495 36.4219 47.155 36.4219C47.3132 36.3693 47.4187 36.3693 47.6297 36.3168C48.3681 36.1065 49.1593 35.7912 49.9505 35.3707C50.7417 35.0028 51.4801 34.5298 52.0603 34.0568C52.2186 33.9517 52.3768 33.8466 52.5878 33.6889C52.6933 33.5838 52.7988 33.5312 52.9043 33.4261C53.0098 33.321 53.1153 33.2685 53.2208 33.1634C53.3262 33.0582 53.4317 32.9531 53.5372 32.848L53.59 32.7955L53.6427 32.7429C53.6955 32.6903 53.7482 32.6378 53.801 32.5852C53.9065 32.4801 54.0119 32.375 54.0647 32.3224C54.1702 32.2173 54.2229 32.1648 54.3284 32.0597C54.9086 31.429 55.3833 30.7457 55.7526 30.1151C56.1218 29.4844 56.3328 29.0114 56.3855 28.8011V28.8537C56.3855 28.9062 56.3328 28.9588 56.3328 28.9588C56.3328 28.9588 56.3328 29.0114 56.3328 28.9588C56.3328 28.9588 56.3855 28.9062 56.3855 28.8537C56.3855 28.8011 56.4383 28.7486 56.491 28.6435C56.5438 28.5909 56.5438 28.4858 56.5965 28.3807C56.5965 28.3281 56.6493 28.3281 56.6493 28.2756V28.223C56.6493 28.1705 56.702 28.1179 56.7547 27.9602C56.8075 27.8026 56.8602 27.6449 56.9657 27.4872C57.0185 27.3295 57.0712 27.1193 57.124 26.9616C57.1767 26.8565 57.1767 26.804 57.1767 26.7514C57.1767 26.6989 57.2295 26.5938 57.2295 26.5412C57.2822 26.3835 57.2822 26.331 57.2822 26.3835C57.1767 26.7514 57.124 26.8565 57.124 26.6989C57.124 26.6463 57.1767 26.5412 57.1767 26.3835C57.1767 26.331 57.2295 26.2259 57.2295 26.1207C57.2295 26.0156 57.2822 25.9105 57.2822 25.8054C57.2822 25.7003 57.3349 25.5952 57.3349 25.4901C57.3349 25.3849 57.3877 25.2798 57.3877 25.1222C57.3877 25.017 57.4404 24.8594 57.4404 24.7543C57.4404 24.6491 57.4404 24.4915 57.4932 24.3864C57.4932 24.2813 57.4932 24.1236 57.5459 24.0185C57.5459 23.9134 57.5459 23.8082 57.5459 23.7031C57.5459 23.4929 57.5459 23.2827 57.5459 23.125C57.5459 22.9148 57.5459 22.7571 57.5459 22.5469C57.5459 23.2301 57.4932 23.9659 57.3349 24.8594C57.3877 24.7017 57.3349 25.017 57.2822 25.2273C57.2822 25.2798 57.2822 25.3324 57.2822 25.3849C57.2822 25.4375 57.2822 25.4375 57.2822 25.4901C57.2822 25.4375 57.2822 25.3849 57.3349 25.3324C57.3349 25.1747 57.3877 25.0696 57.3877 24.9119C57.4404 24.7543 57.4404 24.5966 57.4932 24.4389C57.4932 24.2812 57.5459 24.1236 57.5459 23.9659C57.5459 24.1761 57.4932 24.4389 57.4404 24.7543C57.3877 24.9119 57.3877 25.0696 57.3349 25.2273C57.3349 25.3324 57.2822 25.3849 57.2822 25.4901C57.2822 25.5952 57.2295 25.6477 57.2295 25.7528C57.1767 25.9105 57.1767 26.0682 57.124 26.2259C57.0712 26.3835 57.0185 26.4886 57.0185 26.6463C56.9657 26.9091 56.8602 27.1193 56.8602 27.2244C56.8075 27.3295 56.8075 27.4347 56.7547 27.5398C56.702 27.6449 56.702 27.6974 56.6493 27.8026C56.5965 27.9602 56.5438 28.0653 56.491 28.223C56.4383 28.3281 56.3855 28.4332 56.3328 28.5384C56.28 28.5909 56.28 28.6435 56.2273 28.696C56.2273 28.7486 56.1745 28.7486 56.1745 28.8011C56.1745 28.8537 56.1218 28.8537 56.1218 28.9062C55.8053 29.5895 55.3833 30.2727 54.9086 30.9034C54.8559 31.0085 54.8031 31.0611 54.7504 31.1136C54.6976 31.1662 54.6449 31.2713 54.5922 31.3239C54.4867 31.4815 54.3812 31.6392 54.2229 31.7443C54.1174 31.902 54.0119 32.0071 53.9065 32.1648C53.801 32.2699 53.6955 32.4276 53.59 32.5327C53.4845 32.6903 53.3262 32.7955 53.2208 32.9006C53.1153 33.0057 53.0098 33.1108 52.9043 33.1634C52.8515 33.2159 52.746 33.2685 52.6933 33.321C52.746 33.2685 52.746 33.2685 52.7988 33.2159C52.8515 33.1634 52.957 33.0582 53.0098 33.0057C53.0625 32.9531 53.1153 32.9006 53.1153 32.9006C53.168 32.848 53.2208 32.7955 53.2735 32.7429L53.379 32.5852C53.4317 32.5327 53.4845 32.4801 53.5372 32.4276L53.59 32.3224L53.6427 32.2173C53.7482 32.1122 53.8537 32.0071 53.9592 31.8494L54.0119 31.7443L54.0647 31.6392C54.1174 31.5866 54.1702 31.5341 54.2229 31.429C54.3284 31.3239 54.4339 31.1662 54.5394 31.0611C54.6449 30.9034 54.7504 30.7983 54.8031 30.6406C54.9086 30.483 54.9614 30.3778 55.0669 30.2202C55.1196 30.1676 55.1724 30.0625 55.2251 30.0099L55.3306 29.7997C55.4361 29.642 55.4888 29.4844 55.5943 29.3793C55.6471 29.2216 55.7526 29.0639 55.8053 28.9062L55.8581 28.8011L55.9108 28.696C55.9636 28.6435 55.9635 28.5384 56.0163 28.4858C56.1745 28.1705 56.28 27.8551 56.3855 27.5398C56.4383 27.3821 56.491 27.2244 56.5438 27.0668C56.5438 27.0142 56.5965 26.9091 56.5965 26.8565C56.5965 26.804 56.6493 26.6989 56.6493 26.6463C56.702 26.4886 56.7547 26.331 56.7547 26.1733C56.8075 26.0156 56.8075 25.858 56.8602 25.7528C56.8602 25.7003 56.8602 25.5952 56.913 25.5426C56.913 25.4375 56.9657 25.3324 56.9657 25.2273C56.9657 25.1222 57.0185 25.017 57.0185 24.8594C57.0185 24.8068 57.0185 24.8068 57.0185 24.7543C57.0185 24.7017 57.0185 24.7017 57.0185 24.6491C57.0185 24.5966 57.0185 24.4915 57.0712 24.4389C57.0712 24.2812 57.124 24.1761 57.124 24.0185C57.124 23.8608 57.124 23.7031 57.1767 23.5455C57.1767 23.4403 57.1767 23.3878 57.1767 23.2827C57.1767 23.1776 57.1767 23.125 57.1767 23.0199C57.1767 22.8622 57.1767 22.7045 57.1767 22.4943L57.124 23.0724C57.124 23.125 57.124 23.1776 57.124 23.2301C57.124 23.2827 57.124 23.3352 57.124 23.3878C57.124 23.4929 57.124 23.598 57.0712 23.7031C57.0712 23.9134 57.0185 24.1761 56.9657 24.4915C56.9657 24.544 56.9657 24.6491 56.913 24.7017C56.913 24.7543 56.8602 24.8594 56.8602 24.9119C56.8075 25.0696 56.8075 25.2273 56.7547 25.3324C56.702 25.4901 56.702 25.6477 56.6493 25.8054C56.6493 25.858 56.5965 25.9631 56.5965 26.0156C56.5965 26.1207 56.5438 26.1733 56.5438 26.2259C56.491 26.3835 56.4383 26.5412 56.3855 26.6989C56.3328 26.8565 56.28 27.0142 56.2273 27.1719C56.1745 27.3295 56.1218 27.4872 56.069 27.6449C56.0163 27.6974 56.0163 27.8026 55.9635 27.8551L55.9108 27.9602L55.8581 28.0653C55.8053 28.223 55.6998 28.3807 55.6471 28.5384C55.5943 28.696 55.4888 28.8537 55.4361 28.9588C55.3833 29.0114 55.3833 29.1165 55.3306 29.169C55.2779 29.2216 55.2778 29.3267 55.2251 29.3793C55.1724 29.5369 55.0669 29.642 55.0141 29.7472V29.642C55.2779 29.2216 55.3833 28.9062 55.6998 28.3807L55.7526 28.223C55.6998 28.2756 55.6998 28.3281 55.6471 28.4332C55.5943 28.4858 55.5943 28.5909 55.5416 28.6435C55.4361 28.8011 55.3306 29.0114 55.2251 29.169C55.1196 29.3793 55.0141 29.5895 54.8559 29.7997C54.8031 29.9048 54.6976 30.0099 54.6449 30.1151C54.5922 30.2202 54.4867 30.3253 54.4339 30.4304C54.2757 30.6406 54.1702 30.8509 54.0119 31.0611C53.8537 31.2713 53.7482 31.429 53.59 31.5866C53.5372 31.6918 53.4317 31.7443 53.379 31.8494C53.3262 31.902 53.3262 31.902 53.2735 31.9545C53.2208 32.0071 53.2208 32.0071 53.168 32.0597C53.0625 32.1648 52.957 32.2699 52.9043 32.375C52.8515 32.4801 52.746 32.5327 52.6933 32.5852C52.6406 32.6378 52.5878 32.6903 52.5351 32.6903C52.4823 32.7429 52.4296 32.7955 52.4296 32.7429C52.4296 32.7429 52.5351 32.5852 52.6933 32.4276C52.957 32.1122 53.3262 31.7443 53.0098 32.0597C53.168 31.902 53.2735 31.7443 53.3262 31.6918C53.379 31.6392 53.379 31.5866 53.379 31.6392C53.3262 31.6392 53.2735 31.7443 53.2208 31.7969C53.1153 31.902 53.0098 32.0071 52.8515 32.1122C52.7988 32.1648 52.6933 32.2699 52.6406 32.3224C52.5878 32.375 52.4823 32.4801 52.4296 32.5327C52.3241 32.5852 52.2713 32.6903 52.1658 32.7429C52.0603 32.7955 52.0076 32.9006 51.9021 32.9531C51.7966 33.0057 51.7439 33.0582 51.6911 33.1634C51.6384 33.2159 51.5329 33.2685 51.4801 33.321C51.3219 33.4261 51.2164 33.5312 51.1637 33.5838C50.6889 33.8991 50.056 34.3196 49.3175 34.6875C48.5791 35.0554 47.7352 35.4233 46.7857 35.6861C45.8891 35.9489 44.8869 36.1591 43.9902 36.2116C43.9375 36.2116 43.832 36.2116 43.7792 36.2116H43.621C43.5155 36.2116 43.41 36.2116 43.3572 36.2116C43.3045 36.2116 43.199 36.2116 43.199 36.2116H43.1463H43.0935C42.988 36.2116 42.9353 36.2116 42.8825 36.2116H42.8298C42.777 36.2116 42.7243 36.2116 42.6715 36.2116C42.6188 36.2116 42.5661 36.2116 42.5133 36.2116C42.4606 36.2116 42.4078 36.2116 42.3551 36.2116C42.2496 36.2116 42.0913 36.2116 41.9858 36.1591C41.7221 36.1065 41.4584 36.1065 41.2474 36.054C40.9837 36.0014 40.7727 35.9489 40.5617 35.9489C40.3507 35.8963 40.1397 35.8437 39.9815 35.7912C39.2431 35.6335 38.4519 35.3707 37.6607 35.0028C36.8695 34.6349 36.0783 34.1619 35.3398 33.6889C34.5487 33.1108 33.9157 32.5852 33.2827 31.9545C32.7025 31.3764 32.1223 30.6932 31.6476 29.9574C31.4894 29.7997 31.4366 29.7997 31.4894 29.9048C31.4894 29.9574 31.5421 30.0625 31.6476 30.2202C31.7531 30.3778 31.8586 30.5355 31.9641 30.7457C32.0696 30.9034 32.2278 31.1136 32.3333 31.2713C32.4916 31.429 32.6498 31.6392 32.7553 31.7969C32.9135 31.9545 33.0718 32.1648 33.2827 32.375C33.3882 32.4801 33.441 32.5327 33.5465 32.6378C33.5992 32.6903 33.652 32.7429 33.7047 32.7955C33.7575 32.848 33.8102 32.9006 33.863 32.9531C33.9684 33.0582 34.0739 33.1108 34.1794 33.2159L34.2322 33.2685C34.1267 33.1634 34.0212 33.1108 33.9157 33.0057C33.3882 32.5327 32.8608 32.0597 32.3861 31.5341C32.2806 31.3764 32.1751 31.2713 32.0168 31.1136C31.9114 30.956 31.8059 30.8509 31.7004 30.6932L31.5949 30.5881L31.5421 30.483C31.4894 30.4304 31.4366 30.3253 31.3839 30.2727C31.3311 30.2202 31.2784 30.1151 31.2257 30.0625C31.1729 30.0099 31.1202 29.9048 31.0674 29.8523C30.329 28.696 29.8015 27.5398 29.4323 26.4361C29.3795 26.2784 29.3795 26.1733 29.3268 26.0156C29.274 25.858 29.2213 25.7528 29.2213 25.5952C29.1686 25.4375 29.1686 25.2798 29.1158 25.1222C29.0631 24.9645 29.0631 24.8068 29.0103 24.6491C29.0103 24.544 28.9576 24.4915 28.9576 24.3864C28.9576 24.2813 28.9576 24.2287 28.9048 24.1236C28.9048 24.0185 28.9048 23.9659 28.8521 23.8608C28.8521 23.7557 28.7993 23.7031 28.7993 23.598C28.7993 23.4403 28.7466 23.2301 28.7466 23.0724C28.7466 23.0199 28.7466 22.9673 28.7466 22.9673V22.8622C28.7466 22.7571 28.7466 22.7045 28.7466 22.5994C28.7466 22.2841 28.7466 21.9162 28.7466 21.6009C28.7466 21.4432 28.7466 21.2855 28.7993 21.1278C28.7993 20.9702 28.7993 20.8125 28.8521 20.7074C28.9048 20.4446 28.9048 20.1818 28.9576 19.919C29.0103 19.7088 29.0631 19.4986 29.1158 19.2884C29.4323 17.9219 29.907 16.608 30.6454 15.4517V15.5568C31.1202 14.7159 31.7004 13.875 32.3333 13.1392C32.3333 13.1918 32.2806 13.1918 32.2806 13.2443C32.2278 13.3494 32.1223 13.4545 32.0696 13.5071C32.0168 13.6122 31.9114 13.7173 31.8586 13.8224C31.7531 13.9276 31.7004 14.0852 31.5421 14.2429C31.4894 14.2955 31.4894 14.348 31.4366 14.4006C31.3839 14.4531 31.3839 14.5057 31.3311 14.5582C31.2784 14.6634 31.1729 14.7685 31.1202 14.8736C31.0147 15.0838 30.8564 15.294 30.7509 15.5043C30.6454 15.7145 30.54 15.8722 30.4345 16.0824C30.329 16.2926 30.2762 16.4503 30.1707 16.6605C29.8543 17.3963 29.5905 18.1847 29.3795 19.1307C29.3795 19.1832 29.3268 19.3409 29.3268 19.446C29.3268 19.6037 29.2741 19.7088 29.2741 19.8139C29.2741 20.0241 29.274 20.0767 29.3268 19.6563C29.1158 20.6548 29.0631 21.5483 29.0631 22.4943C29.0631 23.4403 29.1686 24.3338 29.3268 25.2798C29.3795 25.3849 29.3795 25.5426 29.4323 25.7003C29.485 25.8054 29.5378 26.0156 29.6433 26.2259C29.696 26.331 29.7488 26.4361 29.7488 26.5412C29.8015 26.6463 29.8543 26.6989 29.8543 26.804C29.907 26.9616 29.9597 27.0142 29.9597 26.9091C29.9597 26.8565 29.9597 26.7514 29.907 26.6463C29.907 26.5938 29.8543 26.4886 29.8543 26.3835C29.8543 26.2784 29.8015 26.1733 29.7488 26.0682C29.7488 26.1207 29.8015 26.2259 29.8015 26.331C29.8015 26.2784 29.7488 26.2259 29.696 26.1207C29.696 26.0682 29.6433 25.9631 29.6433 25.9105C29.6433 25.858 29.5905 25.8054 29.5905 25.7528C29.5905 25.7003 29.5378 25.6477 29.5378 25.5426C29.5378 25.7528 29.5378 25.5952 29.485 25.4375C29.4323 25.2798 29.4323 25.0696 29.3795 24.9119C29.3268 24.7543 29.3268 24.5966 29.3268 24.4915C29.3268 24.3864 29.3268 24.3864 29.3268 24.3864V24.4915C29.3268 24.4915 29.3268 24.3338 29.3268 24.071C29.3268 23.9659 29.3268 23.8082 29.2741 23.6506C29.2741 23.4929 29.2741 23.3352 29.2213 23.1776C29.2213 23.125 29.2213 23.2301 29.2213 23.2301C29.2213 23.2827 29.2213 23.2301 29.1686 22.9148C29.1686 22.8097 29.1686 22.7045 29.1686 22.5994C29.1686 22.5469 29.1686 22.4943 29.1686 22.4418C29.1686 22.3892 29.1686 22.3366 29.1686 22.2841C29.1686 22.0739 29.1686 21.8636 29.1686 21.6534C29.1686 21.4432 29.2213 21.233 29.2213 21.0753C29.2213 20.9702 29.2213 20.9176 29.2741 20.8125C29.2741 20.7074 29.274 20.6548 29.3268 20.5497C29.3268 20.4446 29.3268 20.3395 29.3268 20.2344L29.3795 19.919C29.3795 19.8139 29.4323 19.7614 29.4323 19.6563C29.4323 19.6037 29.4323 19.6037 29.4323 19.5511C29.4323 19.4986 29.4323 19.4986 29.4323 19.446C29.485 19.3409 29.485 19.1832 29.5378 19.0781C29.5378 19.0256 29.5905 18.973 29.5905 18.9205C29.5905 18.8679 29.6433 18.8153 29.6433 18.7628C29.696 18.6577 29.696 18.5526 29.7488 18.4474L29.6433 18.8153C29.696 18.6577 29.696 18.6577 29.7488 18.5526C29.7488 18.5 29.8015 18.4474 29.8015 18.3423C29.8015 18.2898 29.8543 18.2372 29.8543 18.1321C29.907 18.027 29.907 17.9744 29.9597 17.8168C30.0652 17.5014 30.118 17.3437 30.2235 17.1335C30.2762 16.9233 30.3817 16.7131 30.5927 16.2926C30.8564 15.8196 31.1729 15.1889 31.5949 14.6108C32.0168 13.9801 32.4916 13.402 32.9135 12.929C33.019 12.8239 33.1245 12.6662 33.23 12.5611C33.2828 12.5085 33.2828 12.5085 33.3355 12.456C33.3882 12.4034 33.3882 12.4034 33.441 12.3509C33.4937 12.2983 33.5992 12.1932 33.652 12.1406C33.8102 11.983 33.9684 11.8778 34.1267 11.7202C34.1794 11.6676 34.2322 11.6676 34.2322 11.6151L34.2849 11.5625L34.3377 11.5099C34.4432 11.4574 34.4959 11.3523 34.6014 11.2997C35.2871 10.7741 36.0255 10.3011 36.4475 10.0909C36.5003 10.0384 36.553 10.0384 36.6058 9.9858C36.6585 9.93324 36.7112 9.93324 36.764 9.93324C36.8695 9.88068 36.975 9.82813 37.0277 9.77557C37.1332 9.72301 37.186 9.67045 37.2914 9.67045C37.3969 9.6179 37.4497 9.6179 37.5024 9.56534C37.5552 9.51278 37.6607 9.51278 37.7134 9.46023C37.7662 9.40767 37.8189 9.40767 37.9244 9.40767C38.0299 9.35511 38.1354 9.30256 38.2409 9.25C38.2936 9.25 38.3464 9.19744 38.3991 9.19744C38.4519 9.19744 38.5046 9.14489 38.5574 9.14489C38.6628 9.09233 38.7156 9.09233 38.8211 9.03977C39.0321 8.98722 39.1903 8.8821 39.454 8.82955C39.5068 8.82955 39.5068 8.82955 39.5595 8.82955C39.6123 8.82955 39.7178 8.77699 39.7705 8.77699H39.8233C39.876 8.77699 39.876 8.77699 39.8233 8.77699C39.8233 8.77699 39.7705 8.77699 39.7178 8.82955C39.665 8.82955 39.6123 8.8821 39.5595 8.8821C39.454 8.93466 39.2958 8.93466 39.1903 8.98722C39.0321 9.03977 38.9266 9.09233 38.7683 9.14489C38.6101 9.19744 38.5046 9.25 38.3991 9.25C38.2409 9.30256 38.1354 9.35511 38.3464 9.30256C39.4013 8.93466 40.5617 8.67188 41.7221 8.51421C41.9858 8.46165 42.2496 8.46165 42.5133 8.46165C42.5661 8.46165 42.6188 8.46165 42.6715 8.46165C42.7243 8.46165 42.777 8.46165 42.8298 8.46165C42.9353 8.46165 42.988 8.46165 43.0935 8.46165C43.9374 8.5142 44.7814 8.61932 45.6253 8.77699C46.4693 8.93466 47.3659 9.19744 48.1571 9.56534C49.0011 9.88068 49.7923 10.3011 50.478 10.8267C51.2164 11.2997 51.8494 11.8253 52.4296 12.4034C52.4296 12.4034 52.7988 12.6662 52.3768 12.2457C52.3241 12.1932 52.2186 12.0881 52.1658 12.0355C52.1131 11.983 52.0076 11.8778 51.9021 11.8253C51.7966 11.7727 51.7439 11.6676 51.6384 11.6151C51.5856 11.5625 51.4801 11.5099 51.3746 11.4048C51.0582 11.142 50.7417 10.9318 50.478 10.7216C50.0032 10.5114 49.5813 10.2486 49.5813 10.2486C49.7395 10.3537 49.9505 10.4588 50.1087 10.5639C49.7923 10.3537 49.4758 10.1435 49.1593 9.9858C49.0538 9.93324 48.9483 9.88068 48.8428 9.82813L48.5264 9.67045C48.3681 9.56534 48.3154 9.51278 48.2626 9.51278C48.1044 9.46023 47.9989 9.40767 47.8407 9.35511C47.7879 9.30256 47.6824 9.30256 47.6297 9.25C47.5769 9.25 47.4714 9.19744 47.4187 9.19744C47.3659 9.19744 47.3132 9.14489 47.2605 9.14489C47.3132 9.14489 47.4187 9.19744 47.4714 9.19744C47.6297 9.25 47.7352 9.30256 47.8934 9.35511C47.9462 9.35511 48.0516 9.40767 48.1044 9.40767C48.1571 9.40767 48.2099 9.46023 48.3154 9.46023C48.4209 9.51278 48.5264 9.56534 48.6318 9.56534C48.9483 9.72301 48.2099 9.40767 48.1571 9.40767C48.1571 9.40767 48.2626 9.46023 48.4736 9.56534C48.6846 9.67046 49.0011 9.82813 49.5285 10.0384C50.5307 10.5114 51.2692 11.0369 52.0076 11.6151C52.2186 11.7727 52.3768 11.9304 52.5351 12.0881C52.5878 12.1406 52.6406 12.1932 52.6933 12.1932C52.746 12.2457 52.7988 12.2983 52.8515 12.2983C52.957 12.4034 53.0098 12.456 53.1153 12.5611C53.2208 12.6662 53.2735 12.7713 53.379 12.8239C53.4845 12.929 53.5372 13.0341 53.6427 13.1392C53.7482 13.2443 53.801 13.3494 53.9065 13.4545C53.9592 13.5071 54.0119 13.5597 54.0647 13.6122C54.1174 13.6648 54.1702 13.7173 54.2229 13.7699C54.2229 13.7173 54.2757 13.8224 54.4339 13.9801C54.4867 14.0327 54.4867 14.0852 54.5394 14.0852C54.5922 14.1378 54.5922 14.1903 54.6449 14.2429C54.6976 14.348 54.8031 14.4531 54.8559 14.5057C54.6976 14.2955 54.7504 14.4006 54.9086 14.6108L54.9614 14.6634C54.9614 14.7159 55.0141 14.7159 55.0141 14.7685C55.0669 14.821 55.0669 14.8736 55.1196 14.9787C55.1724 15.0838 55.2779 15.2415 55.3306 15.3466C55.4888 15.6094 55.5943 15.7145 55.6998 15.8722C55.7526 15.9773 55.8053 16.0824 55.8581 16.1875C55.9108 16.2401 55.9108 16.3452 55.9635 16.3977C56.0163 16.4503 56.069 16.5554 56.069 16.6605C56.0163 16.5554 56.0163 16.4503 55.9635 16.3977L55.8581 16.1349C55.8053 16.0824 55.7526 15.9247 55.6998 15.767C55.5943 15.6094 55.4888 15.4517 55.3833 15.2415C55.2779 15.0838 55.1724 14.8736 55.0141 14.7159C54.9086 14.5582 54.8031 14.4006 54.6976 14.2955C54.5922 14.1378 54.1174 13.5071 53.6955 13.0341C53.59 12.929 53.4845 12.7713 53.379 12.6662C53.2735 12.5611 53.168 12.456 53.1153 12.4034C52.957 12.2457 52.9043 12.1932 52.957 12.1932L53.2208 12.456C53.2735 12.5085 53.2735 12.5085 53.3262 12.5611C53.379 12.6136 53.379 12.6136 53.4317 12.6662C53.4845 12.7188 53.5372 12.7713 53.59 12.8239C53.6427 12.8764 53.6955 12.929 53.7482 12.9815C53.7482 13.0341 53.801 13.0341 53.801 13.0341C53.801 13.0866 53.8537 13.0866 53.8537 13.1392C54.0647 13.3494 54.2229 13.5597 54.3812 13.7173C54.4867 13.8224 54.5394 13.9276 54.6449 14.0327C54.7504 14.1378 54.8031 14.2429 54.9086 14.348C54.9614 14.4006 55.0141 14.4531 55.0141 14.5057C55.0669 14.5582 55.1196 14.6108 55.1196 14.6634C55.2251 14.7685 55.2779 14.9261 55.3833 15.0313C55.4361 15.1364 55.4888 15.2415 55.5416 15.3466C55.5943 15.4517 55.6471 15.5568 55.6998 15.6094C55.7526 15.7145 55.8053 15.767 55.8053 15.8722C55.8581 15.9247 55.8581 16.0298 55.9108 16.0824C56.069 16.3452 56.1218 16.608 56.28 16.9233C56.3328 17.1335 56.4383 17.2912 56.491 17.3963C56.5438 17.4489 56.5438 17.5014 56.5438 17.6065C56.5438 17.6591 56.5965 17.7116 56.5965 17.7642C56.6493 17.8693 56.6492 17.9744 56.702 18.027C56.7547 18.1321 56.7547 18.1847 56.8075 18.2898C56.8602 18.4474 56.913 18.6051 56.9657 18.7628C56.9657 18.8153 56.9657 18.8153 57.0185 18.8679C57.0185 18.9205 57.0185 18.9205 57.0185 18.973C57.0185 19.0256 57.0185 19.0781 57.0712 19.1307C57.0712 19.2358 57.124 19.3409 57.124 19.446V19.4986V19.5511C57.124 19.6037 57.124 19.6562 57.124 19.7088C57.1767 19.9716 57.124 19.6037 57.1767 19.8665C57.2295 20.1818 57.2822 20.5497 57.2822 20.8125C57.3349 20.8651 57.2822 20.5497 57.2295 20.1293C57.2295 20.0241 57.1767 19.919 57.1767 19.7614C57.1767 19.7088 57.1767 19.6562 57.124 19.6037C57.124 19.5511 57.124 19.4986 57.0712 19.446C57.0185 19.3409 57.0185 19.1832 56.9657 19.0781C56.913 18.973 56.913 18.8679 56.913 18.7628C56.9657 18.8679 56.9657 18.9205 56.9657 19.0256C56.9657 19.0781 57.0185 19.1832 57.0185 19.3409C57.0712 19.6037 57.0712 19.5511 57.0712 19.6037L57.1767 20.1293C57.1767 20.1293 57.1767 20.1293 57.2295 20.1818C57.2295 20.2344 57.2295 20.2869 57.2822 20.3395C57.2822 20.4446 57.3349 20.5497 57.3349 20.7074C57.3349 20.8651 57.3349 20.9702 57.3349 21.1278C57.3349 21.2855 57.3349 21.4432 57.3877 21.6009C57.3877 21.6534 57.3877 21.6534 57.3877 21.706C57.3877 21.7585 57.3877 21.7585 57.3877 21.8111C57.3877 22.0213 57.3877 22.1264 57.4404 22.1264C57.3877 22.3892 57.4404 22.5469 57.4404 22.5994C57.4404 22.652 57.4404 22.5994 57.4404 22.4418C57.4404 22.3892 57.4404 22.2315 57.4404 22.1264ZM48.6846 35.4759C48.6319 35.4759 48.5791 35.5284 48.5264 35.5284C48.4736 35.5284 48.3681 35.581 48.3154 35.581C48.4736 35.5284 48.6318 35.4233 48.7901 35.3707L48.6846 35.4759Z" fill="#404F54"/>
<path d="M57.0185 20.182L56.9657 19.7615L56.8602 19.3411V19.4462C56.913 19.6038 56.913 19.6564 56.913 19.7615C56.9657 19.9192 57.0185 19.9717 57.0185 20.182Z" fill="#404F54"/>
<path d="M46.1528 8.61934C46.2583 8.61934 46.2583 8.61934 46.2583 8.61934C46.3111 8.61934 46.2583 8.61934 46.6275 8.6719L46.3111 8.61934H46.1528L46.0473 8.56678C45.8363 8.51423 45.6254 8.51423 45.4144 8.46167C45.5199 8.46167 45.5726 8.51423 45.6781 8.51423C45.8891 8.56678 46.0473 8.56678 46.1528 8.61934Z" fill="#404F54"/>
<path d="M31.2784 12.0353C31.3839 11.9302 31.4894 11.8251 31.5949 11.72C31.5422 11.7725 31.4894 11.8251 31.4894 11.8251C31.3312 11.9828 31.1729 12.1404 31.0674 12.2981C31.0674 12.2981 31.0674 12.2981 31.0674 12.2455L30.962 12.3507L31.0674 12.2455C31.1202 12.193 31.0674 12.2981 31.0147 12.3507C30.9092 12.5083 30.8565 12.5083 30.8037 12.5609C30.751 12.666 30.6455 12.7186 30.5927 12.8237C30.54 12.9288 31.1729 12.1404 30.8565 12.5609L30.751 12.666C30.5927 12.8762 30.3817 13.139 30.2763 13.2967C30.118 13.5069 29.8543 13.9274 29.8015 13.9274C29.7488 14.0325 29.6433 14.1376 29.5905 14.2427C29.5378 14.3478 29.4323 14.4529 29.3796 14.6106C29.2213 14.8734 29.1158 15.0836 28.9576 15.3464C28.9049 15.4515 28.8521 15.6092 28.7466 15.7143C28.6939 15.8194 28.6411 15.9771 28.5884 16.0822C28.5356 16.1347 28.5356 16.1873 28.4829 16.2924C28.4829 16.4501 28.4829 16.5026 28.4829 16.5552C28.4301 16.6603 28.3774 16.818 28.3246 16.9231C28.2719 17.0808 28.3246 17.0808 28.2192 17.5012C28.1664 17.6063 28.1664 17.7114 28.1664 17.6589C28.1137 17.764 28.1137 17.8691 28.1137 17.9742C28.1137 17.8691 28.1664 17.8166 28.1664 17.7114C28.2192 17.6063 28.2192 17.5538 28.2192 17.5012C28.0609 17.9742 28.3246 17.291 28.2719 17.3435L28.1664 17.6589C28.1137 17.764 28.1137 17.8691 28.0609 17.9742V17.9217C28.0609 17.8691 28.1137 17.764 28.1137 17.7114L28.1664 17.5012L28.3246 17.0808L28.4829 16.6603L28.5356 16.4501C28.5356 16.3975 28.5884 16.345 28.6411 16.2399L28.7994 15.872C28.8521 15.7668 28.9049 15.6092 29.0103 15.5041L29.1158 15.2938L29.1686 15.1887L29.2213 15.0836L29.4323 14.7157V14.6632C29.4323 14.6106 29.4851 14.558 29.5378 14.5055C29.5906 14.4004 29.6433 14.2953 29.7488 14.1376C29.8015 14.085 29.8543 13.9799 29.907 13.8748C29.9598 13.7697 30.0125 13.7171 30.118 13.612C30.118 13.612 30.0653 13.6646 30.1708 13.5069C30.2763 13.3492 30.3817 13.2441 30.4345 13.1916C30.4872 13.139 30.4872 13.0864 30.54 13.0864C30.5927 13.0339 30.5927 12.9813 30.751 12.7711C30.6455 12.8762 30.54 13.0864 30.4345 13.139L30.5927 12.9288L30.6982 12.8237L30.8037 12.7186L31.1729 12.2981C31.0674 12.4032 30.962 12.5083 31.0674 12.3507C31.0147 12.4032 31.0674 12.3507 31.1202 12.2455C31.1729 12.2455 31.2784 12.1404 31.2784 12.0353C31.2257 12.1404 31.1729 12.193 31.1202 12.2455C31.0674 12.2981 31.0147 12.3507 31.0147 12.3507C31.0147 12.3507 31.0674 12.2981 31.1202 12.2455C31.1202 12.193 31.2257 12.1404 31.2784 12.0353Z" fill="#404F54"/>
<path d="M29.3796 29.169C29.5378 29.3792 29.4851 29.3266 29.3796 29.169C29.3268 29.0113 29.1686 28.7485 29.0103 28.5908C28.9576 28.5383 28.9049 28.4332 28.8521 28.3806C28.9576 28.5383 29.0631 28.696 29.1158 28.8536C29.2213 28.9062 29.2741 29.0639 29.3796 29.169Z" fill="#404F54"/>
<path d="M30.9092 11.6675C30.8564 11.7201 30.8037 11.7727 30.751 11.8252C30.6982 11.8778 30.6455 11.9829 30.54 12.0354L30.4345 12.1931L30.2762 12.3508C30.2235 12.4033 30.1707 12.4559 30.118 12.5085L29.8543 12.8238C29.7488 12.9289 29.696 13.034 29.5905 13.1391C29.485 13.2443 29.4323 13.3494 29.3268 13.507C29.1686 13.7173 29.7488 12.8238 29.7488 12.8238C29.8015 12.7712 29.7488 12.8238 29.696 12.8764C29.6433 12.9815 29.5378 13.0866 29.3796 13.2968C29.2741 13.4545 29.1158 13.6647 29.0103 13.8749C28.9048 14.0852 28.7993 14.2428 28.6939 14.4005C28.5356 14.7158 28.5884 14.6107 28.6939 14.4005C28.7466 14.3479 28.7466 14.2954 28.7993 14.2428C28.8521 14.1903 28.8521 14.0852 28.9048 14.0326C29.0103 13.8749 29.0631 13.7698 29.1158 13.6647L29.0103 14.0852C28.9576 14.2428 28.8521 14.3479 28.7993 14.5056C28.6939 14.7158 28.4829 15.0837 28.4829 15.0312C28.4301 15.1363 28.4301 15.1363 28.3774 15.1363C28.3774 15.1363 28.3774 15.1363 28.3246 15.1889C28.3246 15.2414 28.2719 15.294 28.2191 15.3991C28.0609 15.767 28.0082 15.9246 27.9554 16.0298C27.9027 16.1349 27.9027 16.1349 27.9554 16.1349C27.9554 16.1349 27.9554 16.1349 27.9554 16.1874C27.9554 16.24 27.9027 16.2925 27.9027 16.3451C27.9027 16.3977 27.8499 16.4502 27.8499 16.5028C27.8499 16.5553 27.7972 16.6079 27.7972 16.713C27.8499 16.5553 28.1136 15.9772 28.3774 15.3991C28.6411 14.821 29.0103 14.1903 29.2213 13.9275L29.3796 13.6647C29.4323 13.5596 29.485 13.507 29.5378 13.4545C29.5905 13.3494 29.485 13.5596 29.4323 13.6647C29.3796 13.7698 29.3268 13.8749 29.5378 13.507C29.1686 14.0852 28.7466 14.821 28.3774 15.5567C28.3246 15.6619 28.2719 15.7144 28.2719 15.8195C28.2719 15.8721 28.2191 15.9246 28.2191 15.9772C28.2191 16.0298 28.1664 16.0823 28.1664 16.1349C28.1136 16.2925 28.0082 16.5028 27.9554 16.6604C27.8499 16.9758 27.7444 17.2911 27.6389 17.5539C27.6389 17.5539 27.5334 17.8167 27.4807 18.0269C27.4807 18.132 27.4279 18.1846 27.4279 18.132C27.4279 18.132 27.4279 18.0795 27.4279 18.0269C27.4279 17.9744 27.4279 17.9744 27.4279 17.9218C27.4279 17.8692 27.4279 17.8167 27.4807 17.7641C27.4807 17.8167 27.4279 17.8692 27.4279 17.9218C27.4279 17.9744 27.428 18.0269 27.3752 18.0795C27.3752 18.1846 27.3225 18.2897 27.3225 18.3423C27.2697 18.5525 27.217 18.7627 27.1642 19.0781C27.1642 19.1306 27.1642 19.1832 27.1642 19.2357C27.1642 19.2883 27.1642 19.3408 27.1642 19.3934C27.1642 19.4985 27.1642 19.6036 27.1115 19.7087C27.1115 19.919 27.0587 20.0766 27.0587 20.2343C27.006 20.6022 27.006 20.9175 27.006 21.1803C27.006 21.338 27.006 21.4957 27.006 21.6533C27.006 21.811 27.006 21.9687 27.006 22.1264C27.006 22.284 27.006 22.4417 27.0587 22.6519C27.0587 22.8096 27.1115 23.0198 27.1115 23.23C27.1115 23.0198 27.1642 23.3352 27.1642 23.3877C27.217 23.6505 27.217 23.8607 27.2697 23.9658C27.2697 24.1235 27.3225 24.1761 27.3225 24.2286C27.3225 24.3337 27.3225 24.2812 27.2697 24.2286C27.2697 24.1761 27.217 24.1761 27.2697 24.3863C27.3225 24.5965 27.3752 24.9644 27.6389 25.7002C27.6917 25.8053 27.7444 25.9104 27.7444 26.0156C27.7972 26.1207 27.7972 26.1732 27.8499 26.2258C27.8499 26.2783 27.9027 26.3309 27.9027 26.3309C27.9554 26.4886 28.0082 26.5937 27.8499 26.2783C28.0082 26.7514 28.1664 27.0141 28.2191 27.1718C28.2719 27.2769 28.2719 27.3295 28.2719 27.2769C28.2719 27.2769 28.2719 27.2244 28.2719 27.2769C28.2719 27.2769 28.3246 27.3295 28.3246 27.382C28.3774 27.4346 28.4301 27.5397 28.4829 27.6974C28.4301 27.5923 28.3774 27.4871 28.3246 27.382L28.1664 27.0141L28.0082 26.8039C27.9554 26.7514 27.9554 26.6988 27.9554 26.6462L27.8499 26.3835C27.8499 26.3835 27.8499 26.3835 27.8499 26.3309C27.7972 26.2258 27.7972 26.1732 27.7444 26.0681C27.6917 25.963 27.6917 25.8579 27.6389 25.7528C27.5862 25.6477 27.5862 25.5425 27.5334 25.4374C27.4807 25.3323 27.4807 25.1746 27.4279 25.017C27.4279 25.017 27.428 24.9644 27.3752 24.8593C27.3752 24.8067 27.3752 24.7542 27.3225 24.7016C27.3225 24.6491 27.3225 24.5965 27.2697 24.544C27.217 24.3863 27.217 24.2812 27.2697 24.544C27.2697 24.5965 27.2697 24.6491 27.3225 24.6491C27.3225 24.7016 27.3225 24.7542 27.3752 24.7542C27.3752 24.8067 27.4279 24.9119 27.4279 24.9644C27.4279 25.017 27.4807 25.1221 27.4807 25.1746C27.4807 25.2272 27.4807 25.2272 27.5334 25.2798C27.5334 25.3323 27.5334 25.3323 27.5862 25.3849C27.6389 25.49 27.6917 25.6477 27.6917 25.7528C27.6917 25.8053 27.7444 25.8579 27.7444 25.9104C27.7444 25.963 27.7972 26.0156 27.7972 26.0681C27.8499 26.1732 27.9027 26.2783 27.9027 26.3835C27.9027 26.436 27.9554 26.4886 27.9554 26.5411C27.9554 26.5937 28.0082 26.6462 28.0082 26.6988C28.1136 26.909 28.2191 27.1718 28.3246 27.382L28.4829 27.6974C28.5356 27.8025 28.5884 27.9076 28.6939 28.0653C28.7993 28.2229 28.8521 28.3806 28.9576 28.5383C29.0103 28.6434 29.0631 28.696 29.1158 28.8011C29.1686 28.9062 29.2213 28.9587 29.2741 29.0638C29.3796 29.2215 29.485 29.3792 29.5378 29.4843C29.5905 29.5369 29.6433 29.642 29.696 29.6945C29.7488 29.7471 29.7488 29.7996 29.8015 29.8522C29.7488 29.7471 29.6433 29.6945 29.5905 29.5894C29.485 29.4843 29.4323 29.3792 29.3796 29.3792C29.4323 29.4843 29.485 29.5894 29.5905 29.6945L29.8015 29.9573C29.8543 30.0624 29.9598 30.1675 30.0125 30.2201L30.2235 30.4829C30.2762 30.5354 30.2762 30.5354 30.329 30.588C30.4345 30.6931 30.4872 30.7982 30.5927 30.8508C30.6982 30.9559 30.751 31.061 30.8564 31.1661C30.9619 31.2712 31.0674 31.3764 31.1729 31.4815C31.2257 31.534 31.2784 31.5866 31.3312 31.6391C31.3839 31.6917 31.4367 31.7442 31.4894 31.7968C31.5949 31.9019 31.7004 32.007 31.8586 32.1121C31.9641 32.2173 32.1223 32.3224 32.2278 32.48C32.2806 32.5326 32.3333 32.5852 32.3861 32.6377C32.4388 32.6903 32.4916 32.7428 32.5971 32.7954C32.7026 32.9005 32.8608 33.0056 32.9663 33.0582C33.0718 33.1633 33.23 33.2158 33.3883 33.321C33.441 33.3735 33.5465 33.4261 33.5992 33.4786C33.652 33.5312 33.7575 33.5837 33.8102 33.5837C33.9685 33.6888 34.074 33.7414 34.2322 33.8465C34.3904 33.9516 34.4959 34.0042 34.6542 34.1093C34.8124 34.2144 34.9706 34.267 35.0761 34.3195C35.1289 34.3721 35.2344 34.3721 35.2871 34.4246L35.3926 34.4772L35.4981 34.5298C35.6563 34.5823 35.8146 34.6874 35.9728 34.74C36.131 34.7925 36.2893 34.8451 36.4475 34.8977C36.553 34.9502 36.6058 34.9502 36.7113 35.0028C36.8167 35.0028 36.8695 35.0553 36.975 35.0553C37.0805 35.1079 37.1332 35.1079 37.2387 35.1604C37.3442 35.1604 37.397 35.213 37.5024 35.213C37.6607 35.2656 37.8189 35.3181 38.0299 35.3707C38.1881 35.4232 38.3464 35.4232 38.5574 35.4758C38.6629 35.4758 38.7156 35.5283 38.8211 35.5283C38.9266 35.5283 38.9793 35.5809 39.0848 35.5809C39.1903 35.5809 39.2431 35.6335 39.3486 35.6335H39.4541H39.6123C39.7705 35.6335 39.9815 35.686 40.1397 35.686C40.298 35.686 40.509 35.686 40.6672 35.7386C40.8254 35.7386 41.0364 35.7386 41.1947 35.7386H41.4584C41.5639 35.7386 41.6166 35.7386 41.7221 35.7386H41.9859C42.0914 35.7386 42.1441 35.7386 42.2496 35.7386C42.4078 35.7386 42.6188 35.7386 42.7771 35.686C43.1463 35.6335 43.5155 35.5809 43.8847 35.5283L44.1484 35.4758L44.4122 35.4232L44.6759 35.3707L44.8341 35.3181L44.9924 35.2656C45.1506 35.213 45.3616 35.1604 45.5198 35.1079C45.6781 35.0553 45.8891 35.0028 46.0473 34.9502C46.7858 34.6874 47.4715 34.4246 48.1572 34.0567C48.3154 33.9516 48.4736 33.8465 48.6846 33.794C48.8428 33.6889 49.0011 33.5837 49.1593 33.4786L49.2648 33.4261C49.3176 33.4261 49.3703 33.3735 49.3703 33.321L49.634 33.1633L49.8978 33.0056L50.1088 32.8479L50.3197 32.6903L50.4252 32.5852L50.5307 32.48C50.689 32.3749 50.8472 32.2173 50.9527 32.1121C51.1109 31.9545 51.2164 31.8494 51.3747 31.6917L51.4802 31.5866L51.5856 31.4815L51.7966 31.2712L52.0076 31.061L52.2186 30.8508L52.4296 30.6406L52.5351 30.5354L52.6406 30.4303C52.7461 30.2727 52.9043 30.115 53.0098 29.9573L53.3263 29.4843C53.7482 28.8536 54.1702 28.1178 54.4867 27.4346C54.8032 26.6988 55.0669 25.963 55.2779 25.2272C55.4889 24.4914 55.6471 23.7031 55.6998 22.9147C55.7526 22.1264 55.8053 21.338 55.7526 20.5496C55.6998 19.7613 55.5943 19.0255 55.3834 18.2371L55.5416 18.4999C55.3834 17.7116 55.1196 16.8707 54.7504 16.0823C54.4339 15.294 54.012 14.5056 53.5372 13.7698C53.4845 13.7173 53.4845 13.6647 53.4318 13.6647C53.379 13.5596 53.3263 13.4545 53.2208 13.3494C53.1153 13.1917 53.0098 12.9815 52.9043 12.8238C52.8516 12.7187 52.7988 12.6661 52.7461 12.6136C52.6933 12.561 52.6406 12.5085 52.6406 12.4559C52.4823 12.2982 52.3768 12.1406 52.2186 11.9829C52.0604 11.8252 51.9549 11.7201 51.8494 11.615C51.7966 11.5624 51.7439 11.5099 51.7439 11.5099C51.6911 11.4573 51.6911 11.4573 51.6911 11.4573C51.6911 11.4573 51.6911 11.4573 51.7966 11.5624C51.9021 11.6675 51.9549 11.7727 52.0604 11.8778C52.1658 11.9829 52.2186 12.088 52.3241 12.1931C52.3768 12.2982 52.4823 12.4033 52.5351 12.5085C52.5878 12.6136 52.6933 12.7187 52.7461 12.8238C52.7988 12.9289 52.9043 13.034 52.957 13.1391C53.0098 13.2443 53.1153 13.3494 53.168 13.4545C53.168 13.4545 53.168 13.4545 53.168 13.507C52.7461 12.9289 52.3241 12.4033 51.8494 11.9303C51.7966 11.8778 51.7966 11.8778 51.7439 11.8252C51.6911 11.7727 51.6384 11.7201 51.6384 11.6675C51.5856 11.615 51.5329 11.5624 51.4802 11.5099C51.3747 11.4048 51.2692 11.2996 51.1637 11.1945C51.0582 11.0894 50.9527 11.0369 50.8472 10.9318C50.6362 10.7215 50.6362 10.7215 50.478 10.5639C50.3725 10.4587 50.2142 10.3536 50.1088 10.2485C49.9505 10.1434 49.7923 9.98573 49.634 9.88061C49.5813 9.82806 49.5285 9.82806 49.5285 9.7755C49.4758 9.72294 49.4231 9.72294 49.4231 9.67039C49.3176 9.61783 49.2648 9.56527 49.1593 9.51272C49.1066 9.46016 49.0011 9.4076 48.9483 9.35505C48.8956 9.30249 48.7901 9.24993 48.7374 9.24993C48.5791 9.14482 48.4736 9.09226 48.4209 9.03971C48.3154 8.98715 48.2626 8.93459 48.2099 8.88204C48.1044 8.82948 47.9989 8.72436 47.8407 8.61925C47.155 8.25135 46.3638 7.93601 45.5198 7.67323C44.6759 7.41044 43.832 7.20022 43.0935 7.0951C42.9353 7.04255 42.6716 7.04255 42.4606 6.98999C42.3551 6.98999 42.1968 6.98999 42.0386 6.98999C41.8804 6.98999 41.7749 6.98999 41.6166 6.98999C41.4584 6.98999 41.3529 6.98999 41.1947 6.98999H41.0892C41.0364 6.98999 41.0364 6.98999 40.9837 6.98999C40.9309 6.98999 40.8254 6.98999 40.7727 6.98999C40.6145 6.98999 40.509 6.98999 40.4035 6.98999C40.298 6.98999 40.1398 6.98999 40.0343 6.98999C39.1903 7.04255 38.3464 7.20022 37.6607 7.35789C36.975 7.51556 36.4475 7.72579 36.2893 7.8309C36.2893 7.8309 36.342 7.8309 36.342 7.77834C36.3948 7.77834 36.4475 7.72579 36.4475 7.72579C36.4475 7.72579 36.3948 7.72579 36.342 7.77834C36.2893 7.77834 36.2365 7.8309 36.131 7.8309C36.0783 7.8309 35.9728 7.88346 35.8673 7.93601C35.8146 7.93601 35.8146 7.98857 35.7618 7.98857H35.7091C35.6563 7.98857 35.6036 8.04113 35.4453 8.09368C35.3399 8.14624 35.1289 8.1988 34.9706 8.30391C34.8124 8.40902 34.6014 8.46158 34.4432 8.56669C34.3377 8.61925 34.2849 8.67181 34.2322 8.67181C34.1794 8.72436 34.1267 8.72437 34.074 8.77692C33.9157 8.88204 33.863 8.88204 33.9157 8.88204C34.2849 8.67181 34.3377 8.67181 34.2322 8.72436C34.1794 8.77692 34.074 8.82948 33.9685 8.93459C33.9157 8.98715 33.8102 9.03971 33.7575 9.09226C33.7047 9.14482 33.5992 9.19738 33.4937 9.24993C33.3883 9.30249 33.3355 9.35505 33.23 9.46016C33.1245 9.51272 33.019 9.61783 32.9663 9.67039C32.8608 9.72294 32.7553 9.82806 32.6498 9.88061C32.5443 9.93317 32.4388 10.0383 32.3861 10.1434C32.2806 10.196 32.2278 10.3011 32.1223 10.3536C32.0169 10.4062 31.9641 10.5113 31.8586 10.5639C31.7004 10.7215 31.5421 10.8266 31.4366 10.9318C31.2784 11.0894 31.1729 11.1945 31.0147 11.3522C31.4894 10.8792 32.0696 10.4062 32.808 9.88061C32.7026 9.93317 32.9135 9.7755 33.0718 9.67039C33.1245 9.61783 33.1773 9.61783 33.1773 9.56527C33.23 9.56527 33.23 9.51272 33.23 9.51272C33.23 9.51272 33.1773 9.56527 33.0718 9.61783C32.9663 9.72294 32.8608 9.7755 32.7553 9.82806C32.5971 9.93317 32.4916 9.98573 32.3861 10.0908C32.2806 10.196 32.1223 10.3011 32.0169 10.3536C32.1751 10.196 32.3861 10.0383 32.6498 9.88061C32.7553 9.7755 32.9135 9.72294 33.019 9.61783C33.0718 9.56527 33.1773 9.51272 33.23 9.46016C33.2828 9.4076 33.3883 9.35505 33.441 9.35505C33.5992 9.24993 33.7047 9.19738 33.863 9.09226C34.0212 9.03971 34.1267 8.93459 34.2322 8.88204C34.4432 8.72436 34.6542 8.67181 34.7597 8.56669C34.8651 8.51414 34.9706 8.46158 35.0761 8.40902C35.1816 8.35647 35.2344 8.35647 35.3399 8.30391C35.4981 8.25135 35.6036 8.1988 35.7618 8.14624C35.8673 8.09368 35.9728 8.09368 36.131 8.04113C36.1838 8.04113 36.2365 7.98857 36.2893 7.98857C36.342 7.98857 36.342 7.98857 36.3948 7.93601C36.4475 7.93601 36.4475 7.93601 36.5003 7.88346C37.186 7.62067 38.0299 7.463 38.7684 7.30533C38.8738 7.30533 38.9793 7.25277 39.0321 7.25277C39.1376 7.25277 39.2431 7.25277 39.2958 7.20022C39.5068 7.20022 39.665 7.14766 39.8233 7.14766C39.9815 7.14766 40.1925 7.0951 40.3507 7.0951C40.509 7.0951 40.6672 7.0951 40.8254 7.0951C41.0364 7.0951 41.1947 7.0951 41.3529 7.0951C41.5111 7.0951 41.6166 7.0951 41.7749 7.0951C41.8804 7.0951 41.9859 7.0951 42.0386 7.0951C41.9859 7.0951 41.9331 7.0951 41.9331 7.0951C41.8276 7.0951 41.7221 7.0951 41.6166 7.0951C41.5639 7.0951 41.5111 7.0951 41.4584 7.0951C41.4057 7.0951 41.3529 7.0951 41.2474 7.0951L41.3002 7.35789C41.2474 7.35789 41.1419 7.35789 41.0892 7.35789H40.9837H40.8782C40.72 7.35789 40.5617 7.35789 40.4035 7.41044H40.298H40.1925C40.1397 7.41044 40.0343 7.41044 39.9288 7.463C39.7705 7.463 39.6123 7.51556 39.4541 7.51556C39.2958 7.56812 39.1376 7.56811 38.9793 7.62067C38.8211 7.67323 38.6629 7.67323 38.5046 7.72579C38.3991 7.72579 38.3464 7.77834 38.2409 7.77834L37.9772 7.8309C37.8189 7.88346 37.6079 7.88346 37.4497 7.93601C37.2915 7.98857 37.1332 8.04113 36.975 8.09368L36.8695 8.14624L36.764 8.1988C36.7113 8.25135 36.6058 8.25135 36.553 8.30391C36.2365 8.40902 35.9201 8.56669 35.6563 8.67181C35.4981 8.72436 35.3399 8.82948 35.2344 8.88204C35.1816 8.93459 35.0761 8.93459 35.0234 8.98715C34.9706 9.03971 34.8651 9.03971 34.8124 9.09226C34.6542 9.14482 34.5487 9.24993 34.3904 9.30249C34.2322 9.4076 34.1267 9.46016 34.0212 9.56527C33.9685 9.61783 33.9157 9.67039 33.8102 9.72294C33.7575 9.7755 33.652 9.82806 33.5465 9.88061C33.441 9.93317 33.3355 9.98573 33.2828 10.0908L33.23 10.1434L33.1773 10.196C33.1245 10.2485 33.0718 10.3011 33.019 10.3011C32.9135 10.4062 32.808 10.4587 32.6498 10.5639C32.5443 10.669 32.4388 10.7741 32.2806 10.8792C32.2278 10.9318 32.1751 10.9843 32.1223 11.0369C32.0696 11.0894 32.0169 11.142 31.9641 11.1945C31.8586 11.2996 31.7004 11.4048 31.5949 11.5624L32.0696 11.1945C32.1223 11.142 32.1223 11.142 32.1751 11.0894C32.2278 11.0369 32.2278 11.0369 32.2806 10.9843C32.3861 10.9318 32.4388 10.8266 32.5443 10.7741C32.7026 10.6164 32.9135 10.4587 33.1773 10.3011C33.23 10.2485 33.2828 10.196 33.3355 10.196C33.3883 10.1434 33.441 10.0908 33.4937 10.0908C33.5992 9.98573 33.7575 9.93317 33.863 9.82806C33.9685 9.72294 34.1267 9.67039 34.2849 9.56527C34.3377 9.51272 34.4432 9.46016 34.4959 9.46016C34.5487 9.4076 34.6542 9.35505 34.7069 9.35505C34.8651 9.24993 34.9706 9.19738 35.1289 9.09226C35.2871 9.03971 35.4454 8.93459 35.6036 8.88204C35.7618 8.82948 35.9201 8.72436 36.0783 8.67181C36.1311 8.61925 36.2365 8.61925 36.2893 8.56669L36.3948 8.51414L36.5003 8.46158C36.6585 8.40902 36.8167 8.35647 36.975 8.30391C37.1332 8.25135 37.2915 8.1988 37.4497 8.14624C37.5024 8.14624 37.6079 8.09368 37.6607 8.09368C37.7134 8.09368 37.8189 8.04113 37.8717 8.04113C38.0299 7.98857 38.1881 7.98857 38.2936 7.93601L38.1881 7.98857C37.7134 8.09368 37.397 8.25135 36.8167 8.40902L36.6585 8.51414C36.7113 8.51414 36.8167 8.46158 36.8695 8.46158C36.9222 8.46158 37.0277 8.40902 37.1332 8.40902C37.2915 8.35647 37.5024 8.30391 37.7134 8.25135C37.9244 8.1988 38.1881 8.14624 38.3991 8.04113C38.5046 7.98857 38.6629 7.98857 38.7684 7.93601C38.8738 7.88346 39.0321 7.88346 39.1376 7.8309C39.4013 7.77834 39.6123 7.72579 39.876 7.67323C40.1397 7.62067 40.3507 7.62067 40.5617 7.56811C40.6672 7.56811 40.7727 7.56812 40.8782 7.51556C40.9309 7.51556 40.9837 7.51556 41.0364 7.51556C41.0892 7.51556 41.1419 7.51556 41.1947 7.51556C41.3529 7.51556 41.5111 7.51556 41.6166 7.51556C41.7221 7.51556 41.8276 7.51556 41.8804 7.51556C41.9331 7.51556 42.0386 7.51556 42.0386 7.51556C42.1441 7.51556 42.1441 7.51556 42.1441 7.51556C42.1441 7.51556 41.9331 7.51556 41.7749 7.51556C41.3529 7.51556 40.8254 7.56811 41.2474 7.56811C40.9837 7.56811 40.8254 7.62067 40.7727 7.62067C40.6672 7.62067 40.6672 7.62067 40.72 7.62067C40.7727 7.62067 40.8254 7.62067 40.9837 7.62067C41.0892 7.62067 41.3002 7.62067 41.4584 7.62067C41.5639 7.62067 41.6694 7.62067 41.7749 7.62067C41.8804 7.62067 41.9859 7.62067 42.0914 7.62067C42.1968 7.62067 42.3023 7.62067 42.4078 7.62067C42.5133 7.62067 42.6188 7.62067 42.7243 7.67323C42.8298 7.67323 42.9353 7.67323 43.0408 7.72579C43.1463 7.72579 43.2518 7.77834 43.3045 7.77834C43.4627 7.8309 43.621 7.8309 43.7265 7.8309C44.3067 7.93601 44.9924 8.09368 45.7836 8.35647C46.5748 8.61925 47.4715 8.93459 48.2626 9.4076C49.1066 9.88061 49.8978 10.4062 50.6362 10.9843C50.689 11.0369 50.7417 11.0894 50.7945 11.142L50.8999 11.2471C50.9527 11.2996 51.0582 11.3522 51.1109 11.4048C51.1637 11.4573 51.2164 11.5099 51.2164 11.5099L51.2692 11.5624C51.3219 11.615 51.3747 11.6675 51.4274 11.7201C51.4274 11.7201 51.4274 11.7201 51.4802 11.7727C51.5329 11.8252 51.5856 11.8252 51.5856 11.8778C51.6384 11.9303 51.6384 11.9303 51.6911 11.9829C51.7439 12.0354 51.7439 12.088 51.7966 12.088C51.9021 12.1931 51.9549 12.2982 52.0604 12.4033C52.2186 12.6136 52.3768 12.8238 52.5351 13.034C52.6933 13.2442 52.7988 13.4545 52.957 13.6121C53.0625 13.8224 53.168 13.98 53.2735 14.1377C53.6955 14.7684 54.0647 15.5042 54.3812 16.3451C54.6977 17.186 54.9086 18.0269 55.0669 18.9204C55.2251 19.8664 55.2779 20.7073 55.2779 21.6008C55.2779 22.4417 55.2251 23.2826 55.0141 24.1761C55.0141 24.3863 55.0141 24.4389 55.0669 24.3337C55.1196 24.2812 55.1196 24.1761 55.1724 24.0184C55.2251 23.8607 55.2779 23.6505 55.3306 23.3877C55.3834 23.1775 55.3834 22.9673 55.4361 22.757C55.4889 22.5468 55.4888 22.284 55.4888 22.0738C55.4888 21.811 55.5416 21.6008 55.5416 21.338C55.5416 21.2329 55.5416 21.0752 55.5416 20.9701C55.5416 20.9175 55.5416 20.8124 55.5416 20.7599C55.5416 20.7073 55.5416 20.6022 55.5416 20.5496C55.5416 20.392 55.5416 20.2869 55.5416 20.1292V20.0766C55.5416 20.2343 55.5943 20.3394 55.5943 20.4971C55.6471 21.2329 55.6471 21.9161 55.5943 22.6519C55.5943 22.8096 55.5416 23.0198 55.5416 23.1775C55.5416 23.3352 55.4888 23.5454 55.4888 23.7031V23.8082V23.9133C55.4888 24.0184 55.4361 24.071 55.4361 24.1761C55.4361 24.2812 55.3834 24.3337 55.3834 24.4389C55.3834 24.544 55.3306 24.5965 55.3306 24.7016C55.0669 26.0156 54.5922 27.2244 54.012 28.2755C53.9592 28.3806 53.8537 28.5383 53.801 28.6434C53.7482 28.7485 53.6427 28.9062 53.59 29.0638C53.4845 29.2215 53.4318 29.3266 53.3263 29.4843C53.2208 29.642 53.168 29.7471 53.0625 29.9048C53.0098 29.9573 52.957 30.0624 52.9043 30.115C52.8516 30.1675 52.7988 30.2727 52.7461 30.3252C52.6933 30.3778 52.6406 30.4829 52.5878 30.5354C52.5351 30.588 52.4823 30.6931 52.4296 30.7457C52.3241 30.9033 52.2186 31.0085 52.1131 31.1661C52.0604 31.2187 52.0604 31.2187 52.0076 31.2712L51.9021 31.3763C51.8494 31.4289 51.7966 31.4815 51.7439 31.5866C51.5329 31.8494 51.2692 32.0596 51.0582 32.2698C50.9527 32.3749 50.7945 32.48 50.689 32.5852C50.5835 32.6903 50.478 32.7954 50.3725 32.8479C50.1615 33.0056 49.9505 33.1633 49.7395 33.321C49.5285 33.4261 49.3703 33.5837 49.2121 33.6363C47.9989 34.1619 46.733 34.74 45.3616 35.1079L45.4671 35.0553C44.5177 35.3181 43.5682 35.4758 42.5661 35.5809C42.6188 35.5809 42.6188 35.5809 42.6716 35.5809C42.7771 35.5809 42.8825 35.5283 43.0408 35.5283C43.1463 35.5283 43.3045 35.4758 43.41 35.4758C43.5682 35.4232 43.7265 35.4232 43.9375 35.3707C43.9902 35.3707 44.043 35.3707 44.1484 35.3181C44.2012 35.3181 44.2539 35.3181 44.3594 35.2656C44.4649 35.2656 44.6232 35.213 44.7287 35.213C44.9396 35.1604 45.2034 35.1079 45.4144 35.0553C45.6253 35.0028 45.8363 34.8977 46.0473 34.8451C46.2583 34.7925 46.4165 34.6874 46.6275 34.6349C47.4187 34.3195 48.1044 33.9516 48.9483 33.4786C49.0011 33.4261 49.1066 33.3735 49.2121 33.2684C49.3176 33.1633 49.4231 33.1107 49.5285 33.0056C49.6868 32.8479 49.7395 32.8479 49.3703 33.0582C50.2142 32.48 50.9527 31.9019 51.5856 31.2187C52.2713 30.5354 52.8515 29.8522 53.379 29.0113C53.4318 28.9062 53.5372 28.7485 53.59 28.6434C53.6427 28.5383 53.6955 28.3281 53.801 28.1178C53.8537 28.0127 53.9065 27.9076 53.9065 27.8025C53.9592 27.6974 53.9592 27.5923 54.012 27.5397C54.0647 27.382 54.0647 27.3295 54.012 27.382C53.9592 27.4346 53.9592 27.4871 53.8537 27.5923C53.801 27.6448 53.801 27.7499 53.7482 27.8025C53.6955 27.9076 53.6427 27.9602 53.59 28.0653C53.6427 28.0127 53.6427 27.9602 53.7482 27.8025C53.7482 27.855 53.6955 27.9076 53.6427 28.0127C53.59 28.0653 53.59 28.1178 53.5372 28.2229C53.5372 28.2755 53.4845 28.3281 53.4845 28.3806C53.4318 28.4332 53.4318 28.4857 53.379 28.5383C53.3263 28.6434 53.2208 28.8011 53.1153 28.9587C53.0098 29.1164 52.9043 29.2741 52.7988 29.3792C52.6933 29.5369 52.6406 29.642 52.5351 29.6945C52.4823 29.7471 52.4296 29.7996 52.4823 29.7471L52.5351 29.642C52.5351 29.642 52.4296 29.7471 52.2713 29.9573C52.2186 30.0624 52.1131 30.1675 52.0076 30.2727C51.9021 30.3778 51.7966 30.4829 51.6911 30.6406C51.6384 30.6931 51.7439 30.6406 51.7439 30.588C51.7966 30.588 51.7966 30.588 51.5856 30.7982C51.5329 30.8508 51.4274 30.9559 51.3747 31.0085C51.3219 31.061 51.3219 31.061 51.2692 31.1136C51.2164 31.1661 51.2164 31.1661 51.1637 31.2187C51.0054 31.3764 50.8472 31.4815 50.689 31.6391C50.5307 31.7442 50.3725 31.9019 50.2142 32.007C50.1615 32.0596 50.056 32.1121 50.0033 32.1647C49.9505 32.2173 49.845 32.2698 49.7923 32.3224C49.7395 32.3749 49.634 32.48 49.5813 32.5326L49.3703 32.7428C49.2648 32.7954 49.2121 32.8479 49.1593 32.9005C49.1066 32.9005 49.1066 32.9531 49.0538 32.9531C49.0011 32.9531 49.0011 33.0056 48.9483 33.0056C48.8428 33.0582 48.7374 33.1107 48.6319 33.1633C48.5791 33.2158 48.5264 33.2158 48.4736 33.2158C48.4209 33.2684 48.3681 33.2684 48.3154 33.2684C48.2099 33.3209 48.1044 33.3735 47.9989 33.4261L48.3681 33.2158C48.2626 33.2684 48.2099 33.2684 48.1572 33.321C48.1044 33.321 48.0517 33.3735 47.9462 33.4261C47.8934 33.4786 47.8407 33.4786 47.7352 33.5312C47.6824 33.5837 47.5769 33.6363 47.4715 33.6888C47.2077 33.8465 46.9967 33.8991 46.7858 34.0042C46.5748 34.1093 46.3638 34.1619 45.9418 34.3721C45.4671 34.5298 44.7814 34.74 44.043 34.8977C43.3045 35.0553 42.5661 35.1079 41.9331 35.1604C41.7749 35.1604 41.6166 35.1604 41.4057 35.213C41.3529 35.213 41.3002 35.213 41.2474 35.213C41.1947 35.213 41.1419 35.213 41.0892 35.213C40.9837 35.213 40.8782 35.213 40.7727 35.213C40.5617 35.213 40.3507 35.213 40.1397 35.1604C40.087 35.1604 40.0343 35.1604 39.9815 35.1604H39.876H39.7705C39.665 35.1604 39.5595 35.1079 39.4541 35.1079C38.5574 35.0028 37.7662 34.7925 37.2915 34.6874C37.2387 34.6874 37.186 34.6349 37.1332 34.6349C37.0805 34.6349 37.0277 34.5823 36.975 34.5823C36.8695 34.5298 36.764 34.5298 36.6585 34.4772C36.553 34.4246 36.5003 34.4246 36.3948 34.3721C36.2893 34.3195 36.2365 34.3195 36.1838 34.267C36.131 34.2144 36.0256 34.2144 35.9728 34.2144C35.9201 34.1619 35.8673 34.1619 35.7618 34.1619C35.6563 34.1093 35.5508 34.0567 35.4453 34.0042C35.3926 34.0042 35.3399 33.9516 35.2871 33.9516C35.2344 33.9516 35.1816 33.8991 35.1289 33.8991C35.0234 33.8465 34.9706 33.794 34.8651 33.794C34.6542 33.7414 34.4959 33.6363 34.2322 33.4786C34.1794 33.4786 34.1794 33.4261 34.1267 33.4261C34.074 33.3735 34.0212 33.3735 33.9685 33.321C33.9685 33.321 33.9685 33.321 33.9157 33.321C33.863 33.2684 33.863 33.2684 33.9157 33.321C33.9157 33.321 33.9685 33.3735 34.0212 33.3735C34.074 33.3735 34.1267 33.4261 34.1794 33.4261C34.2849 33.4786 34.3904 33.5312 34.5487 33.6363C34.6542 33.6888 34.8124 33.794 34.9706 33.8465C35.0761 33.8991 35.2344 33.9516 35.2871 34.0042C35.4454 34.0567 35.5508 34.1093 35.3399 34.0042C34.3377 33.5312 33.2828 32.9005 32.3861 32.1647C32.1751 32.007 31.9641 31.8494 31.8059 31.6391C31.7531 31.5866 31.7531 31.5866 31.7004 31.534C31.6476 31.4815 31.6476 31.4815 31.5949 31.4289C31.5421 31.3763 31.4894 31.2712 31.4366 31.2187C30.8564 30.588 30.329 29.9573 29.8543 29.2215C29.3796 28.4857 28.9576 27.6974 28.5884 26.8565C28.2719 26.0156 28.0082 25.1746 27.7972 24.3337C27.6389 23.4928 27.5334 22.6519 27.5334 21.811C27.5334 21.811 27.4807 21.3906 27.4807 21.9687C27.4807 22.0738 27.4807 22.1789 27.4807 22.284C27.4807 22.3891 27.4807 22.4942 27.4807 22.5994C27.4807 22.7045 27.4807 22.8096 27.4807 22.9147C27.4807 23.0198 27.4807 23.1249 27.5334 23.23C27.5862 23.6505 27.6389 24.0184 27.6917 24.3863C27.7972 25.0695 27.9554 25.5425 27.9027 25.5951C27.8499 25.3849 27.7972 25.1746 27.7444 25.017C27.7972 25.3849 27.9027 25.7528 28.0082 26.1207C28.0609 26.2258 28.0609 26.3309 28.1136 26.436L28.2719 26.7514C28.3246 26.909 28.3246 27.0141 28.3246 27.0141C28.3774 27.1718 28.4301 27.2769 28.4829 27.4346C28.5356 27.4871 28.5356 27.5923 28.5884 27.6448C28.6411 27.6974 28.6411 27.8025 28.6939 27.855C28.6939 27.9076 28.7466 27.9602 28.7466 28.0127C28.6939 27.9602 28.6939 27.855 28.6411 27.8025C28.5884 27.6974 28.5356 27.5397 28.4301 27.4346C28.5356 27.3295 28.4829 27.2769 28.4829 27.2244C28.4301 27.1718 28.4301 27.1192 28.3774 27.0667C28.3246 26.9616 28.2719 26.8565 28.2191 26.7514C28.1136 26.3835 28.3774 27.1192 28.4301 27.1718C28.4301 27.1718 28.4301 27.0667 28.3246 26.8565C28.2191 26.6462 28.1136 26.2783 27.9554 25.8053C27.5862 24.8067 27.4279 23.8607 27.3225 22.9147C27.2697 22.7045 27.2697 22.4417 27.2697 22.1789C27.2697 22.1264 27.2697 22.0738 27.2697 22.0212C27.2697 21.9687 27.2697 21.9161 27.2697 21.811C27.2697 21.7059 27.2697 21.5482 27.2697 21.4431C27.2697 21.338 27.2697 21.1803 27.2697 21.0752C27.2697 20.9175 27.2697 20.8124 27.2697 20.6548C27.2697 20.4971 27.2697 20.392 27.3225 20.2343C27.3225 20.1817 27.3225 20.0766 27.3225 20.0241C27.3225 19.9715 27.3225 19.8664 27.3225 19.8139C27.3225 19.8664 27.3225 19.7087 27.3225 19.4985C27.3225 19.446 27.3225 19.3934 27.3225 19.3408C27.3225 19.2883 27.3225 19.2357 27.3752 19.1832C27.3752 19.0781 27.4279 18.9729 27.4279 18.8678C27.3752 19.1306 27.4279 18.9729 27.4807 18.7627C27.4807 18.7102 27.4807 18.7102 27.4807 18.6576C27.4807 18.605 27.4807 18.605 27.4807 18.5525C27.4807 18.4999 27.5334 18.3948 27.5334 18.3423C27.5862 18.1846 27.5862 18.0795 27.6389 17.9218C27.6917 17.659 27.7444 17.5014 27.7972 17.2911C27.7972 17.186 27.8499 17.0809 27.9027 16.9232C27.9027 16.8707 27.9554 16.7656 27.9554 16.713C28.0082 16.6079 28.0082 16.5553 28.0609 16.4502C28.0082 16.5553 27.9554 16.6079 27.9554 16.713L27.8499 16.9758C27.8499 17.0809 27.7972 17.186 27.7444 17.3437C27.6917 17.5014 27.6389 17.7116 27.5862 17.9218C27.5334 18.132 27.4807 18.3423 27.4807 18.5525C27.4279 18.7627 27.428 18.9204 27.3752 19.0781C27.3225 19.2357 27.217 20.0241 27.217 20.7073C27.217 20.865 27.217 21.0227 27.217 21.1803C27.217 21.338 27.217 21.4431 27.217 21.5482C27.217 21.7585 27.217 21.8636 27.217 21.811V21.4431C27.217 21.3906 27.217 21.338 27.217 21.338C27.217 21.2854 27.217 21.2329 27.217 21.2329C27.217 21.1278 27.217 21.0752 27.217 20.9701C27.217 20.9175 27.217 20.8124 27.217 20.7599C27.217 20.7073 27.217 20.7073 27.217 20.6548C27.217 20.6022 27.217 20.6022 27.217 20.5496C27.217 20.2869 27.217 20.0241 27.2697 19.7613C27.2697 19.6562 27.2697 19.4985 27.3225 19.3934C27.3225 19.2883 27.3752 19.1306 27.3752 18.9729C27.3752 18.9204 27.3752 18.8153 27.4279 18.7627C27.4279 18.7102 27.4279 18.605 27.4807 18.5525C27.5334 18.3948 27.5334 18.2371 27.5862 18.0795C27.6389 17.9744 27.6389 17.8167 27.6917 17.7116C27.7444 17.6065 27.7444 17.5014 27.7972 17.3962C27.8499 17.2911 27.8499 17.2386 27.9027 17.1335C27.9554 17.0283 27.9554 16.9758 28.0082 16.9232C28.1136 16.6079 28.2191 16.3977 28.3774 16.0823C28.4829 15.8721 28.5356 15.7144 28.5884 15.6093C28.6411 15.5568 28.6411 15.5042 28.6939 15.3991C28.7466 15.3465 28.7466 15.294 28.7466 15.2414C28.7993 15.1363 28.8521 15.0312 28.8521 14.9786C28.9048 14.8735 28.9048 14.821 28.9576 14.7158C29.0631 14.5582 29.1158 14.4005 29.1686 14.2954C29.1686 14.2428 29.2213 14.2428 29.2213 14.1903C29.2213 14.1377 29.2741 14.1377 29.2741 14.0852C29.3268 14.0326 29.3268 13.98 29.3796 13.9275C29.4323 13.8224 29.485 13.7173 29.5378 13.6647L29.5905 13.6121L29.6433 13.5596C29.696 13.507 29.696 13.4545 29.7488 13.4545C29.907 13.2443 29.696 13.5596 29.8015 13.3494C30.0125 13.0866 30.2235 12.7712 30.3817 12.561C30.3817 12.5085 30.1707 12.7712 29.907 13.0866C29.8543 13.1917 29.7488 13.2968 29.696 13.3494C29.6433 13.4019 29.6433 13.4545 29.5905 13.507C29.5378 13.5596 29.5378 13.6121 29.485 13.6647C29.4323 13.7698 29.3268 13.8749 29.2741 13.98C29.2213 14.0852 29.1686 14.1903 29.1158 14.2428C29.1686 14.1377 29.2213 14.0852 29.2213 14.0326C29.2741 13.98 29.3268 13.8749 29.3796 13.7698C29.5378 13.5596 29.485 13.6121 29.5378 13.5596L29.8543 13.1391C29.8543 13.1391 29.8543 13.1391 29.8543 13.0866C29.8543 13.0866 29.907 13.034 29.9598 12.9289C30.0125 12.8764 30.0653 12.7712 30.1707 12.6136C30.2762 12.5085 30.329 12.4033 30.4345 12.2982C30.54 12.1931 30.6455 12.0354 30.751 11.9303C30.751 11.8778 30.8037 11.8778 30.8037 11.8252L30.8564 11.7727C30.9092 11.7201 30.9619 11.6675 30.9619 11.615C31.1202 11.4573 31.2257 11.3522 31.2784 11.2996C31.3312 11.2471 31.2784 11.2996 31.1729 11.4048C31.0674 11.5099 31.0147 11.5624 30.9092 11.6675ZM46.5748 8.40902C46.6275 8.40902 46.6803 8.46158 46.733 8.46158C46.7858 8.51414 46.8385 8.51414 46.944 8.56669C46.7858 8.51414 46.5748 8.46158 46.4165 8.35647L46.5748 8.40902Z" fill="#404F54"/>
<path d="M29.8015 13.2969L29.5905 13.6648L29.3795 14.0327L29.4323 13.9276C29.5378 13.7699 29.5378 13.7173 29.5905 13.6648C29.6432 13.5597 29.696 13.5071 29.8015 13.2969Z" fill="#404F54"/>
<path d="M29.2741 29.169C29.2214 29.1164 29.2214 29.0639 29.2214 29.0639C29.2214 29.0639 29.2214 29.0639 29.0104 28.7485L29.1686 29.0113L29.2741 29.169L29.3269 29.2741C29.4323 29.4318 29.5906 29.642 29.6961 29.7997C29.6433 29.7471 29.5906 29.642 29.5378 29.5369C29.4323 29.3792 29.3269 29.2741 29.2741 29.169Z" fill="#404F54"/>
</svg>
