<svg width="101" height="101" viewBox="0 0 101 101" fill="none" xmlns="http://www.w3.org/2000/svg">
<path d="M50.5 101C78.3904 101 101 78.3904 101 50.5C101 22.6096 78.3904 0 50.5 0C22.6096 0 0 22.6096 0 50.5C0 78.3904 22.6096 101 50.5 101Z" fill="#DDECEA"/>
<path d="M65.3 43.2H68C74 43.2 78.8 48 78.8 54C78.8 60 74 64.8 68.1 64.8H65.4" stroke="#404F54" stroke-linecap="round" stroke-linejoin="round"/>
<path d="M22.1 43.2H65.3V67.5C65.3 73.5 60.5 78.3 54.5 78.3H33C27 78.3 22.2 73.5 22.2 67.5V43.2H22.1Z" stroke="#404F54" stroke-linecap="round" stroke-linejoin="round"/>
<path d="M33 22.7V34.1" stroke="#404F54" stroke-linecap="round" stroke-linejoin="round"/>
<path d="M43.8 22.7V34.1" stroke="#404F54" stroke-linecap="round" stroke-linejoin="round"/>
<path d="M54.5 22.7V34.1" stroke="#404F54" stroke-linecap="round" stroke-linejoin="round"/>
<path d="M40.9 63.6C39.7 62.4 37.7 62.4 36.4 63.6L35.8 64.2L35.2 63.6C34 62.4 32 62.4 30.7 63.6C29.5 64.8 29.5 66.8 30.7 68.1L31.3 68.7L35.8 73.2L40.3 68.7L40.9 68.1C42.1 66.8 42.1 64.8 40.9 63.6Z" stroke="#404F54" stroke-linecap="round" stroke-linejoin="round"/>
<path d="M50.9 60.5H49.2C48.6 60.5 48 60 48 59.3V55.3C48 54.7 48.5 54.1 49.2 54.1H50.9M54.9 53V50.7C54.9 49.7 54.1 49 53.2 49L50.9 54.2V60.5H57.4C58 60.5 58.5 60.1 58.6 59.5L59.4 54.3C59.5 53.7 59.1 53.1 58.4 53C58.3 53 58.3 53 58.2 53H54.9Z" stroke="#404F54" stroke-linecap="round" stroke-linejoin="round"/>
</svg>
