<svg width="113" height="112" viewBox="0 0 113 112" fill="none" xmlns="http://www.w3.org/2000/svg">
<g clip-path="url(#clip0)">
<path d="M52.5 111.6C81.4949 111.6 105 88.095 105 59.1C105 30.1051 81.4949 6.60001 52.5 6.60001C23.5051 6.60001 0 30.1051 0 59.1C0 88.095 23.5051 111.6 52.5 111.6Z" fill="#DDECEA"/>
<path d="M89.1 35.8H93.7C103.9 35.8 112.2 44.1 112.2 54.3C112.2 64.5 104 72.8 93.8 72.8H89.2" stroke="#404F54" stroke-linecap="round" stroke-linejoin="round"/>
<path d="M15.1 35.8H89.2V77.5C89.2 87.7 80.9 96 70.7 96H33.7C23.5 96 15.2 87.7 15.2 77.5V35.8H15.1Z" stroke="#404F54" stroke-linecap="round" stroke-linejoin="round"/>
<path d="M33.6 0.5V20.1" stroke="#404F54" stroke-linecap="round" stroke-linejoin="round"/>
<path d="M52.1 0.5V20.1" stroke="#404F54" stroke-linecap="round" stroke-linejoin="round"/>
<path d="M70.6 0.5V20.1" stroke="#404F54" stroke-linecap="round" stroke-linejoin="round"/>
<path d="M47.2 70.7C45.1 68.6 41.6 68.6 39.5 70.7L38.5 71.7L37.5 70.7C35.4 68.6 31.9 68.6 29.8 70.7C27.7 72.8 27.7 76.3 29.8 78.4L30.8 79.4L38.5 87.1L46.2 79.4L47.2 78.4C49.4 76.2 49.4 72.8 47.2 70.7Z" stroke="#404F54" stroke-linecap="round" stroke-linejoin="round"/>
<path d="M64.3 65.4H61.3C60.2 65.4 59.3 64.5 59.3 63.4V56.5C59.3 55.4 60.2 54.5 61.3 54.5H64.3M71.2 52.6V48.7C71.2 47.1 69.9 45.7 68.2 45.7L64.3 54.6V65.4H75.4C76.4 65.4 77.2 64.7 77.4 63.7L78.8 54.8C79 53.7 78.2 52.7 77.1 52.6C77 52.6 76.9 52.6 76.8 52.6H71.2Z" stroke="#404F54" stroke-linecap="round" stroke-linejoin="round"/>
</g>
<defs>
<clipPath id="clip0">
<rect width="112.8" height="111.6" fill="white"/>
</clipPath>
</defs>
</svg>
