<svg width="101" height="101" viewBox="0 0 101 101" fill="none" xmlns="http://www.w3.org/2000/svg">
<path d="M50.5 101C78.3904 101 101 78.3904 101 50.5C101 22.6096 78.3904 0 50.5 0C22.6096 0 0 22.6096 0 50.5C0 78.3904 22.6096 101 50.5 101Z" fill="#DDECEA"/>
<path d="M14.9 35V76.4L37.6 66L63.4 76.4L86.1 66V24.6L63.4 35L37.6 24.6L14.9 35Z" stroke="#404F54" stroke-linecap="round" stroke-linejoin="round"/>
<path d="M37.6 24.6V66" stroke="#404F54" stroke-linecap="round" stroke-linejoin="round"/>
<path d="M63.4 35V76.4" stroke="#404F54" stroke-linecap="round" stroke-linejoin="round"/>
<path d="M57.9001 47.6C57.9001 54.2 49.6 59.8 49.6 59.8C49.6 59.8 41.3 54.2 41.3 47.6C41.3 42.9 45 39.2 49.6 39.2C54.2 39.2 57.9001 42.9 57.9001 47.6Z" stroke="#404F54" stroke-linecap="round" stroke-linejoin="round"/>
<path d="M49.6 50.4C51.1464 50.4 52.4001 49.1464 52.4001 47.6C52.4001 46.0536 51.1464 44.8 49.6 44.8C48.0537 44.8 46.8 46.0536 46.8 47.6C46.8 49.1464 48.0537 50.4 49.6 50.4Z" stroke="#404F54" stroke-linecap="round" stroke-linejoin="round"/>
</svg>
