<svg width="101" height="101" viewBox="0 0 101 101" fill="none" xmlns="http://www.w3.org/2000/svg">
<path d="M50.5 101C78.3904 101 101 78.3904 101 50.5C101 22.6096 78.3904 0 50.5 0C22.6096 0 0 22.6096 0 50.5C0 78.3904 22.6096 101 50.5 101Z" fill="#DDECEA"/>
<path d="M26.4 23.4H74.6C77.9 23.4 80.6 26.1 80.6 29.4V59.5C80.6 62.8 77.9 65.5 74.6 65.5H26.4C23.1 65.5 20.4 62.8 20.4 59.5V29.4C20.4 26.1 23 23.4 26.4 23.4Z" stroke="#404F54" stroke-linecap="round" stroke-linejoin="round"/>
<path d="M38.4 77.6H62.6" stroke="#404F54" stroke-linecap="round" stroke-linejoin="round"/>
<path d="M50.5 65.6V77.6" stroke="#404F54" stroke-linecap="round" stroke-linejoin="round"/>
<path d="M39 40V47.3" stroke="#404F54" stroke-linecap="round" stroke-linejoin="round"/>
<path d="M41.7 43.7H36.2" stroke="#404F54" stroke-linecap="round" stroke-linejoin="round"/>
<path d="M28.4 40V47.3" stroke="#404F54" stroke-linecap="round" stroke-linejoin="round"/>
<path d="M31.1 43.7H25.6" stroke="#404F54" stroke-linecap="round" stroke-linejoin="round"/>
<path d="M49.6 40V47.3" stroke="#404F54" stroke-linecap="round" stroke-linejoin="round"/>
<path d="M52.3 43.7H46.9" stroke="#404F54" stroke-linecap="round" stroke-linejoin="round"/>
<path d="M60.2 40V47.3" stroke="#404F54" stroke-linecap="round" stroke-linejoin="round"/>
<path d="M63 43.7H57.5" stroke="#404F54" stroke-linecap="round" stroke-linejoin="round"/>
<path d="M61 52.5C65.8049 52.5 69.7 48.6049 69.7 43.8C69.7 38.9951 65.8049 35.1 61 35.1C56.1951 35.1 52.3 38.9951 52.3 43.8C52.3 48.6049 56.1951 52.5 61 52.5Z" stroke="#404F54" stroke-linecap="round" stroke-linejoin="round"/>
<path d="M71.9 54.7L67.2 49.9" stroke="#404F54" stroke-linecap="round" stroke-linejoin="round"/>
</svg>
