<svg width="103" height="103" viewBox="0 0 103 103" fill="none" xmlns="http://www.w3.org/2000/svg">
<path d="M51.5 103C79.9427 103 103 79.9427 103 51.5C103 23.0573 79.9427 0 51.5 0C23.0573 0 0 23.0573 0 51.5C0 79.9427 23.0573 103 51.5 103Z" fill="#DDECEA"/>
<path d="M20.2 11.2H83.2C87.5 11.2 91.1 14.7 91.1 19.1V58.5C91.1 62.8 87.6 66.4 83.2 66.4H20.2C15.9 66.4 12.3 62.9 12.3 58.5V19C12.3 14.7 15.8 11.2 20.2 11.2Z" stroke="#404F54" stroke-linecap="round" stroke-linejoin="round"/>
<path d="M35.9 82H67.4" stroke="#404F54" stroke-linecap="round" stroke-linejoin="round"/>
<path d="M51.6 66.3V82" stroke="#404F54" stroke-linecap="round" stroke-linejoin="round"/>
<path d="M36.6 32.9V42.4" stroke="#404F54" stroke-linecap="round" stroke-linejoin="round"/>
<path d="M40.2 37.6H33" stroke="#404F54" stroke-linecap="round" stroke-linejoin="round"/>
<path d="M22.7 32.9V42.4" stroke="#404F54" stroke-linecap="round" stroke-linejoin="round"/>
<path d="M26.3 37.6H19.2" stroke="#404F54" stroke-linecap="round" stroke-linejoin="round"/>
<path d="M50.5 32.9V42.4" stroke="#404F54" stroke-linecap="round" stroke-linejoin="round"/>
<path d="M54 37.6H46.9" stroke="#404F54" stroke-linecap="round" stroke-linejoin="round"/>
<path d="M64.3 32.9V42.4" stroke="#404F54" stroke-linecap="round" stroke-linejoin="round"/>
<path d="M67.9 37.6H60.8" stroke="#404F54" stroke-linecap="round" stroke-linejoin="round"/>
<path d="M65.4 49.2C71.696 49.2 76.8 44.096 76.8 37.8C76.8 31.5039 71.696 26.4 65.4 26.4C59.104 26.4 54 31.5039 54 37.8C54 44.096 59.104 49.2 65.4 49.2Z" stroke="#404F54" stroke-linecap="round" stroke-linejoin="round"/>
<path d="M79.6 52L73.4 45.8" stroke="#404F54" stroke-linecap="round" stroke-linejoin="round"/>
</svg>
