<svg width="101" height="101" viewBox="0 0 101 101" fill="none" xmlns="http://www.w3.org/2000/svg">
<path d="M51.5 101C79.9427 101 101 79.9427 101 51.5C101 23.0573 79.9427 0 51.5 0C23.0573 0 0 23.0573 0 51.5C0 79.9427 23.0573 101 51.5 101Z" fill="#DDECEA"/>
<path d="M70.1 74V79.8" stroke="#404F54" stroke-linecap="round" stroke-linejoin="round"/>
<path d="M72.3 76.9H67.8" stroke="#404F54" stroke-linecap="round" stroke-linejoin="round"/>
<path d="M61.5 74V79.8" stroke="#404F54" stroke-linecap="round" stroke-linejoin="round"/>
<path d="M63.7 76.9H59.3" stroke="#404F54" stroke-linecap="round" stroke-linejoin="round"/>
<path d="M78.7 74V79.8" stroke="#404F54" stroke-linecap="round" stroke-linejoin="round"/>
<path d="M80.9 76.9H76.4" stroke="#404F54" stroke-linecap="round" stroke-linejoin="round"/>
<path d="M36.3 74V79.8" stroke="#404F54" stroke-linecap="round" stroke-linejoin="round"/>
<path d="M38.5 76.9H34.1" stroke="#404F54" stroke-linecap="round" stroke-linejoin="round"/>
<path d="M27.7 74V79.8" stroke="#404F54" stroke-linecap="round" stroke-linejoin="round"/>
<path d="M29.9 76.9H25.5" stroke="#404F54" stroke-linecap="round" stroke-linejoin="round"/>
<path d="M44.9 74V79.8" stroke="#404F54" stroke-linecap="round" stroke-linejoin="round"/>
<path d="M47.1 76.9H42.7" stroke="#404F54" stroke-linecap="round" stroke-linejoin="round"/>
<path d="M53.5 74V79.8" stroke="#404F54" stroke-linecap="round" stroke-linejoin="round"/>
<path d="M55.7 76.9H51.3" stroke="#404F54" stroke-linecap="round" stroke-linejoin="round"/>
<path d="M51.1 32.1C55.6 33 59.1 36.5 59.9 40.9L51.1 32.1ZM51.1 23.1C60.5 24.1 67.8 31.5 68.9 40.9L51.1 23.1ZM66.6 58.8V65.5C66.6 68 64.6 70 62.1 70C62 70 61.8 70 61.7 70C54.8 69.3 48.2 66.9 42.4 63.1C37 59.7 32.4 55.1 29 49.7C25.2 43.9 22.9 37.2 22.1 30.3C21.9 27.8 23.7 25.7 26.2 25.4C26.3 25.4 26.5 25.4 26.6 25.4H33.3C35.5 25.4 37.5 27 37.8 29.2C38.1 31.3 38.6 33.5 39.4 35.5C40 37.1 39.6 39 38.4 40.2L35.6 43C38.8 48.6 43.4 53.2 49 56.4L51.8 53.6C53 52.4 54.9 52 56.5 52.6C58.5 53.4 60.6 53.9 62.8 54.2C65 54.5 66.7 56.5 66.6 58.8Z" stroke="#404F54" stroke-linecap="round" stroke-linejoin="round"/>
</svg>
