<svg width="103" height="104" viewBox="0 0 103 104" fill="none" xmlns="http://www.w3.org/2000/svg">
<g clip-path="url(#clip0)">
<path d="M51.5 103.6C79.9427 103.6 103 80.5427 103 52.1C103 23.6573 79.9427 0.600006 51.5 0.600006C23.0573 0.600006 0 23.6573 0 52.1C0 80.5427 23.0573 103.6 51.5 103.6Z" fill="#DDECEA"/>
<path d="M83.1 82.5V92" stroke="#404F54" stroke-linecap="round" stroke-linejoin="round"/>
<path d="M86.6001 87.3H79.5001" stroke="#404F54" stroke-linecap="round" stroke-linejoin="round"/>
<path d="M69.2 82.5V92" stroke="#404F54" stroke-linecap="round" stroke-linejoin="round"/>
<path d="M72.8 87.3H65.6" stroke="#404F54" stroke-linecap="round" stroke-linejoin="round"/>
<path d="M96.9 82.5V92" stroke="#404F54" stroke-linecap="round" stroke-linejoin="round"/>
<path d="M100.5 87.3H93.3" stroke="#404F54" stroke-linecap="round" stroke-linejoin="round"/>
<path d="M28.6 82.5V92" stroke="#404F54" stroke-linecap="round" stroke-linejoin="round"/>
<path d="M32.2 87.3H25" stroke="#404F54" stroke-linecap="round" stroke-linejoin="round"/>
<path d="M14.7 82.5V92" stroke="#404F54" stroke-linecap="round" stroke-linejoin="round"/>
<path d="M18.3 87.3H11.2" stroke="#404F54" stroke-linecap="round" stroke-linejoin="round"/>
<path d="M42.5 82.5V92" stroke="#404F54" stroke-linecap="round" stroke-linejoin="round"/>
<path d="M46 87.3H38.9" stroke="#404F54" stroke-linecap="round" stroke-linejoin="round"/>
<path d="M56.3 82.5V92" stroke="#404F54" stroke-linecap="round" stroke-linejoin="round"/>
<path d="M59.9 87.3H52.8" stroke="#404F54" stroke-linecap="round" stroke-linejoin="round"/>
<path d="M52.4 14.9C59.6 16.3 65.3 21.9 66.7 29.2M52.4 0.5C67.5 2.2 79.4 14.1 81.1 29.2M77.5 58V68.8C77.5 72.8 74.3 76 70.3 76C70.1 76 69.8 76 69.6 76C58.5 74.8 47.8 71 38.4 64.9C29.8 59.4 22.4 52 16.8 43.3C10.7 33.9 6.9 23.1 5.7 12C5.3 8 8.3 4.5 12.2 4.2C12.4 4.2 12.6 4.2 12.8 4.2H23.6C27.2 4.2 30.3 6.8 30.8 10.4C31.3 13.9 32.1 17.3 33.3 20.5C34.3 23.1 33.7 26.1 31.7 28.1L27.1 32.7C32.2 41.7 39.7 49.2 48.8 54.4L53.4 49.8C55.4 47.8 58.4 47.2 61 48.2C64.3 49.4 67.7 50.3 71.1 50.7C74.9 51.2 77.6 54.3 77.5 58Z" stroke="#404F54" stroke-linecap="round" stroke-linejoin="round"/>
</g>
<defs>
<clipPath id="clip0">
<rect width="103" height="103.6" fill="white"/>
</clipPath>
</defs>
</svg>
