<svg width="105" height="114" viewBox="0 0 105 114" fill="none" xmlns="http://www.w3.org/2000/svg">
<path d="M52.5 113.333C81.4949 113.333 105 89.828 105 60.833C105 31.8381 81.4949 8.33301 52.5 8.33301C23.5051 8.33301 0 31.8381 0 60.833C0 89.828 23.5051 113.333 52.5 113.333Z" fill="#DDECEA"/>
<path d="M99.9 95.4331L87.9 107.433L76.2 95.7331L64.1999 107.733L52.5999 96.1331L40.5 108.133L28.9 96.4331L16.9 108.433L5.19995 96.8331" stroke="#404F54" stroke-linecap="round" stroke-linejoin="round"/>
<path d="M99.9 86.9331L87.9 98.9331L76.2 87.2331L64.1999 99.2331L52.5999 87.5331L40.5 99.6331L28.9 87.9331L16.9 99.9331L5.19995 88.2331" stroke="#404F54" stroke-linecap="round" stroke-linejoin="round"/>
<path d="M99.9 78.333L87.9 90.333L76.2 78.733L64.1999 90.733L52.5999 79.033L40.5 91.033L28.9 79.333L16.9 91.433L5.19995 79.733" stroke="#404F54" stroke-linecap="round" stroke-linejoin="round"/>
<path d="M99.9 69.833L87.9 81.833L76.2 70.133L64.1999 82.133L52.5999 70.533L40.5 82.533L28.9 70.833L16.9 82.833L5.19995 71.233" stroke="#404F54" stroke-linecap="round" stroke-linejoin="round"/>
<path d="M60.6363 49.7985C60.6363 54.531 56.8171 58.4332 52.0016 58.4332C47.1861 58.4332 43.3669 54.614 43.3669 49.7985V29.7061M74.9999 29.7061C73.3394 12.2706 57.8965 -0.515461 40.4609 1.14507C25.3502 2.63954 13.3944 14.5953 11.8999 29.7061H74.9999Z" stroke="#404F54" stroke-linecap="round" stroke-linejoin="round"/>
</svg>
